M48
; DRILL file {KiCad (5.1.9)-1} date 03/02/21 23:47:42
; FORMAT={-:-/ absolute / inch / decimal}
; #@! TF.CreationDate,2021-03-02T23:47:42+00:00
; #@! TF.GenerationSoftware,Kicad,Pcbnew,(5.1.9)-1
FMAT,2
INCH
T1C0.0157
T2C0.0354
T3C0.0394
T4C0.0472
%
G90
G05
T1
X5.39Y-3.38
T2
X5.5Y-3.4
X5.6Y-3.4
T3
X5.2Y-3.1
X5.2Y-3.2
X5.3Y-3.1
X5.3Y-3.2
X5.4Y-3.1
X5.4Y-3.2
X5.5Y-3.1
X5.5Y-3.2
X5.6Y-3.1
X5.6Y-3.2
X5.7Y-3.1
X5.7Y-3.2
X5.8Y-3.1
X5.8Y-3.2
X5.9Y-3.1
X5.9Y-3.2
T3
G00X5.1425Y-3.6508
M15
G01X5.1425Y-3.7492
M16
G05
G00X5.2508Y-3.5425
M15
G01X5.3492Y-3.5425
M16
G05
G00X5.4969Y-3.6508
M15
G01X5.4969Y-3.7492
M16
G05
T4
G00X5.8256Y-3.5157
M15
G01X5.7744Y-3.5157
M16
G05
G00X5.8256Y-3.7008
M15
G01X5.7744Y-3.7008
M16
G05
G00X5.8256Y-3.8858
M15
G01X5.7744Y-3.8858
M16
G05
T0
M30
