%TF.GenerationSoftware,KiCad,Pcbnew,(5.1.9)-1*%
%TF.CreationDate,2021-03-03T01:29:12+00:00*%
%TF.ProjectId,NOR,4e4f522e-6b69-4636-9164-5f7063625858,rev?*%
%TF.SameCoordinates,Original*%
%TF.FileFunction,Soldermask,Top*%
%TF.FilePolarity,Negative*%
%FSLAX46Y46*%
G04 Gerber Fmt 4.6, Leading zero omitted, Abs format (unit mm)*
G04 Created by KiCad (PCBNEW (5.1.9)-1) date 2021-03-03 01:29:12*
%MOMM*%
%LPD*%
G01*
G04 APERTURE LIST*
%ADD10R,1.300000X0.700000*%
%ADD11R,1.500000X1.300000*%
%ADD12R,1.300000X1.500000*%
%ADD13R,1.850000X1.850000*%
%ADD14C,1.850000*%
%ADD15C,3.203200*%
%ADD16R,0.900000X0.800000*%
%ADD17R,0.800000X0.900000*%
%ADD18R,1.800000X1.800000*%
%ADD19C,1.800000*%
G04 APERTURE END LIST*
D10*
%TO.C,R2*%
X64516000Y-85664000D03*
X64516000Y-87564000D03*
%TD*%
%TO.C,R4*%
X39600000Y-85750000D03*
X39600000Y-87650000D03*
%TD*%
D11*
%TO.C,R10*%
X53260000Y-73152000D03*
X55960000Y-73152000D03*
%TD*%
%TO.C,R9*%
X50950000Y-62230000D03*
X48250000Y-62230000D03*
%TD*%
%TO.C,R8*%
X42846000Y-67310000D03*
X45546000Y-67310000D03*
%TD*%
%TO.C,R7*%
X43608000Y-73914000D03*
X46308000Y-73914000D03*
%TD*%
%TO.C,R6*%
X61040000Y-76962000D03*
X58340000Y-76962000D03*
%TD*%
%TO.C,R5*%
X43354000Y-76835000D03*
X46054000Y-76835000D03*
%TD*%
%TO.C,R3*%
X41990000Y-69342000D03*
X39290000Y-69342000D03*
%TD*%
D12*
%TO.C,R1*%
X39878000Y-76374000D03*
X39878000Y-79074000D03*
%TD*%
D13*
%TO.C,J1*%
X43942000Y-64008000D03*
D14*
X41442000Y-64008000D03*
%TD*%
D15*
%TO.C,J2*%
X45720000Y-82550000D03*
G36*
G01*
X38970000Y-80948400D02*
X40470000Y-80948400D01*
G75*
G02*
X40571600Y-81050000I0J-101600D01*
G01*
X40571600Y-84050000D01*
G75*
G02*
X40470000Y-84151600I-101600J0D01*
G01*
X38970000Y-84151600D01*
G75*
G02*
X38868400Y-84050000I0J101600D01*
G01*
X38868400Y-81050000D01*
G75*
G02*
X38970000Y-80948400I101600J0D01*
G01*
G37*
G36*
G01*
X41220000Y-80648400D02*
X43220000Y-80648400D01*
G75*
G02*
X43321600Y-80750000I0J-101600D01*
G01*
X43321600Y-84350000D01*
G75*
G02*
X43220000Y-84451600I-101600J0D01*
G01*
X41220000Y-84451600D01*
G75*
G02*
X41118400Y-84350000I0J101600D01*
G01*
X41118400Y-80750000D01*
G75*
G02*
X41220000Y-80648400I101600J0D01*
G01*
G37*
G36*
G01*
X49220000Y-80648400D02*
X51220000Y-80648400D01*
G75*
G02*
X51321600Y-80750000I0J-101600D01*
G01*
X51321600Y-84350000D01*
G75*
G02*
X51220000Y-84451600I-101600J0D01*
G01*
X49220000Y-84451600D01*
G75*
G02*
X49118400Y-84350000I0J101600D01*
G01*
X49118400Y-80750000D01*
G75*
G02*
X49220000Y-80648400I101600J0D01*
G01*
G37*
%TD*%
%TO.C,J4*%
X58420000Y-67310000D03*
G36*
G01*
X65170000Y-68911600D02*
X63670000Y-68911600D01*
G75*
G02*
X63568400Y-68810000I0J101600D01*
G01*
X63568400Y-65810000D01*
G75*
G02*
X63670000Y-65708400I101600J0D01*
G01*
X65170000Y-65708400D01*
G75*
G02*
X65271600Y-65810000I0J-101600D01*
G01*
X65271600Y-68810000D01*
G75*
G02*
X65170000Y-68911600I-101600J0D01*
G01*
G37*
G36*
G01*
X62920000Y-69211600D02*
X60920000Y-69211600D01*
G75*
G02*
X60818400Y-69110000I0J101600D01*
G01*
X60818400Y-65510000D01*
G75*
G02*
X60920000Y-65408400I101600J0D01*
G01*
X62920000Y-65408400D01*
G75*
G02*
X63021600Y-65510000I0J-101600D01*
G01*
X63021600Y-69110000D01*
G75*
G02*
X62920000Y-69211600I-101600J0D01*
G01*
G37*
G36*
G01*
X54920000Y-69211600D02*
X52920000Y-69211600D01*
G75*
G02*
X52818400Y-69110000I0J101600D01*
G01*
X52818400Y-65510000D01*
G75*
G02*
X52920000Y-65408400I101600J0D01*
G01*
X54920000Y-65408400D01*
G75*
G02*
X55021600Y-65510000I0J-101600D01*
G01*
X55021600Y-69110000D01*
G75*
G02*
X54920000Y-69211600I-101600J0D01*
G01*
G37*
%TD*%
%TO.C,J3*%
X58420000Y-82550000D03*
G36*
G01*
X65170000Y-84151600D02*
X63670000Y-84151600D01*
G75*
G02*
X63568400Y-84050000I0J101600D01*
G01*
X63568400Y-81050000D01*
G75*
G02*
X63670000Y-80948400I101600J0D01*
G01*
X65170000Y-80948400D01*
G75*
G02*
X65271600Y-81050000I0J-101600D01*
G01*
X65271600Y-84050000D01*
G75*
G02*
X65170000Y-84151600I-101600J0D01*
G01*
G37*
G36*
G01*
X62920000Y-84451600D02*
X60920000Y-84451600D01*
G75*
G02*
X60818400Y-84350000I0J101600D01*
G01*
X60818400Y-80750000D01*
G75*
G02*
X60920000Y-80648400I101600J0D01*
G01*
X62920000Y-80648400D01*
G75*
G02*
X63021600Y-80750000I0J-101600D01*
G01*
X63021600Y-84350000D01*
G75*
G02*
X62920000Y-84451600I-101600J0D01*
G01*
G37*
G36*
G01*
X54920000Y-84451600D02*
X52920000Y-84451600D01*
G75*
G02*
X52818400Y-84350000I0J101600D01*
G01*
X52818400Y-80750000D01*
G75*
G02*
X52920000Y-80648400I101600J0D01*
G01*
X54920000Y-80648400D01*
G75*
G02*
X55021600Y-80750000I0J-101600D01*
G01*
X55021600Y-84350000D01*
G75*
G02*
X54920000Y-84451600I-101600J0D01*
G01*
G37*
%TD*%
D16*
%TO.C,Q4*%
X65262000Y-73594000D03*
X65262000Y-71694000D03*
X63262000Y-72644000D03*
%TD*%
%TO.C,Q3*%
X44466000Y-69916000D03*
X44466000Y-71816000D03*
X46466000Y-70866000D03*
%TD*%
D17*
%TO.C,Q2*%
X63058000Y-77200000D03*
X64958000Y-77200000D03*
X64008000Y-75200000D03*
%TD*%
D16*
%TO.C,Q1*%
X39386000Y-71948000D03*
X39386000Y-73848000D03*
X41386000Y-72898000D03*
%TD*%
D18*
%TO.C,D3*%
X50000000Y-66195000D03*
D19*
X50000000Y-68735000D03*
%TD*%
D18*
%TO.C,D2*%
X55880000Y-76835000D03*
D19*
X53340000Y-76835000D03*
%TD*%
D18*
%TO.C,D1*%
X48260000Y-76835000D03*
D19*
X50800000Y-76835000D03*
%TD*%
M02*
