%TF.GenerationSoftware,KiCad,Pcbnew,(5.1.9)-1*%
%TF.CreationDate,2021-03-03T01:29:12+00:00*%
%TF.ProjectId,NOR,4e4f522e-6b69-4636-9164-5f7063625858,rev?*%
%TF.SameCoordinates,Original*%
%TF.FileFunction,Copper,L2,Bot*%
%TF.FilePolarity,Positive*%
%FSLAX46Y46*%
G04 Gerber Fmt 4.6, Leading zero omitted, Abs format (unit mm)*
G04 Created by KiCad (PCBNEW (5.1.9)-1) date 2021-03-03 01:29:12*
%MOMM*%
%LPD*%
G01*
G04 APERTURE LIST*
%TA.AperFunction,ComponentPad*%
%ADD10R,1.850000X1.850000*%
%TD*%
%TA.AperFunction,ComponentPad*%
%ADD11C,1.850000*%
%TD*%
%TA.AperFunction,ComponentPad*%
%ADD12R,2.000000X3.600000*%
%TD*%
%TA.AperFunction,ComponentPad*%
%ADD13R,1.800000X1.800000*%
%TD*%
%TA.AperFunction,ComponentPad*%
%ADD14C,1.800000*%
%TD*%
%TA.AperFunction,ViaPad*%
%ADD15C,0.800000*%
%TD*%
%TA.AperFunction,ViaPad*%
%ADD16C,1.000000*%
%TD*%
%TA.AperFunction,Conductor*%
%ADD17C,0.600000*%
%TD*%
%TA.AperFunction,Conductor*%
%ADD18C,0.254000*%
%TD*%
%TA.AperFunction,Conductor*%
%ADD19C,0.100000*%
%TD*%
G04 APERTURE END LIST*
D10*
%TO.P,J1,1*%
%TO.N,+5V*%
X43942000Y-64008000D03*
D11*
%TO.P,J1,2*%
%TO.N,GND*%
X41442000Y-64008000D03*
%TD*%
D12*
%TO.P,J2,2*%
%TO.N,Net-(J2-Pad2)*%
X42220000Y-82550000D03*
%TO.P,J2,1*%
%TO.N,Net-(J2-Pad1)*%
X50220000Y-82550000D03*
%TD*%
%TO.P,J4,2*%
%TO.N,Net-(J4-Pad2)*%
X61920000Y-67310000D03*
%TO.P,J4,1*%
%TO.N,Net-(J4-Pad1)*%
X53920000Y-67310000D03*
%TD*%
%TO.P,J3,2*%
%TO.N,Net-(J3-Pad2)*%
X61920000Y-82550000D03*
%TO.P,J3,1*%
%TO.N,Net-(J3-Pad1)*%
X53920000Y-82550000D03*
%TD*%
D13*
%TO.P,D3,1*%
%TO.N,Net-(D3-Pad1)*%
X50000000Y-66195000D03*
D14*
%TO.P,D3,2*%
%TO.N,Net-(D3-Pad2)*%
X50000000Y-68735000D03*
%TD*%
D13*
%TO.P,D2,1*%
%TO.N,Net-(D2-Pad1)*%
X55880000Y-76835000D03*
D14*
%TO.P,D2,2*%
%TO.N,+5V*%
X53340000Y-76835000D03*
%TD*%
D13*
%TO.P,D1,1*%
%TO.N,Net-(D1-Pad1)*%
X48260000Y-76835000D03*
D14*
%TO.P,D1,2*%
%TO.N,+5V*%
X50800000Y-76835000D03*
%TD*%
D15*
%TO.N,GND*%
X65024000Y-80264000D03*
X63500000Y-78232000D03*
X64008000Y-73660000D03*
X64262000Y-64770000D03*
X47752000Y-73914000D03*
X44450000Y-68834000D03*
X39624000Y-80518000D03*
X39370000Y-70866000D03*
%TO.N,Net-(J4-Pad1)*%
X46990000Y-67310000D03*
D16*
X48260000Y-64008000D03*
D15*
%TO.N,Net-(J2-Pad1)*%
X47498000Y-78994000D03*
X43942000Y-78994000D03*
X41656000Y-77216000D03*
X41656000Y-71628000D03*
%TD*%
D17*
%TO.N,Net-(J4-Pad1)*%
X46990000Y-67310000D02*
X48260000Y-66040000D01*
X48260000Y-66040000D02*
X48260000Y-64008000D01*
%TO.N,Net-(J2-Pad1)*%
X47498000Y-78994000D02*
X43942000Y-78994000D01*
X41656000Y-77216000D02*
X41656000Y-71882000D01*
%TD*%
D18*
%TO.N,GND*%
X65380000Y-84201000D02*
X63558072Y-84201000D01*
X63558072Y-80750000D01*
X63545812Y-80625518D01*
X63509502Y-80505820D01*
X63450537Y-80395506D01*
X63371185Y-80298815D01*
X63274494Y-80219463D01*
X63164180Y-80160498D01*
X63044482Y-80124188D01*
X62920000Y-80111928D01*
X60920000Y-80111928D01*
X60795518Y-80124188D01*
X60675820Y-80160498D01*
X60565506Y-80219463D01*
X60468815Y-80298815D01*
X60389463Y-80395506D01*
X60330498Y-80505820D01*
X60294188Y-80625518D01*
X60281928Y-80750000D01*
X60281928Y-81493674D01*
X60078363Y-81189017D01*
X59780983Y-80891637D01*
X59431302Y-80657988D01*
X59042756Y-80497047D01*
X58630279Y-80415000D01*
X58209721Y-80415000D01*
X57797244Y-80497047D01*
X57408698Y-80657988D01*
X57059017Y-80891637D01*
X56761637Y-81189017D01*
X56527988Y-81538698D01*
X56367047Y-81927244D01*
X56285000Y-82339721D01*
X56285000Y-82760279D01*
X56367047Y-83172756D01*
X56527988Y-83561302D01*
X56761637Y-83910983D01*
X57051654Y-84201000D01*
X55558072Y-84201000D01*
X55558072Y-80750000D01*
X55545812Y-80625518D01*
X55509502Y-80505820D01*
X55450537Y-80395506D01*
X55371185Y-80298815D01*
X55274494Y-80219463D01*
X55164180Y-80160498D01*
X55044482Y-80124188D01*
X54920000Y-80111928D01*
X52920000Y-80111928D01*
X52795518Y-80124188D01*
X52675820Y-80160498D01*
X52565506Y-80219463D01*
X52468815Y-80298815D01*
X52389463Y-80395506D01*
X52330498Y-80505820D01*
X52294188Y-80625518D01*
X52281928Y-80750000D01*
X52281928Y-84201000D01*
X51858072Y-84201000D01*
X51858072Y-80750000D01*
X51845812Y-80625518D01*
X51809502Y-80505820D01*
X51750537Y-80395506D01*
X51671185Y-80298815D01*
X51574494Y-80219463D01*
X51464180Y-80160498D01*
X51344482Y-80124188D01*
X51220000Y-80111928D01*
X49220000Y-80111928D01*
X49095518Y-80124188D01*
X48975820Y-80160498D01*
X48865506Y-80219463D01*
X48768815Y-80298815D01*
X48689463Y-80395506D01*
X48630498Y-80505820D01*
X48594188Y-80625518D01*
X48581928Y-80750000D01*
X48581928Y-84201000D01*
X47088346Y-84201000D01*
X47378363Y-83910983D01*
X47612012Y-83561302D01*
X47772953Y-83172756D01*
X47855000Y-82760279D01*
X47855000Y-82339721D01*
X47772953Y-81927244D01*
X47612012Y-81538698D01*
X47378363Y-81189017D01*
X47080983Y-80891637D01*
X46731302Y-80657988D01*
X46342756Y-80497047D01*
X45930279Y-80415000D01*
X45509721Y-80415000D01*
X45097244Y-80497047D01*
X44708698Y-80657988D01*
X44359017Y-80891637D01*
X44061637Y-81189017D01*
X43858072Y-81493674D01*
X43858072Y-80750000D01*
X43845812Y-80625518D01*
X43809502Y-80505820D01*
X43750537Y-80395506D01*
X43671185Y-80298815D01*
X43574494Y-80219463D01*
X43464180Y-80160498D01*
X43344482Y-80124188D01*
X43220000Y-80111928D01*
X41220000Y-80111928D01*
X41095518Y-80124188D01*
X40975820Y-80160498D01*
X40865506Y-80219463D01*
X40768815Y-80298815D01*
X40689463Y-80395506D01*
X40630498Y-80505820D01*
X40594188Y-80625518D01*
X40581928Y-80750000D01*
X40581928Y-84201000D01*
X38760000Y-84201000D01*
X38760000Y-78892061D01*
X42907000Y-78892061D01*
X42907000Y-79095939D01*
X42946774Y-79295898D01*
X43024795Y-79484256D01*
X43138063Y-79653774D01*
X43282226Y-79797937D01*
X43451744Y-79911205D01*
X43640102Y-79989226D01*
X43840061Y-80029000D01*
X44043939Y-80029000D01*
X44243898Y-79989226D01*
X44389295Y-79929000D01*
X47050705Y-79929000D01*
X47196102Y-79989226D01*
X47396061Y-80029000D01*
X47599939Y-80029000D01*
X47799898Y-79989226D01*
X47988256Y-79911205D01*
X48157774Y-79797937D01*
X48301937Y-79653774D01*
X48415205Y-79484256D01*
X48493226Y-79295898D01*
X48533000Y-79095939D01*
X48533000Y-78892061D01*
X48493226Y-78692102D01*
X48415205Y-78503744D01*
X48327893Y-78373072D01*
X49160000Y-78373072D01*
X49284482Y-78360812D01*
X49404180Y-78324502D01*
X49514494Y-78265537D01*
X49611185Y-78186185D01*
X49690537Y-78089494D01*
X49749502Y-77979180D01*
X49755056Y-77960873D01*
X49821495Y-78027312D01*
X50072905Y-78195299D01*
X50352257Y-78311011D01*
X50648816Y-78370000D01*
X50951184Y-78370000D01*
X51247743Y-78311011D01*
X51527095Y-78195299D01*
X51778505Y-78027312D01*
X51992312Y-77813505D01*
X52070000Y-77697237D01*
X52147688Y-77813505D01*
X52361495Y-78027312D01*
X52612905Y-78195299D01*
X52892257Y-78311011D01*
X53188816Y-78370000D01*
X53491184Y-78370000D01*
X53787743Y-78311011D01*
X54067095Y-78195299D01*
X54318505Y-78027312D01*
X54384944Y-77960873D01*
X54390498Y-77979180D01*
X54449463Y-78089494D01*
X54528815Y-78186185D01*
X54625506Y-78265537D01*
X54735820Y-78324502D01*
X54855518Y-78360812D01*
X54980000Y-78373072D01*
X56780000Y-78373072D01*
X56904482Y-78360812D01*
X57024180Y-78324502D01*
X57134494Y-78265537D01*
X57231185Y-78186185D01*
X57310537Y-78089494D01*
X57369502Y-77979180D01*
X57405812Y-77859482D01*
X57418072Y-77735000D01*
X57418072Y-75935000D01*
X57405812Y-75810518D01*
X57369502Y-75690820D01*
X57310537Y-75580506D01*
X57231185Y-75483815D01*
X57134494Y-75404463D01*
X57024180Y-75345498D01*
X56904482Y-75309188D01*
X56780000Y-75296928D01*
X54980000Y-75296928D01*
X54855518Y-75309188D01*
X54735820Y-75345498D01*
X54625506Y-75404463D01*
X54528815Y-75483815D01*
X54449463Y-75580506D01*
X54390498Y-75690820D01*
X54384944Y-75709127D01*
X54318505Y-75642688D01*
X54067095Y-75474701D01*
X53787743Y-75358989D01*
X53491184Y-75300000D01*
X53188816Y-75300000D01*
X52892257Y-75358989D01*
X52612905Y-75474701D01*
X52361495Y-75642688D01*
X52147688Y-75856495D01*
X52070000Y-75972763D01*
X51992312Y-75856495D01*
X51778505Y-75642688D01*
X51527095Y-75474701D01*
X51247743Y-75358989D01*
X50951184Y-75300000D01*
X50648816Y-75300000D01*
X50352257Y-75358989D01*
X50072905Y-75474701D01*
X49821495Y-75642688D01*
X49755056Y-75709127D01*
X49749502Y-75690820D01*
X49690537Y-75580506D01*
X49611185Y-75483815D01*
X49514494Y-75404463D01*
X49404180Y-75345498D01*
X49284482Y-75309188D01*
X49160000Y-75296928D01*
X47360000Y-75296928D01*
X47235518Y-75309188D01*
X47115820Y-75345498D01*
X47005506Y-75404463D01*
X46908815Y-75483815D01*
X46829463Y-75580506D01*
X46770498Y-75690820D01*
X46734188Y-75810518D01*
X46721928Y-75935000D01*
X46721928Y-77735000D01*
X46734188Y-77859482D01*
X46770498Y-77979180D01*
X46813163Y-78059000D01*
X44389295Y-78059000D01*
X44243898Y-77998774D01*
X44043939Y-77959000D01*
X43840061Y-77959000D01*
X43640102Y-77998774D01*
X43451744Y-78076795D01*
X43282226Y-78190063D01*
X43138063Y-78334226D01*
X43024795Y-78503744D01*
X42946774Y-78692102D01*
X42907000Y-78892061D01*
X38760000Y-78892061D01*
X38760000Y-71526061D01*
X40621000Y-71526061D01*
X40621000Y-71729939D01*
X40660774Y-71929898D01*
X40721001Y-72075298D01*
X40721000Y-76768704D01*
X40660774Y-76914102D01*
X40621000Y-77114061D01*
X40621000Y-77317939D01*
X40660774Y-77517898D01*
X40738795Y-77706256D01*
X40852063Y-77875774D01*
X40996226Y-78019937D01*
X41165744Y-78133205D01*
X41354102Y-78211226D01*
X41554061Y-78251000D01*
X41757939Y-78251000D01*
X41957898Y-78211226D01*
X42146256Y-78133205D01*
X42315774Y-78019937D01*
X42459937Y-77875774D01*
X42573205Y-77706256D01*
X42651226Y-77517898D01*
X42691000Y-77317939D01*
X42691000Y-77114061D01*
X42651226Y-76914102D01*
X42591000Y-76768705D01*
X42591000Y-72075295D01*
X42651226Y-71929898D01*
X42691000Y-71729939D01*
X42691000Y-71526061D01*
X42651226Y-71326102D01*
X42573205Y-71137744D01*
X42459937Y-70968226D01*
X42315774Y-70824063D01*
X42146256Y-70710795D01*
X41957898Y-70632774D01*
X41757939Y-70593000D01*
X41554061Y-70593000D01*
X41354102Y-70632774D01*
X41165744Y-70710795D01*
X40996226Y-70824063D01*
X40852063Y-70968226D01*
X40738795Y-71137744D01*
X40660774Y-71326102D01*
X40621000Y-71526061D01*
X38760000Y-71526061D01*
X38760000Y-67208061D01*
X45955000Y-67208061D01*
X45955000Y-67411939D01*
X45994774Y-67611898D01*
X46072795Y-67800256D01*
X46186063Y-67969774D01*
X46330226Y-68113937D01*
X46499744Y-68227205D01*
X46688102Y-68305226D01*
X46888061Y-68345000D01*
X47091939Y-68345000D01*
X47291898Y-68305226D01*
X47480256Y-68227205D01*
X47649774Y-68113937D01*
X47793937Y-67969774D01*
X47907205Y-67800256D01*
X47967431Y-67654858D01*
X48467788Y-67154501D01*
X48474188Y-67219482D01*
X48510498Y-67339180D01*
X48569463Y-67449494D01*
X48648815Y-67546185D01*
X48745506Y-67625537D01*
X48855820Y-67684502D01*
X48874127Y-67690056D01*
X48807688Y-67756495D01*
X48639701Y-68007905D01*
X48523989Y-68287257D01*
X48465000Y-68583816D01*
X48465000Y-68886184D01*
X48523989Y-69182743D01*
X48639701Y-69462095D01*
X48807688Y-69713505D01*
X49021495Y-69927312D01*
X49272905Y-70095299D01*
X49552257Y-70211011D01*
X49848816Y-70270000D01*
X50151184Y-70270000D01*
X50447743Y-70211011D01*
X50727095Y-70095299D01*
X50978505Y-69927312D01*
X51192312Y-69713505D01*
X51360299Y-69462095D01*
X51476011Y-69182743D01*
X51535000Y-68886184D01*
X51535000Y-68583816D01*
X51476011Y-68287257D01*
X51360299Y-68007905D01*
X51192312Y-67756495D01*
X51125873Y-67690056D01*
X51144180Y-67684502D01*
X51254494Y-67625537D01*
X51351185Y-67546185D01*
X51430537Y-67449494D01*
X51489502Y-67339180D01*
X51525812Y-67219482D01*
X51538072Y-67095000D01*
X51538072Y-65510000D01*
X52281928Y-65510000D01*
X52281928Y-69110000D01*
X52294188Y-69234482D01*
X52330498Y-69354180D01*
X52389463Y-69464494D01*
X52468815Y-69561185D01*
X52565506Y-69640537D01*
X52675820Y-69699502D01*
X52795518Y-69735812D01*
X52920000Y-69748072D01*
X54920000Y-69748072D01*
X55044482Y-69735812D01*
X55164180Y-69699502D01*
X55274494Y-69640537D01*
X55371185Y-69561185D01*
X55450537Y-69464494D01*
X55509502Y-69354180D01*
X55545812Y-69234482D01*
X55558072Y-69110000D01*
X55558072Y-67099721D01*
X56285000Y-67099721D01*
X56285000Y-67520279D01*
X56367047Y-67932756D01*
X56527988Y-68321302D01*
X56761637Y-68670983D01*
X57059017Y-68968363D01*
X57408698Y-69202012D01*
X57797244Y-69362953D01*
X58209721Y-69445000D01*
X58630279Y-69445000D01*
X59042756Y-69362953D01*
X59431302Y-69202012D01*
X59780983Y-68968363D01*
X60078363Y-68670983D01*
X60281928Y-68366326D01*
X60281928Y-69110000D01*
X60294188Y-69234482D01*
X60330498Y-69354180D01*
X60389463Y-69464494D01*
X60468815Y-69561185D01*
X60565506Y-69640537D01*
X60675820Y-69699502D01*
X60795518Y-69735812D01*
X60920000Y-69748072D01*
X62920000Y-69748072D01*
X63044482Y-69735812D01*
X63164180Y-69699502D01*
X63274494Y-69640537D01*
X63371185Y-69561185D01*
X63450537Y-69464494D01*
X63509502Y-69354180D01*
X63545812Y-69234482D01*
X63558072Y-69110000D01*
X63558072Y-65510000D01*
X63545812Y-65385518D01*
X63509502Y-65265820D01*
X63450537Y-65155506D01*
X63371185Y-65058815D01*
X63274494Y-64979463D01*
X63164180Y-64920498D01*
X63044482Y-64884188D01*
X62920000Y-64871928D01*
X60920000Y-64871928D01*
X60795518Y-64884188D01*
X60675820Y-64920498D01*
X60565506Y-64979463D01*
X60468815Y-65058815D01*
X60389463Y-65155506D01*
X60330498Y-65265820D01*
X60294188Y-65385518D01*
X60281928Y-65510000D01*
X60281928Y-66253674D01*
X60078363Y-65949017D01*
X59780983Y-65651637D01*
X59431302Y-65417988D01*
X59042756Y-65257047D01*
X58630279Y-65175000D01*
X58209721Y-65175000D01*
X57797244Y-65257047D01*
X57408698Y-65417988D01*
X57059017Y-65651637D01*
X56761637Y-65949017D01*
X56527988Y-66298698D01*
X56367047Y-66687244D01*
X56285000Y-67099721D01*
X55558072Y-67099721D01*
X55558072Y-65510000D01*
X55545812Y-65385518D01*
X55509502Y-65265820D01*
X55450537Y-65155506D01*
X55371185Y-65058815D01*
X55274494Y-64979463D01*
X55164180Y-64920498D01*
X55044482Y-64884188D01*
X54920000Y-64871928D01*
X52920000Y-64871928D01*
X52795518Y-64884188D01*
X52675820Y-64920498D01*
X52565506Y-64979463D01*
X52468815Y-65058815D01*
X52389463Y-65155506D01*
X52330498Y-65265820D01*
X52294188Y-65385518D01*
X52281928Y-65510000D01*
X51538072Y-65510000D01*
X51538072Y-65295000D01*
X51525812Y-65170518D01*
X51489502Y-65050820D01*
X51430537Y-64940506D01*
X51351185Y-64843815D01*
X51254494Y-64764463D01*
X51144180Y-64705498D01*
X51024482Y-64669188D01*
X50900000Y-64656928D01*
X49195000Y-64656928D01*
X49195000Y-64651619D01*
X49265824Y-64545624D01*
X49351383Y-64339067D01*
X49395000Y-64119788D01*
X49395000Y-63896212D01*
X49351383Y-63676933D01*
X49265824Y-63470376D01*
X49141612Y-63284480D01*
X48983520Y-63126388D01*
X48797624Y-63002176D01*
X48591067Y-62916617D01*
X48371788Y-62873000D01*
X48148212Y-62873000D01*
X47928933Y-62916617D01*
X47722376Y-63002176D01*
X47536480Y-63126388D01*
X47378388Y-63284480D01*
X47254176Y-63470376D01*
X47168617Y-63676933D01*
X47125000Y-63896212D01*
X47125000Y-64119788D01*
X47168617Y-64339067D01*
X47254176Y-64545624D01*
X47325001Y-64651620D01*
X47325000Y-65652710D01*
X46645142Y-66332569D01*
X46499744Y-66392795D01*
X46330226Y-66506063D01*
X46186063Y-66650226D01*
X46072795Y-66819744D01*
X45994774Y-67008102D01*
X45955000Y-67208061D01*
X38760000Y-67208061D01*
X38760000Y-64073562D01*
X39875824Y-64073562D01*
X39918708Y-64377848D01*
X40020132Y-64667921D01*
X40103347Y-64823607D01*
X40360083Y-64910312D01*
X41262395Y-64008000D01*
X40360083Y-63105688D01*
X40103347Y-63192393D01*
X39969952Y-63469223D01*
X39893127Y-63766757D01*
X39875824Y-64073562D01*
X38760000Y-64073562D01*
X38760000Y-62926083D01*
X40539688Y-62926083D01*
X41442000Y-63828395D01*
X41456143Y-63814253D01*
X41635748Y-63993858D01*
X41621605Y-64008000D01*
X41635748Y-64022143D01*
X41456143Y-64201748D01*
X41442000Y-64187605D01*
X40539688Y-65089917D01*
X40626393Y-65346653D01*
X40903223Y-65480048D01*
X41200757Y-65556873D01*
X41507562Y-65574176D01*
X41811848Y-65531292D01*
X42101921Y-65429868D01*
X42257607Y-65346653D01*
X42344311Y-65089919D01*
X42425724Y-65171332D01*
X42427498Y-65177180D01*
X42486463Y-65287494D01*
X42565815Y-65384185D01*
X42662506Y-65463537D01*
X42772820Y-65522502D01*
X42892518Y-65558812D01*
X43017000Y-65571072D01*
X44867000Y-65571072D01*
X44991482Y-65558812D01*
X45111180Y-65522502D01*
X45221494Y-65463537D01*
X45318185Y-65384185D01*
X45397537Y-65287494D01*
X45456502Y-65177180D01*
X45492812Y-65057482D01*
X45505072Y-64933000D01*
X45505072Y-63083000D01*
X45492812Y-62958518D01*
X45456502Y-62838820D01*
X45397537Y-62728506D01*
X45318185Y-62631815D01*
X45221494Y-62552463D01*
X45111180Y-62493498D01*
X44991482Y-62457188D01*
X44867000Y-62444928D01*
X43017000Y-62444928D01*
X42892518Y-62457188D01*
X42772820Y-62493498D01*
X42662506Y-62552463D01*
X42565815Y-62631815D01*
X42486463Y-62728506D01*
X42427498Y-62838820D01*
X42425724Y-62844668D01*
X42344311Y-62926081D01*
X42257607Y-62669347D01*
X41980777Y-62535952D01*
X41683243Y-62459127D01*
X41376438Y-62441824D01*
X41072152Y-62484708D01*
X40782079Y-62586132D01*
X40626393Y-62669347D01*
X40539688Y-62926083D01*
X38760000Y-62926083D01*
X38760000Y-61620000D01*
X65380001Y-61620000D01*
X65380000Y-84201000D01*
%TA.AperFunction,Conductor*%
D19*
G36*
X65380000Y-84201000D02*
G01*
X63558072Y-84201000D01*
X63558072Y-80750000D01*
X63545812Y-80625518D01*
X63509502Y-80505820D01*
X63450537Y-80395506D01*
X63371185Y-80298815D01*
X63274494Y-80219463D01*
X63164180Y-80160498D01*
X63044482Y-80124188D01*
X62920000Y-80111928D01*
X60920000Y-80111928D01*
X60795518Y-80124188D01*
X60675820Y-80160498D01*
X60565506Y-80219463D01*
X60468815Y-80298815D01*
X60389463Y-80395506D01*
X60330498Y-80505820D01*
X60294188Y-80625518D01*
X60281928Y-80750000D01*
X60281928Y-81493674D01*
X60078363Y-81189017D01*
X59780983Y-80891637D01*
X59431302Y-80657988D01*
X59042756Y-80497047D01*
X58630279Y-80415000D01*
X58209721Y-80415000D01*
X57797244Y-80497047D01*
X57408698Y-80657988D01*
X57059017Y-80891637D01*
X56761637Y-81189017D01*
X56527988Y-81538698D01*
X56367047Y-81927244D01*
X56285000Y-82339721D01*
X56285000Y-82760279D01*
X56367047Y-83172756D01*
X56527988Y-83561302D01*
X56761637Y-83910983D01*
X57051654Y-84201000D01*
X55558072Y-84201000D01*
X55558072Y-80750000D01*
X55545812Y-80625518D01*
X55509502Y-80505820D01*
X55450537Y-80395506D01*
X55371185Y-80298815D01*
X55274494Y-80219463D01*
X55164180Y-80160498D01*
X55044482Y-80124188D01*
X54920000Y-80111928D01*
X52920000Y-80111928D01*
X52795518Y-80124188D01*
X52675820Y-80160498D01*
X52565506Y-80219463D01*
X52468815Y-80298815D01*
X52389463Y-80395506D01*
X52330498Y-80505820D01*
X52294188Y-80625518D01*
X52281928Y-80750000D01*
X52281928Y-84201000D01*
X51858072Y-84201000D01*
X51858072Y-80750000D01*
X51845812Y-80625518D01*
X51809502Y-80505820D01*
X51750537Y-80395506D01*
X51671185Y-80298815D01*
X51574494Y-80219463D01*
X51464180Y-80160498D01*
X51344482Y-80124188D01*
X51220000Y-80111928D01*
X49220000Y-80111928D01*
X49095518Y-80124188D01*
X48975820Y-80160498D01*
X48865506Y-80219463D01*
X48768815Y-80298815D01*
X48689463Y-80395506D01*
X48630498Y-80505820D01*
X48594188Y-80625518D01*
X48581928Y-80750000D01*
X48581928Y-84201000D01*
X47088346Y-84201000D01*
X47378363Y-83910983D01*
X47612012Y-83561302D01*
X47772953Y-83172756D01*
X47855000Y-82760279D01*
X47855000Y-82339721D01*
X47772953Y-81927244D01*
X47612012Y-81538698D01*
X47378363Y-81189017D01*
X47080983Y-80891637D01*
X46731302Y-80657988D01*
X46342756Y-80497047D01*
X45930279Y-80415000D01*
X45509721Y-80415000D01*
X45097244Y-80497047D01*
X44708698Y-80657988D01*
X44359017Y-80891637D01*
X44061637Y-81189017D01*
X43858072Y-81493674D01*
X43858072Y-80750000D01*
X43845812Y-80625518D01*
X43809502Y-80505820D01*
X43750537Y-80395506D01*
X43671185Y-80298815D01*
X43574494Y-80219463D01*
X43464180Y-80160498D01*
X43344482Y-80124188D01*
X43220000Y-80111928D01*
X41220000Y-80111928D01*
X41095518Y-80124188D01*
X40975820Y-80160498D01*
X40865506Y-80219463D01*
X40768815Y-80298815D01*
X40689463Y-80395506D01*
X40630498Y-80505820D01*
X40594188Y-80625518D01*
X40581928Y-80750000D01*
X40581928Y-84201000D01*
X38760000Y-84201000D01*
X38760000Y-78892061D01*
X42907000Y-78892061D01*
X42907000Y-79095939D01*
X42946774Y-79295898D01*
X43024795Y-79484256D01*
X43138063Y-79653774D01*
X43282226Y-79797937D01*
X43451744Y-79911205D01*
X43640102Y-79989226D01*
X43840061Y-80029000D01*
X44043939Y-80029000D01*
X44243898Y-79989226D01*
X44389295Y-79929000D01*
X47050705Y-79929000D01*
X47196102Y-79989226D01*
X47396061Y-80029000D01*
X47599939Y-80029000D01*
X47799898Y-79989226D01*
X47988256Y-79911205D01*
X48157774Y-79797937D01*
X48301937Y-79653774D01*
X48415205Y-79484256D01*
X48493226Y-79295898D01*
X48533000Y-79095939D01*
X48533000Y-78892061D01*
X48493226Y-78692102D01*
X48415205Y-78503744D01*
X48327893Y-78373072D01*
X49160000Y-78373072D01*
X49284482Y-78360812D01*
X49404180Y-78324502D01*
X49514494Y-78265537D01*
X49611185Y-78186185D01*
X49690537Y-78089494D01*
X49749502Y-77979180D01*
X49755056Y-77960873D01*
X49821495Y-78027312D01*
X50072905Y-78195299D01*
X50352257Y-78311011D01*
X50648816Y-78370000D01*
X50951184Y-78370000D01*
X51247743Y-78311011D01*
X51527095Y-78195299D01*
X51778505Y-78027312D01*
X51992312Y-77813505D01*
X52070000Y-77697237D01*
X52147688Y-77813505D01*
X52361495Y-78027312D01*
X52612905Y-78195299D01*
X52892257Y-78311011D01*
X53188816Y-78370000D01*
X53491184Y-78370000D01*
X53787743Y-78311011D01*
X54067095Y-78195299D01*
X54318505Y-78027312D01*
X54384944Y-77960873D01*
X54390498Y-77979180D01*
X54449463Y-78089494D01*
X54528815Y-78186185D01*
X54625506Y-78265537D01*
X54735820Y-78324502D01*
X54855518Y-78360812D01*
X54980000Y-78373072D01*
X56780000Y-78373072D01*
X56904482Y-78360812D01*
X57024180Y-78324502D01*
X57134494Y-78265537D01*
X57231185Y-78186185D01*
X57310537Y-78089494D01*
X57369502Y-77979180D01*
X57405812Y-77859482D01*
X57418072Y-77735000D01*
X57418072Y-75935000D01*
X57405812Y-75810518D01*
X57369502Y-75690820D01*
X57310537Y-75580506D01*
X57231185Y-75483815D01*
X57134494Y-75404463D01*
X57024180Y-75345498D01*
X56904482Y-75309188D01*
X56780000Y-75296928D01*
X54980000Y-75296928D01*
X54855518Y-75309188D01*
X54735820Y-75345498D01*
X54625506Y-75404463D01*
X54528815Y-75483815D01*
X54449463Y-75580506D01*
X54390498Y-75690820D01*
X54384944Y-75709127D01*
X54318505Y-75642688D01*
X54067095Y-75474701D01*
X53787743Y-75358989D01*
X53491184Y-75300000D01*
X53188816Y-75300000D01*
X52892257Y-75358989D01*
X52612905Y-75474701D01*
X52361495Y-75642688D01*
X52147688Y-75856495D01*
X52070000Y-75972763D01*
X51992312Y-75856495D01*
X51778505Y-75642688D01*
X51527095Y-75474701D01*
X51247743Y-75358989D01*
X50951184Y-75300000D01*
X50648816Y-75300000D01*
X50352257Y-75358989D01*
X50072905Y-75474701D01*
X49821495Y-75642688D01*
X49755056Y-75709127D01*
X49749502Y-75690820D01*
X49690537Y-75580506D01*
X49611185Y-75483815D01*
X49514494Y-75404463D01*
X49404180Y-75345498D01*
X49284482Y-75309188D01*
X49160000Y-75296928D01*
X47360000Y-75296928D01*
X47235518Y-75309188D01*
X47115820Y-75345498D01*
X47005506Y-75404463D01*
X46908815Y-75483815D01*
X46829463Y-75580506D01*
X46770498Y-75690820D01*
X46734188Y-75810518D01*
X46721928Y-75935000D01*
X46721928Y-77735000D01*
X46734188Y-77859482D01*
X46770498Y-77979180D01*
X46813163Y-78059000D01*
X44389295Y-78059000D01*
X44243898Y-77998774D01*
X44043939Y-77959000D01*
X43840061Y-77959000D01*
X43640102Y-77998774D01*
X43451744Y-78076795D01*
X43282226Y-78190063D01*
X43138063Y-78334226D01*
X43024795Y-78503744D01*
X42946774Y-78692102D01*
X42907000Y-78892061D01*
X38760000Y-78892061D01*
X38760000Y-71526061D01*
X40621000Y-71526061D01*
X40621000Y-71729939D01*
X40660774Y-71929898D01*
X40721001Y-72075298D01*
X40721000Y-76768704D01*
X40660774Y-76914102D01*
X40621000Y-77114061D01*
X40621000Y-77317939D01*
X40660774Y-77517898D01*
X40738795Y-77706256D01*
X40852063Y-77875774D01*
X40996226Y-78019937D01*
X41165744Y-78133205D01*
X41354102Y-78211226D01*
X41554061Y-78251000D01*
X41757939Y-78251000D01*
X41957898Y-78211226D01*
X42146256Y-78133205D01*
X42315774Y-78019937D01*
X42459937Y-77875774D01*
X42573205Y-77706256D01*
X42651226Y-77517898D01*
X42691000Y-77317939D01*
X42691000Y-77114061D01*
X42651226Y-76914102D01*
X42591000Y-76768705D01*
X42591000Y-72075295D01*
X42651226Y-71929898D01*
X42691000Y-71729939D01*
X42691000Y-71526061D01*
X42651226Y-71326102D01*
X42573205Y-71137744D01*
X42459937Y-70968226D01*
X42315774Y-70824063D01*
X42146256Y-70710795D01*
X41957898Y-70632774D01*
X41757939Y-70593000D01*
X41554061Y-70593000D01*
X41354102Y-70632774D01*
X41165744Y-70710795D01*
X40996226Y-70824063D01*
X40852063Y-70968226D01*
X40738795Y-71137744D01*
X40660774Y-71326102D01*
X40621000Y-71526061D01*
X38760000Y-71526061D01*
X38760000Y-67208061D01*
X45955000Y-67208061D01*
X45955000Y-67411939D01*
X45994774Y-67611898D01*
X46072795Y-67800256D01*
X46186063Y-67969774D01*
X46330226Y-68113937D01*
X46499744Y-68227205D01*
X46688102Y-68305226D01*
X46888061Y-68345000D01*
X47091939Y-68345000D01*
X47291898Y-68305226D01*
X47480256Y-68227205D01*
X47649774Y-68113937D01*
X47793937Y-67969774D01*
X47907205Y-67800256D01*
X47967431Y-67654858D01*
X48467788Y-67154501D01*
X48474188Y-67219482D01*
X48510498Y-67339180D01*
X48569463Y-67449494D01*
X48648815Y-67546185D01*
X48745506Y-67625537D01*
X48855820Y-67684502D01*
X48874127Y-67690056D01*
X48807688Y-67756495D01*
X48639701Y-68007905D01*
X48523989Y-68287257D01*
X48465000Y-68583816D01*
X48465000Y-68886184D01*
X48523989Y-69182743D01*
X48639701Y-69462095D01*
X48807688Y-69713505D01*
X49021495Y-69927312D01*
X49272905Y-70095299D01*
X49552257Y-70211011D01*
X49848816Y-70270000D01*
X50151184Y-70270000D01*
X50447743Y-70211011D01*
X50727095Y-70095299D01*
X50978505Y-69927312D01*
X51192312Y-69713505D01*
X51360299Y-69462095D01*
X51476011Y-69182743D01*
X51535000Y-68886184D01*
X51535000Y-68583816D01*
X51476011Y-68287257D01*
X51360299Y-68007905D01*
X51192312Y-67756495D01*
X51125873Y-67690056D01*
X51144180Y-67684502D01*
X51254494Y-67625537D01*
X51351185Y-67546185D01*
X51430537Y-67449494D01*
X51489502Y-67339180D01*
X51525812Y-67219482D01*
X51538072Y-67095000D01*
X51538072Y-65510000D01*
X52281928Y-65510000D01*
X52281928Y-69110000D01*
X52294188Y-69234482D01*
X52330498Y-69354180D01*
X52389463Y-69464494D01*
X52468815Y-69561185D01*
X52565506Y-69640537D01*
X52675820Y-69699502D01*
X52795518Y-69735812D01*
X52920000Y-69748072D01*
X54920000Y-69748072D01*
X55044482Y-69735812D01*
X55164180Y-69699502D01*
X55274494Y-69640537D01*
X55371185Y-69561185D01*
X55450537Y-69464494D01*
X55509502Y-69354180D01*
X55545812Y-69234482D01*
X55558072Y-69110000D01*
X55558072Y-67099721D01*
X56285000Y-67099721D01*
X56285000Y-67520279D01*
X56367047Y-67932756D01*
X56527988Y-68321302D01*
X56761637Y-68670983D01*
X57059017Y-68968363D01*
X57408698Y-69202012D01*
X57797244Y-69362953D01*
X58209721Y-69445000D01*
X58630279Y-69445000D01*
X59042756Y-69362953D01*
X59431302Y-69202012D01*
X59780983Y-68968363D01*
X60078363Y-68670983D01*
X60281928Y-68366326D01*
X60281928Y-69110000D01*
X60294188Y-69234482D01*
X60330498Y-69354180D01*
X60389463Y-69464494D01*
X60468815Y-69561185D01*
X60565506Y-69640537D01*
X60675820Y-69699502D01*
X60795518Y-69735812D01*
X60920000Y-69748072D01*
X62920000Y-69748072D01*
X63044482Y-69735812D01*
X63164180Y-69699502D01*
X63274494Y-69640537D01*
X63371185Y-69561185D01*
X63450537Y-69464494D01*
X63509502Y-69354180D01*
X63545812Y-69234482D01*
X63558072Y-69110000D01*
X63558072Y-65510000D01*
X63545812Y-65385518D01*
X63509502Y-65265820D01*
X63450537Y-65155506D01*
X63371185Y-65058815D01*
X63274494Y-64979463D01*
X63164180Y-64920498D01*
X63044482Y-64884188D01*
X62920000Y-64871928D01*
X60920000Y-64871928D01*
X60795518Y-64884188D01*
X60675820Y-64920498D01*
X60565506Y-64979463D01*
X60468815Y-65058815D01*
X60389463Y-65155506D01*
X60330498Y-65265820D01*
X60294188Y-65385518D01*
X60281928Y-65510000D01*
X60281928Y-66253674D01*
X60078363Y-65949017D01*
X59780983Y-65651637D01*
X59431302Y-65417988D01*
X59042756Y-65257047D01*
X58630279Y-65175000D01*
X58209721Y-65175000D01*
X57797244Y-65257047D01*
X57408698Y-65417988D01*
X57059017Y-65651637D01*
X56761637Y-65949017D01*
X56527988Y-66298698D01*
X56367047Y-66687244D01*
X56285000Y-67099721D01*
X55558072Y-67099721D01*
X55558072Y-65510000D01*
X55545812Y-65385518D01*
X55509502Y-65265820D01*
X55450537Y-65155506D01*
X55371185Y-65058815D01*
X55274494Y-64979463D01*
X55164180Y-64920498D01*
X55044482Y-64884188D01*
X54920000Y-64871928D01*
X52920000Y-64871928D01*
X52795518Y-64884188D01*
X52675820Y-64920498D01*
X52565506Y-64979463D01*
X52468815Y-65058815D01*
X52389463Y-65155506D01*
X52330498Y-65265820D01*
X52294188Y-65385518D01*
X52281928Y-65510000D01*
X51538072Y-65510000D01*
X51538072Y-65295000D01*
X51525812Y-65170518D01*
X51489502Y-65050820D01*
X51430537Y-64940506D01*
X51351185Y-64843815D01*
X51254494Y-64764463D01*
X51144180Y-64705498D01*
X51024482Y-64669188D01*
X50900000Y-64656928D01*
X49195000Y-64656928D01*
X49195000Y-64651619D01*
X49265824Y-64545624D01*
X49351383Y-64339067D01*
X49395000Y-64119788D01*
X49395000Y-63896212D01*
X49351383Y-63676933D01*
X49265824Y-63470376D01*
X49141612Y-63284480D01*
X48983520Y-63126388D01*
X48797624Y-63002176D01*
X48591067Y-62916617D01*
X48371788Y-62873000D01*
X48148212Y-62873000D01*
X47928933Y-62916617D01*
X47722376Y-63002176D01*
X47536480Y-63126388D01*
X47378388Y-63284480D01*
X47254176Y-63470376D01*
X47168617Y-63676933D01*
X47125000Y-63896212D01*
X47125000Y-64119788D01*
X47168617Y-64339067D01*
X47254176Y-64545624D01*
X47325001Y-64651620D01*
X47325000Y-65652710D01*
X46645142Y-66332569D01*
X46499744Y-66392795D01*
X46330226Y-66506063D01*
X46186063Y-66650226D01*
X46072795Y-66819744D01*
X45994774Y-67008102D01*
X45955000Y-67208061D01*
X38760000Y-67208061D01*
X38760000Y-64073562D01*
X39875824Y-64073562D01*
X39918708Y-64377848D01*
X40020132Y-64667921D01*
X40103347Y-64823607D01*
X40360083Y-64910312D01*
X41262395Y-64008000D01*
X40360083Y-63105688D01*
X40103347Y-63192393D01*
X39969952Y-63469223D01*
X39893127Y-63766757D01*
X39875824Y-64073562D01*
X38760000Y-64073562D01*
X38760000Y-62926083D01*
X40539688Y-62926083D01*
X41442000Y-63828395D01*
X41456143Y-63814253D01*
X41635748Y-63993858D01*
X41621605Y-64008000D01*
X41635748Y-64022143D01*
X41456143Y-64201748D01*
X41442000Y-64187605D01*
X40539688Y-65089917D01*
X40626393Y-65346653D01*
X40903223Y-65480048D01*
X41200757Y-65556873D01*
X41507562Y-65574176D01*
X41811848Y-65531292D01*
X42101921Y-65429868D01*
X42257607Y-65346653D01*
X42344311Y-65089919D01*
X42425724Y-65171332D01*
X42427498Y-65177180D01*
X42486463Y-65287494D01*
X42565815Y-65384185D01*
X42662506Y-65463537D01*
X42772820Y-65522502D01*
X42892518Y-65558812D01*
X43017000Y-65571072D01*
X44867000Y-65571072D01*
X44991482Y-65558812D01*
X45111180Y-65522502D01*
X45221494Y-65463537D01*
X45318185Y-65384185D01*
X45397537Y-65287494D01*
X45456502Y-65177180D01*
X45492812Y-65057482D01*
X45505072Y-64933000D01*
X45505072Y-63083000D01*
X45492812Y-62958518D01*
X45456502Y-62838820D01*
X45397537Y-62728506D01*
X45318185Y-62631815D01*
X45221494Y-62552463D01*
X45111180Y-62493498D01*
X44991482Y-62457188D01*
X44867000Y-62444928D01*
X43017000Y-62444928D01*
X42892518Y-62457188D01*
X42772820Y-62493498D01*
X42662506Y-62552463D01*
X42565815Y-62631815D01*
X42486463Y-62728506D01*
X42427498Y-62838820D01*
X42425724Y-62844668D01*
X42344311Y-62926081D01*
X42257607Y-62669347D01*
X41980777Y-62535952D01*
X41683243Y-62459127D01*
X41376438Y-62441824D01*
X41072152Y-62484708D01*
X40782079Y-62586132D01*
X40626393Y-62669347D01*
X40539688Y-62926083D01*
X38760000Y-62926083D01*
X38760000Y-61620000D01*
X65380001Y-61620000D01*
X65380000Y-84201000D01*
G37*
%TD.AperFunction*%
%TD*%
M02*
