%TF.GenerationSoftware,KiCad,Pcbnew,(5.1.9)-1*%
%TF.CreationDate,2021-03-03T01:29:12+00:00*%
%TF.ProjectId,NOR,4e4f522e-6b69-4636-9164-5f7063625858,rev?*%
%TF.SameCoordinates,Original*%
%TF.FileFunction,Legend,Top*%
%TF.FilePolarity,Positive*%
%FSLAX46Y46*%
G04 Gerber Fmt 4.6, Leading zero omitted, Abs format (unit mm)*
G04 Created by KiCad (PCBNEW (5.1.9)-1) date 2021-03-03 01:29:12*
%MOMM*%
%LPD*%
G01*
G04 APERTURE LIST*
%ADD10C,0.150000*%
%ADD11C,0.120000*%
%ADD12C,0.127000*%
%ADD13C,0.100000*%
%ADD14C,0.101600*%
G04 APERTURE END LIST*
D10*
X46363619Y-88336380D02*
X46363619Y-87336380D01*
X46935047Y-88336380D01*
X46935047Y-87336380D01*
X47601714Y-87336380D02*
X47792190Y-87336380D01*
X47887428Y-87384000D01*
X47982666Y-87479238D01*
X48030285Y-87669714D01*
X48030285Y-88003047D01*
X47982666Y-88193523D01*
X47887428Y-88288761D01*
X47792190Y-88336380D01*
X47601714Y-88336380D01*
X47506476Y-88288761D01*
X47411238Y-88193523D01*
X47363619Y-88003047D01*
X47363619Y-87669714D01*
X47411238Y-87479238D01*
X47506476Y-87384000D01*
X47601714Y-87336380D01*
X49030285Y-88336380D02*
X48696952Y-87860190D01*
X48458857Y-88336380D02*
X48458857Y-87336380D01*
X48839809Y-87336380D01*
X48935047Y-87384000D01*
X48982666Y-87431619D01*
X49030285Y-87526857D01*
X49030285Y-87669714D01*
X48982666Y-87764952D01*
X48935047Y-87812571D01*
X48839809Y-87860190D01*
X48458857Y-87860190D01*
X50744571Y-87384000D02*
X50649333Y-87336380D01*
X50506476Y-87336380D01*
X50363619Y-87384000D01*
X50268380Y-87479238D01*
X50220761Y-87574476D01*
X50173142Y-87764952D01*
X50173142Y-87907809D01*
X50220761Y-88098285D01*
X50268380Y-88193523D01*
X50363619Y-88288761D01*
X50506476Y-88336380D01*
X50601714Y-88336380D01*
X50744571Y-88288761D01*
X50792190Y-88241142D01*
X50792190Y-87907809D01*
X50601714Y-87907809D01*
X51173142Y-88050666D02*
X51649333Y-88050666D01*
X51077904Y-88336380D02*
X51411238Y-87336380D01*
X51744571Y-88336380D01*
X51935047Y-87336380D02*
X52506476Y-87336380D01*
X52220761Y-88336380D02*
X52220761Y-87336380D01*
X52839809Y-87812571D02*
X53173142Y-87812571D01*
X53316000Y-88336380D02*
X52839809Y-88336380D01*
X52839809Y-87336380D01*
X53316000Y-87336380D01*
X54363619Y-87336380D02*
X54696952Y-88336380D01*
X55030285Y-87336380D01*
X55316000Y-87431619D02*
X55363619Y-87384000D01*
X55458857Y-87336380D01*
X55696952Y-87336380D01*
X55792190Y-87384000D01*
X55839809Y-87431619D01*
X55887428Y-87526857D01*
X55887428Y-87622095D01*
X55839809Y-87764952D01*
X55268380Y-88336380D01*
X55887428Y-88336380D01*
X56316000Y-88241142D02*
X56363619Y-88288761D01*
X56316000Y-88336380D01*
X56268380Y-88288761D01*
X56316000Y-88241142D01*
X56316000Y-88336380D01*
X56982666Y-87336380D02*
X57077904Y-87336380D01*
X57173142Y-87384000D01*
X57220761Y-87431619D01*
X57268380Y-87526857D01*
X57315999Y-87717333D01*
X57315999Y-87955428D01*
X57268380Y-88145904D01*
X57220761Y-88241142D01*
X57173142Y-88288761D01*
X57077904Y-88336380D01*
X56982666Y-88336380D01*
X56887428Y-88288761D01*
X56839809Y-88241142D01*
X56792190Y-88145904D01*
X56744571Y-87955428D01*
X56744571Y-87717333D01*
X56792190Y-87526857D01*
X56839809Y-87431619D01*
X56887428Y-87384000D01*
X56982666Y-87336380D01*
X51181047Y-69540428D02*
X51942952Y-69540428D01*
X51562000Y-69921380D02*
X51562000Y-69159476D01*
X41021047Y-62047428D02*
X41782952Y-62047428D01*
X43561047Y-62047428D02*
X44322952Y-62047428D01*
X43942000Y-62428380D02*
X43942000Y-61666476D01*
X52451047Y-74493428D02*
X53212952Y-74493428D01*
X52832000Y-74874380D02*
X52832000Y-74112476D01*
X50419047Y-74493428D02*
X51180952Y-74493428D01*
X50800000Y-74874380D02*
X50800000Y-74112476D01*
D11*
%TO.C,R2*%
X63636000Y-87214000D02*
X63636000Y-86014000D01*
X65396000Y-86014000D02*
X65396000Y-87214000D01*
%TO.C,R4*%
X38720000Y-87300000D02*
X38720000Y-86100000D01*
X40480000Y-86100000D02*
X40480000Y-87300000D01*
%TO.C,R10*%
X55210000Y-74032000D02*
X54010000Y-74032000D01*
X54010000Y-72272000D02*
X55210000Y-72272000D01*
%TO.C,R9*%
X49000000Y-61350000D02*
X50200000Y-61350000D01*
X50200000Y-63110000D02*
X49000000Y-63110000D01*
%TO.C,R8*%
X44796000Y-68190000D02*
X43596000Y-68190000D01*
X43596000Y-66430000D02*
X44796000Y-66430000D01*
%TO.C,R7*%
X45558000Y-74794000D02*
X44358000Y-74794000D01*
X44358000Y-73034000D02*
X45558000Y-73034000D01*
%TO.C,R6*%
X59090000Y-76082000D02*
X60290000Y-76082000D01*
X60290000Y-77842000D02*
X59090000Y-77842000D01*
%TO.C,R5*%
X45304000Y-77715000D02*
X44104000Y-77715000D01*
X44104000Y-75955000D02*
X45304000Y-75955000D01*
%TO.C,R3*%
X40040000Y-68462000D02*
X41240000Y-68462000D01*
X41240000Y-70222000D02*
X40040000Y-70222000D01*
%TO.C,R1*%
X38998000Y-78324000D02*
X38998000Y-77124000D01*
X40758000Y-77124000D02*
X40758000Y-78324000D01*
%TO.C,J1*%
X46592000Y-65758000D02*
X46592000Y-61658000D01*
X46592000Y-61658000D02*
X38792000Y-61658000D01*
X38792000Y-61658000D02*
X38792000Y-65758000D01*
X38792000Y-65758000D02*
X46592000Y-65758000D01*
X46592000Y-64008000D02*
X46092000Y-64008000D01*
X46092000Y-64008000D02*
X46092000Y-65258000D01*
X46092000Y-65258000D02*
X39292000Y-65258000D01*
X39292000Y-65258000D02*
X39292000Y-64008000D01*
X39292000Y-64008000D02*
X38792000Y-64008000D01*
X46592000Y-63158000D02*
X45592000Y-63158000D01*
X45592000Y-63158000D02*
X45592000Y-61658000D01*
X38792000Y-63158000D02*
X39792000Y-63158000D01*
X39792000Y-63158000D02*
X39792000Y-61658000D01*
X46892000Y-63858000D02*
X46892000Y-61358000D01*
X46892000Y-61358000D02*
X44392000Y-61358000D01*
D12*
%TO.C,J2*%
X51720000Y-78050000D02*
X51720000Y-81050000D01*
X51720000Y-81050000D02*
X51720000Y-84050000D01*
X51720000Y-84050000D02*
X51720000Y-87050000D01*
X51720000Y-78050000D02*
X41220000Y-78050000D01*
X41220000Y-78050000D02*
X41220000Y-80550000D01*
X41220000Y-84550000D02*
X41220000Y-87050000D01*
X41220000Y-87050000D02*
X51720000Y-87050000D01*
X51720000Y-80300000D02*
X48720000Y-80300000D01*
X48720000Y-80300000D02*
X48720000Y-84800000D01*
X48720000Y-84800000D02*
X51720000Y-84800000D01*
X41220000Y-80550000D02*
X39048000Y-80550000D01*
X39020000Y-80550000D02*
X38720000Y-80550000D01*
X38720000Y-84550000D02*
X41220000Y-84550000D01*
X38720000Y-84550000D02*
X38720000Y-80550000D01*
%TO.C,J4*%
X52420000Y-71810000D02*
X52420000Y-68810000D01*
X52420000Y-68810000D02*
X52420000Y-65810000D01*
X52420000Y-65810000D02*
X52420000Y-62810000D01*
X52420000Y-71810000D02*
X62920000Y-71810000D01*
X62920000Y-71810000D02*
X62920000Y-69310000D01*
X62920000Y-65310000D02*
X62920000Y-62810000D01*
X62920000Y-62810000D02*
X52420000Y-62810000D01*
X52420000Y-69560000D02*
X55420000Y-69560000D01*
X55420000Y-69560000D02*
X55420000Y-65060000D01*
X55420000Y-65060000D02*
X52420000Y-65060000D01*
X62920000Y-69310000D02*
X65092000Y-69310000D01*
X65120000Y-69310000D02*
X65420000Y-69310000D01*
X65420000Y-65310000D02*
X62920000Y-65310000D01*
X65420000Y-65310000D02*
X65420000Y-69310000D01*
%TO.C,J3*%
X52420000Y-87050000D02*
X52420000Y-84050000D01*
X52420000Y-84050000D02*
X52420000Y-81050000D01*
X52420000Y-81050000D02*
X52420000Y-78050000D01*
X52420000Y-87050000D02*
X62920000Y-87050000D01*
X62920000Y-87050000D02*
X62920000Y-84550000D01*
X62920000Y-80550000D02*
X62920000Y-78050000D01*
X62920000Y-78050000D02*
X52420000Y-78050000D01*
X52420000Y-84800000D02*
X55420000Y-84800000D01*
X55420000Y-84800000D02*
X55420000Y-80300000D01*
X55420000Y-80300000D02*
X52420000Y-80300000D01*
X62920000Y-84550000D02*
X65092000Y-84550000D01*
X65120000Y-84550000D02*
X65420000Y-84550000D01*
X65420000Y-80550000D02*
X62920000Y-80550000D01*
X65420000Y-80550000D02*
X65420000Y-84550000D01*
D11*
%TO.C,Q4*%
X63502000Y-71064000D02*
X63502000Y-71994000D01*
X63502000Y-74224000D02*
X63502000Y-73294000D01*
X63502000Y-74224000D02*
X65662000Y-74224000D01*
X63502000Y-71064000D02*
X64962000Y-71064000D01*
%TO.C,Q3*%
X46226000Y-72446000D02*
X46226000Y-71516000D01*
X46226000Y-69286000D02*
X46226000Y-70216000D01*
X46226000Y-69286000D02*
X44066000Y-69286000D01*
X46226000Y-72446000D02*
X44766000Y-72446000D01*
%TO.C,Q2*%
X65588000Y-75440000D02*
X64658000Y-75440000D01*
X62428000Y-75440000D02*
X63358000Y-75440000D01*
X62428000Y-75440000D02*
X62428000Y-77600000D01*
X65588000Y-75440000D02*
X65588000Y-76900000D01*
%TO.C,Q1*%
X41146000Y-74478000D02*
X41146000Y-73548000D01*
X41146000Y-71318000D02*
X41146000Y-72248000D01*
X41146000Y-71318000D02*
X38986000Y-71318000D01*
X41146000Y-74478000D02*
X39686000Y-74478000D01*
%TO.C,D3*%
X51236000Y-65905000D02*
X51080000Y-65905000D01*
X48920000Y-65905000D02*
X48764000Y-65905000D01*
X51078608Y-69137335D02*
G75*
G03*
X51235516Y-65905000I-1078608J1672335D01*
G01*
X48921392Y-69137335D02*
G75*
G02*
X48764484Y-65905000I1078608J1672335D01*
G01*
X51079837Y-68506130D02*
G75*
G03*
X51080000Y-66424039I-1079837J1041130D01*
G01*
X48920163Y-68506130D02*
G75*
G02*
X48920000Y-66424039I1079837J1041130D01*
G01*
%TO.C,D2*%
X56170000Y-78071000D02*
X56170000Y-77915000D01*
X56170000Y-75755000D02*
X56170000Y-75599000D01*
X52937665Y-77913608D02*
G75*
G03*
X56170000Y-78070516I1672335J1078608D01*
G01*
X52937665Y-75756392D02*
G75*
G02*
X56170000Y-75599484I1672335J-1078608D01*
G01*
X53568870Y-77914837D02*
G75*
G03*
X55650961Y-77915000I1041130J1079837D01*
G01*
X53568870Y-75755163D02*
G75*
G02*
X55650961Y-75755000I1041130J-1079837D01*
G01*
%TO.C,D1*%
X47970000Y-75599000D02*
X47970000Y-75755000D01*
X47970000Y-77915000D02*
X47970000Y-78071000D01*
X51202335Y-75756392D02*
G75*
G03*
X47970000Y-75599484I-1672335J-1078608D01*
G01*
X51202335Y-77913608D02*
G75*
G02*
X47970000Y-78070516I-1672335J1078608D01*
G01*
X50571130Y-75755163D02*
G75*
G03*
X48489039Y-75755000I-1041130J-1079837D01*
G01*
X50571130Y-77914837D02*
G75*
G02*
X48489039Y-77915000I-1041130J1079837D01*
G01*
%TO.C,R2*%
D13*
X62892000Y-88663428D02*
X62692000Y-88377714D01*
X62549142Y-88663428D02*
X62549142Y-88063428D01*
X62777714Y-88063428D01*
X62834857Y-88092000D01*
X62863428Y-88120571D01*
X62892000Y-88177714D01*
X62892000Y-88263428D01*
X62863428Y-88320571D01*
X62834857Y-88349142D01*
X62777714Y-88377714D01*
X62549142Y-88377714D01*
X63120571Y-88120571D02*
X63149142Y-88092000D01*
X63206285Y-88063428D01*
X63349142Y-88063428D01*
X63406285Y-88092000D01*
X63434857Y-88120571D01*
X63463428Y-88177714D01*
X63463428Y-88234857D01*
X63434857Y-88320571D01*
X63092000Y-88663428D01*
X63463428Y-88663428D01*
X62009428Y-87301428D02*
X62380857Y-87301428D01*
X62180857Y-87530000D01*
X62266571Y-87530000D01*
X62323714Y-87558571D01*
X62352285Y-87587142D01*
X62380857Y-87644285D01*
X62380857Y-87787142D01*
X62352285Y-87844285D01*
X62323714Y-87872857D01*
X62266571Y-87901428D01*
X62095142Y-87901428D01*
X62038000Y-87872857D01*
X62009428Y-87844285D01*
X62580857Y-87301428D02*
X62952285Y-87301428D01*
X62752285Y-87530000D01*
X62838000Y-87530000D01*
X62895142Y-87558571D01*
X62923714Y-87587142D01*
X62952285Y-87644285D01*
X62952285Y-87787142D01*
X62923714Y-87844285D01*
X62895142Y-87872857D01*
X62838000Y-87901428D01*
X62666571Y-87901428D01*
X62609428Y-87872857D01*
X62580857Y-87844285D01*
X63209428Y-87901428D02*
X63209428Y-87301428D01*
X63266571Y-87672857D02*
X63438000Y-87901428D01*
X63438000Y-87501428D02*
X63209428Y-87730000D01*
%TO.C,R4*%
X41048000Y-87901428D02*
X40848000Y-87615714D01*
X40705142Y-87901428D02*
X40705142Y-87301428D01*
X40933714Y-87301428D01*
X40990857Y-87330000D01*
X41019428Y-87358571D01*
X41048000Y-87415714D01*
X41048000Y-87501428D01*
X41019428Y-87558571D01*
X40990857Y-87587142D01*
X40933714Y-87615714D01*
X40705142Y-87615714D01*
X41562285Y-87501428D02*
X41562285Y-87901428D01*
X41419428Y-87272857D02*
X41276571Y-87701428D01*
X41648000Y-87701428D01*
X40673428Y-88063428D02*
X41044857Y-88063428D01*
X40844857Y-88292000D01*
X40930571Y-88292000D01*
X40987714Y-88320571D01*
X41016285Y-88349142D01*
X41044857Y-88406285D01*
X41044857Y-88549142D01*
X41016285Y-88606285D01*
X40987714Y-88634857D01*
X40930571Y-88663428D01*
X40759142Y-88663428D01*
X40702000Y-88634857D01*
X40673428Y-88606285D01*
X41244857Y-88063428D02*
X41616285Y-88063428D01*
X41416285Y-88292000D01*
X41502000Y-88292000D01*
X41559142Y-88320571D01*
X41587714Y-88349142D01*
X41616285Y-88406285D01*
X41616285Y-88549142D01*
X41587714Y-88606285D01*
X41559142Y-88634857D01*
X41502000Y-88663428D01*
X41330571Y-88663428D01*
X41273428Y-88634857D01*
X41244857Y-88606285D01*
X41873428Y-88663428D02*
X41873428Y-88063428D01*
X41930571Y-88434857D02*
X42102000Y-88663428D01*
X42102000Y-88263428D02*
X41873428Y-88492000D01*
%TO.C,R10*%
X57780285Y-72915428D02*
X57580285Y-72629714D01*
X57437428Y-72915428D02*
X57437428Y-72315428D01*
X57666000Y-72315428D01*
X57723142Y-72344000D01*
X57751714Y-72372571D01*
X57780285Y-72429714D01*
X57780285Y-72515428D01*
X57751714Y-72572571D01*
X57723142Y-72601142D01*
X57666000Y-72629714D01*
X57437428Y-72629714D01*
X58351714Y-72915428D02*
X58008857Y-72915428D01*
X58180285Y-72915428D02*
X58180285Y-72315428D01*
X58123142Y-72401142D01*
X58066000Y-72458285D01*
X58008857Y-72486857D01*
X58723142Y-72315428D02*
X58780285Y-72315428D01*
X58837428Y-72344000D01*
X58866000Y-72372571D01*
X58894571Y-72429714D01*
X58923142Y-72544000D01*
X58923142Y-72686857D01*
X58894571Y-72801142D01*
X58866000Y-72858285D01*
X58837428Y-72886857D01*
X58780285Y-72915428D01*
X58723142Y-72915428D01*
X58666000Y-72886857D01*
X58637428Y-72858285D01*
X58608857Y-72801142D01*
X58580285Y-72686857D01*
X58580285Y-72544000D01*
X58608857Y-72429714D01*
X58637428Y-72372571D01*
X58666000Y-72344000D01*
X58723142Y-72315428D01*
X57348571Y-73331428D02*
X57720000Y-73331428D01*
X57520000Y-73560000D01*
X57605714Y-73560000D01*
X57662857Y-73588571D01*
X57691428Y-73617142D01*
X57720000Y-73674285D01*
X57720000Y-73817142D01*
X57691428Y-73874285D01*
X57662857Y-73902857D01*
X57605714Y-73931428D01*
X57434285Y-73931428D01*
X57377142Y-73902857D01*
X57348571Y-73874285D01*
X57920000Y-73331428D02*
X58291428Y-73331428D01*
X58091428Y-73560000D01*
X58177142Y-73560000D01*
X58234285Y-73588571D01*
X58262857Y-73617142D01*
X58291428Y-73674285D01*
X58291428Y-73817142D01*
X58262857Y-73874285D01*
X58234285Y-73902857D01*
X58177142Y-73931428D01*
X58005714Y-73931428D01*
X57948571Y-73902857D01*
X57920000Y-73874285D01*
X58662857Y-73331428D02*
X58720000Y-73331428D01*
X58777142Y-73360000D01*
X58805714Y-73388571D01*
X58834285Y-73445714D01*
X58862857Y-73560000D01*
X58862857Y-73702857D01*
X58834285Y-73817142D01*
X58805714Y-73874285D01*
X58777142Y-73902857D01*
X58720000Y-73931428D01*
X58662857Y-73931428D01*
X58605714Y-73902857D01*
X58577142Y-73874285D01*
X58548571Y-73817142D01*
X58520000Y-73702857D01*
X58520000Y-73560000D01*
X58548571Y-73445714D01*
X58577142Y-73388571D01*
X58605714Y-73360000D01*
X58662857Y-73331428D01*
X59462857Y-73931428D02*
X59262857Y-73645714D01*
X59120000Y-73931428D02*
X59120000Y-73331428D01*
X59348571Y-73331428D01*
X59405714Y-73360000D01*
X59434285Y-73388571D01*
X59462857Y-73445714D01*
X59462857Y-73531428D01*
X59434285Y-73588571D01*
X59405714Y-73617142D01*
X59348571Y-73645714D01*
X59120000Y-73645714D01*
%TO.C,R9*%
X49938000Y-63898428D02*
X49738000Y-63612714D01*
X49595142Y-63898428D02*
X49595142Y-63298428D01*
X49823714Y-63298428D01*
X49880857Y-63327000D01*
X49909428Y-63355571D01*
X49938000Y-63412714D01*
X49938000Y-63498428D01*
X49909428Y-63555571D01*
X49880857Y-63584142D01*
X49823714Y-63612714D01*
X49595142Y-63612714D01*
X50223714Y-63898428D02*
X50338000Y-63898428D01*
X50395142Y-63869857D01*
X50423714Y-63841285D01*
X50480857Y-63755571D01*
X50509428Y-63641285D01*
X50509428Y-63412714D01*
X50480857Y-63355571D01*
X50452285Y-63327000D01*
X50395142Y-63298428D01*
X50280857Y-63298428D01*
X50223714Y-63327000D01*
X50195142Y-63355571D01*
X50166571Y-63412714D01*
X50166571Y-63555571D01*
X50195142Y-63612714D01*
X50223714Y-63641285D01*
X50280857Y-63669857D01*
X50395142Y-63669857D01*
X50452285Y-63641285D01*
X50480857Y-63612714D01*
X50509428Y-63555571D01*
X50833428Y-63298428D02*
X51204857Y-63298428D01*
X51004857Y-63527000D01*
X51090571Y-63527000D01*
X51147714Y-63555571D01*
X51176285Y-63584142D01*
X51204857Y-63641285D01*
X51204857Y-63784142D01*
X51176285Y-63841285D01*
X51147714Y-63869857D01*
X51090571Y-63898428D01*
X50919142Y-63898428D01*
X50862000Y-63869857D01*
X50833428Y-63841285D01*
X51404857Y-63298428D02*
X51776285Y-63298428D01*
X51576285Y-63527000D01*
X51662000Y-63527000D01*
X51719142Y-63555571D01*
X51747714Y-63584142D01*
X51776285Y-63641285D01*
X51776285Y-63784142D01*
X51747714Y-63841285D01*
X51719142Y-63869857D01*
X51662000Y-63898428D01*
X51490571Y-63898428D01*
X51433428Y-63869857D01*
X51404857Y-63841285D01*
X52033428Y-63898428D02*
X52033428Y-63298428D01*
X52090571Y-63669857D02*
X52262000Y-63898428D01*
X52262000Y-63498428D02*
X52033428Y-63727000D01*
%TO.C,R8*%
X44112666Y-67536190D02*
X43946000Y-67298095D01*
X43826952Y-67536190D02*
X43826952Y-67036190D01*
X44017428Y-67036190D01*
X44065047Y-67060000D01*
X44088857Y-67083809D01*
X44112666Y-67131428D01*
X44112666Y-67202857D01*
X44088857Y-67250476D01*
X44065047Y-67274285D01*
X44017428Y-67298095D01*
X43826952Y-67298095D01*
X44398380Y-67250476D02*
X44350761Y-67226666D01*
X44326952Y-67202857D01*
X44303142Y-67155238D01*
X44303142Y-67131428D01*
X44326952Y-67083809D01*
X44350761Y-67060000D01*
X44398380Y-67036190D01*
X44493619Y-67036190D01*
X44541238Y-67060000D01*
X44565047Y-67083809D01*
X44588857Y-67131428D01*
X44588857Y-67155238D01*
X44565047Y-67202857D01*
X44541238Y-67226666D01*
X44493619Y-67250476D01*
X44398380Y-67250476D01*
X44350761Y-67274285D01*
X44326952Y-67298095D01*
X44303142Y-67345714D01*
X44303142Y-67440952D01*
X44326952Y-67488571D01*
X44350761Y-67512380D01*
X44398380Y-67536190D01*
X44493619Y-67536190D01*
X44541238Y-67512380D01*
X44565047Y-67488571D01*
X44588857Y-67440952D01*
X44588857Y-67345714D01*
X44565047Y-67298095D01*
X44541238Y-67274285D01*
X44493619Y-67250476D01*
X45289857Y-68451428D02*
X45289857Y-68851428D01*
X45147000Y-68222857D02*
X45004142Y-68651428D01*
X45375571Y-68651428D01*
X45604142Y-68794285D02*
X45632714Y-68822857D01*
X45604142Y-68851428D01*
X45575571Y-68822857D01*
X45604142Y-68794285D01*
X45604142Y-68851428D01*
X45832714Y-68251428D02*
X46232714Y-68251428D01*
X45975571Y-68851428D01*
X46461285Y-68851428D02*
X46461285Y-68251428D01*
X46518428Y-68622857D02*
X46689857Y-68851428D01*
X46689857Y-68451428D02*
X46461285Y-68680000D01*
%TO.C,R7*%
X46382000Y-75455428D02*
X46182000Y-75169714D01*
X46039142Y-75455428D02*
X46039142Y-74855428D01*
X46267714Y-74855428D01*
X46324857Y-74884000D01*
X46353428Y-74912571D01*
X46382000Y-74969714D01*
X46382000Y-75055428D01*
X46353428Y-75112571D01*
X46324857Y-75141142D01*
X46267714Y-75169714D01*
X46039142Y-75169714D01*
X46582000Y-74855428D02*
X46982000Y-74855428D01*
X46724857Y-75455428D01*
X43076857Y-75455428D02*
X42734000Y-75455428D01*
X42905428Y-75455428D02*
X42905428Y-74855428D01*
X42848285Y-74941142D01*
X42791142Y-74998285D01*
X42734000Y-75026857D01*
X43419714Y-75112571D02*
X43362571Y-75084000D01*
X43334000Y-75055428D01*
X43305428Y-74998285D01*
X43305428Y-74969714D01*
X43334000Y-74912571D01*
X43362571Y-74884000D01*
X43419714Y-74855428D01*
X43534000Y-74855428D01*
X43591142Y-74884000D01*
X43619714Y-74912571D01*
X43648285Y-74969714D01*
X43648285Y-74998285D01*
X43619714Y-75055428D01*
X43591142Y-75084000D01*
X43534000Y-75112571D01*
X43419714Y-75112571D01*
X43362571Y-75141142D01*
X43334000Y-75169714D01*
X43305428Y-75226857D01*
X43305428Y-75341142D01*
X43334000Y-75398285D01*
X43362571Y-75426857D01*
X43419714Y-75455428D01*
X43534000Y-75455428D01*
X43591142Y-75426857D01*
X43619714Y-75398285D01*
X43648285Y-75341142D01*
X43648285Y-75226857D01*
X43619714Y-75169714D01*
X43591142Y-75141142D01*
X43534000Y-75112571D01*
X43905428Y-75455428D02*
X43905428Y-74855428D01*
X43962571Y-75226857D02*
X44134000Y-75455428D01*
X44134000Y-75055428D02*
X43905428Y-75284000D01*
%TO.C,R6*%
X61368000Y-75709428D02*
X61168000Y-75423714D01*
X61025142Y-75709428D02*
X61025142Y-75109428D01*
X61253714Y-75109428D01*
X61310857Y-75138000D01*
X61339428Y-75166571D01*
X61368000Y-75223714D01*
X61368000Y-75309428D01*
X61339428Y-75366571D01*
X61310857Y-75395142D01*
X61253714Y-75423714D01*
X61025142Y-75423714D01*
X61882285Y-75109428D02*
X61768000Y-75109428D01*
X61710857Y-75138000D01*
X61682285Y-75166571D01*
X61625142Y-75252285D01*
X61596571Y-75366571D01*
X61596571Y-75595142D01*
X61625142Y-75652285D01*
X61653714Y-75680857D01*
X61710857Y-75709428D01*
X61825142Y-75709428D01*
X61882285Y-75680857D01*
X61910857Y-75652285D01*
X61939428Y-75595142D01*
X61939428Y-75452285D01*
X61910857Y-75395142D01*
X61882285Y-75366571D01*
X61825142Y-75338000D01*
X61710857Y-75338000D01*
X61653714Y-75366571D01*
X61625142Y-75395142D01*
X61596571Y-75452285D01*
X57602571Y-75109428D02*
X57974000Y-75109428D01*
X57774000Y-75338000D01*
X57859714Y-75338000D01*
X57916857Y-75366571D01*
X57945428Y-75395142D01*
X57974000Y-75452285D01*
X57974000Y-75595142D01*
X57945428Y-75652285D01*
X57916857Y-75680857D01*
X57859714Y-75709428D01*
X57688285Y-75709428D01*
X57631142Y-75680857D01*
X57602571Y-75652285D01*
X58174000Y-75109428D02*
X58545428Y-75109428D01*
X58345428Y-75338000D01*
X58431142Y-75338000D01*
X58488285Y-75366571D01*
X58516857Y-75395142D01*
X58545428Y-75452285D01*
X58545428Y-75595142D01*
X58516857Y-75652285D01*
X58488285Y-75680857D01*
X58431142Y-75709428D01*
X58259714Y-75709428D01*
X58202571Y-75680857D01*
X58174000Y-75652285D01*
X58916857Y-75109428D02*
X58974000Y-75109428D01*
X59031142Y-75138000D01*
X59059714Y-75166571D01*
X59088285Y-75223714D01*
X59116857Y-75338000D01*
X59116857Y-75480857D01*
X59088285Y-75595142D01*
X59059714Y-75652285D01*
X59031142Y-75680857D01*
X58974000Y-75709428D01*
X58916857Y-75709428D01*
X58859714Y-75680857D01*
X58831142Y-75652285D01*
X58802571Y-75595142D01*
X58774000Y-75480857D01*
X58774000Y-75338000D01*
X58802571Y-75223714D01*
X58831142Y-75166571D01*
X58859714Y-75138000D01*
X58916857Y-75109428D01*
X59716857Y-75709428D02*
X59516857Y-75423714D01*
X59374000Y-75709428D02*
X59374000Y-75109428D01*
X59602571Y-75109428D01*
X59659714Y-75138000D01*
X59688285Y-75166571D01*
X59716857Y-75223714D01*
X59716857Y-75309428D01*
X59688285Y-75366571D01*
X59659714Y-75395142D01*
X59602571Y-75423714D01*
X59374000Y-75423714D01*
%TO.C,R5*%
X44620666Y-77061190D02*
X44454000Y-76823095D01*
X44334952Y-77061190D02*
X44334952Y-76561190D01*
X44525428Y-76561190D01*
X44573047Y-76585000D01*
X44596857Y-76608809D01*
X44620666Y-76656428D01*
X44620666Y-76727857D01*
X44596857Y-76775476D01*
X44573047Y-76799285D01*
X44525428Y-76823095D01*
X44334952Y-76823095D01*
X45073047Y-76561190D02*
X44834952Y-76561190D01*
X44811142Y-76799285D01*
X44834952Y-76775476D01*
X44882571Y-76751666D01*
X45001619Y-76751666D01*
X45049238Y-76775476D01*
X45073047Y-76799285D01*
X45096857Y-76846904D01*
X45096857Y-76965952D01*
X45073047Y-77013571D01*
X45049238Y-77037380D01*
X45001619Y-77061190D01*
X44882571Y-77061190D01*
X44834952Y-77037380D01*
X44811142Y-77013571D01*
X44585071Y-78284428D02*
X44956500Y-78284428D01*
X44756500Y-78513000D01*
X44842214Y-78513000D01*
X44899357Y-78541571D01*
X44927928Y-78570142D01*
X44956500Y-78627285D01*
X44956500Y-78770142D01*
X44927928Y-78827285D01*
X44899357Y-78855857D01*
X44842214Y-78884428D01*
X44670785Y-78884428D01*
X44613642Y-78855857D01*
X44585071Y-78827285D01*
X45156500Y-78284428D02*
X45527928Y-78284428D01*
X45327928Y-78513000D01*
X45413642Y-78513000D01*
X45470785Y-78541571D01*
X45499357Y-78570142D01*
X45527928Y-78627285D01*
X45527928Y-78770142D01*
X45499357Y-78827285D01*
X45470785Y-78855857D01*
X45413642Y-78884428D01*
X45242214Y-78884428D01*
X45185071Y-78855857D01*
X45156500Y-78827285D01*
X45899357Y-78284428D02*
X45956500Y-78284428D01*
X46013642Y-78313000D01*
X46042214Y-78341571D01*
X46070785Y-78398714D01*
X46099357Y-78513000D01*
X46099357Y-78655857D01*
X46070785Y-78770142D01*
X46042214Y-78827285D01*
X46013642Y-78855857D01*
X45956500Y-78884428D01*
X45899357Y-78884428D01*
X45842214Y-78855857D01*
X45813642Y-78827285D01*
X45785071Y-78770142D01*
X45756500Y-78655857D01*
X45756500Y-78513000D01*
X45785071Y-78398714D01*
X45813642Y-78341571D01*
X45842214Y-78313000D01*
X45899357Y-78284428D01*
X46699357Y-78884428D02*
X46499357Y-78598714D01*
X46356500Y-78884428D02*
X46356500Y-78284428D01*
X46585071Y-78284428D01*
X46642214Y-78313000D01*
X46670785Y-78341571D01*
X46699357Y-78398714D01*
X46699357Y-78484428D01*
X46670785Y-78541571D01*
X46642214Y-78570142D01*
X46585071Y-78598714D01*
X46356500Y-78598714D01*
%TO.C,R3*%
X40556666Y-69568190D02*
X40390000Y-69330095D01*
X40270952Y-69568190D02*
X40270952Y-69068190D01*
X40461428Y-69068190D01*
X40509047Y-69092000D01*
X40532857Y-69115809D01*
X40556666Y-69163428D01*
X40556666Y-69234857D01*
X40532857Y-69282476D01*
X40509047Y-69306285D01*
X40461428Y-69330095D01*
X40270952Y-69330095D01*
X40723333Y-69068190D02*
X41032857Y-69068190D01*
X40866190Y-69258666D01*
X40937619Y-69258666D01*
X40985238Y-69282476D01*
X41009047Y-69306285D01*
X41032857Y-69353904D01*
X41032857Y-69472952D01*
X41009047Y-69520571D01*
X40985238Y-69544380D01*
X40937619Y-69568190D01*
X40794761Y-69568190D01*
X40747142Y-69544380D01*
X40723333Y-69520571D01*
X40101928Y-70410428D02*
X40473357Y-70410428D01*
X40273357Y-70639000D01*
X40359071Y-70639000D01*
X40416214Y-70667571D01*
X40444785Y-70696142D01*
X40473357Y-70753285D01*
X40473357Y-70896142D01*
X40444785Y-70953285D01*
X40416214Y-70981857D01*
X40359071Y-71010428D01*
X40187642Y-71010428D01*
X40130500Y-70981857D01*
X40101928Y-70953285D01*
X40673357Y-70410428D02*
X41044785Y-70410428D01*
X40844785Y-70639000D01*
X40930500Y-70639000D01*
X40987642Y-70667571D01*
X41016214Y-70696142D01*
X41044785Y-70753285D01*
X41044785Y-70896142D01*
X41016214Y-70953285D01*
X40987642Y-70981857D01*
X40930500Y-71010428D01*
X40759071Y-71010428D01*
X40701928Y-70981857D01*
X40673357Y-70953285D01*
X41301928Y-71010428D02*
X41301928Y-70410428D01*
X41359071Y-70781857D02*
X41530500Y-71010428D01*
X41530500Y-70610428D02*
X41301928Y-70839000D01*
%TO.C,R1*%
X41673428Y-77570000D02*
X41387714Y-77770000D01*
X41673428Y-77912857D02*
X41073428Y-77912857D01*
X41073428Y-77684285D01*
X41102000Y-77627142D01*
X41130571Y-77598571D01*
X41187714Y-77570000D01*
X41273428Y-77570000D01*
X41330571Y-77598571D01*
X41359142Y-77627142D01*
X41387714Y-77684285D01*
X41387714Y-77912857D01*
X41673428Y-76998571D02*
X41673428Y-77341428D01*
X41673428Y-77170000D02*
X41073428Y-77170000D01*
X41159142Y-77227142D01*
X41216285Y-77284285D01*
X41244857Y-77341428D01*
X41073428Y-76674571D02*
X41073428Y-76303142D01*
X41302000Y-76503142D01*
X41302000Y-76417428D01*
X41330571Y-76360285D01*
X41359142Y-76331714D01*
X41416285Y-76303142D01*
X41559142Y-76303142D01*
X41616285Y-76331714D01*
X41644857Y-76360285D01*
X41673428Y-76417428D01*
X41673428Y-76588857D01*
X41644857Y-76646000D01*
X41616285Y-76674571D01*
X41073428Y-76103142D02*
X41073428Y-75731714D01*
X41302000Y-75931714D01*
X41302000Y-75846000D01*
X41330571Y-75788857D01*
X41359142Y-75760285D01*
X41416285Y-75731714D01*
X41559142Y-75731714D01*
X41616285Y-75760285D01*
X41644857Y-75788857D01*
X41673428Y-75846000D01*
X41673428Y-76017428D01*
X41644857Y-76074571D01*
X41616285Y-76103142D01*
X41673428Y-75474571D02*
X41073428Y-75474571D01*
X41444857Y-75417428D02*
X41673428Y-75246000D01*
X41273428Y-75246000D02*
X41502000Y-75474571D01*
%TO.C,J1*%
X40186000Y-61901428D02*
X40186000Y-62330000D01*
X40157428Y-62415714D01*
X40100285Y-62472857D01*
X40014571Y-62501428D01*
X39957428Y-62501428D01*
X40786000Y-62501428D02*
X40443142Y-62501428D01*
X40614571Y-62501428D02*
X40614571Y-61901428D01*
X40557428Y-61987142D01*
X40500285Y-62044285D01*
X40443142Y-62072857D01*
%TO.C,J2*%
D14*
X42100016Y-85350047D02*
X42100016Y-86211833D01*
X42042563Y-86384190D01*
X41927659Y-86499095D01*
X41755301Y-86556547D01*
X41640397Y-86556547D01*
X42617087Y-85464952D02*
X42674540Y-85407500D01*
X42789444Y-85350047D01*
X43076706Y-85350047D01*
X43191611Y-85407500D01*
X43249063Y-85464952D01*
X43306516Y-85579857D01*
X43306516Y-85694761D01*
X43249063Y-85867119D01*
X42559635Y-86556547D01*
X43306516Y-86556547D01*
%TO.C,J4*%
X60727650Y-63506047D02*
X60727650Y-64367833D01*
X60670198Y-64540190D01*
X60555293Y-64655095D01*
X60382936Y-64712547D01*
X60268031Y-64712547D01*
X61819245Y-63908214D02*
X61819245Y-64712547D01*
X61531983Y-63448595D02*
X61244721Y-64310380D01*
X61991602Y-64310380D01*
%TO.C,J3*%
X60727650Y-78746047D02*
X60727650Y-79607833D01*
X60670198Y-79780190D01*
X60555293Y-79895095D01*
X60382936Y-79952547D01*
X60268031Y-79952547D01*
X61187269Y-78746047D02*
X61934150Y-78746047D01*
X61531983Y-79205666D01*
X61704340Y-79205666D01*
X61819245Y-79263119D01*
X61876698Y-79320571D01*
X61934150Y-79435476D01*
X61934150Y-79722738D01*
X61876698Y-79837642D01*
X61819245Y-79895095D01*
X61704340Y-79952547D01*
X61359626Y-79952547D01*
X61244721Y-79895095D01*
X61187269Y-79837642D01*
%TO.C,Q4*%
D13*
X64535809Y-72691619D02*
X64512000Y-72739238D01*
X64464380Y-72786857D01*
X64392952Y-72858285D01*
X64369142Y-72905904D01*
X64369142Y-72953523D01*
X64488190Y-72929714D02*
X64464380Y-72977333D01*
X64416761Y-73024952D01*
X64321523Y-73048761D01*
X64154857Y-73048761D01*
X64059619Y-73024952D01*
X64012000Y-72977333D01*
X63988190Y-72929714D01*
X63988190Y-72834476D01*
X64012000Y-72786857D01*
X64059619Y-72739238D01*
X64154857Y-72715428D01*
X64321523Y-72715428D01*
X64416761Y-72739238D01*
X64464380Y-72786857D01*
X64488190Y-72834476D01*
X64488190Y-72929714D01*
X64154857Y-72286857D02*
X64488190Y-72286857D01*
X63964380Y-72405904D02*
X64321523Y-72524952D01*
X64321523Y-72215428D01*
%TO.C,Q3*%
X45739809Y-70913619D02*
X45716000Y-70961238D01*
X45668380Y-71008857D01*
X45596952Y-71080285D01*
X45573142Y-71127904D01*
X45573142Y-71175523D01*
X45692190Y-71151714D02*
X45668380Y-71199333D01*
X45620761Y-71246952D01*
X45525523Y-71270761D01*
X45358857Y-71270761D01*
X45263619Y-71246952D01*
X45216000Y-71199333D01*
X45192190Y-71151714D01*
X45192190Y-71056476D01*
X45216000Y-71008857D01*
X45263619Y-70961238D01*
X45358857Y-70937428D01*
X45525523Y-70937428D01*
X45620761Y-70961238D01*
X45668380Y-71008857D01*
X45692190Y-71056476D01*
X45692190Y-71151714D01*
X45192190Y-70770761D02*
X45192190Y-70461238D01*
X45382666Y-70627904D01*
X45382666Y-70556476D01*
X45406476Y-70508857D01*
X45430285Y-70485047D01*
X45477904Y-70461238D01*
X45596952Y-70461238D01*
X45644571Y-70485047D01*
X45668380Y-70508857D01*
X45692190Y-70556476D01*
X45692190Y-70699333D01*
X45668380Y-70746952D01*
X45644571Y-70770761D01*
%TO.C,Q2*%
X63960380Y-76473809D02*
X63912761Y-76450000D01*
X63865142Y-76402380D01*
X63793714Y-76330952D01*
X63746095Y-76307142D01*
X63698476Y-76307142D01*
X63722285Y-76426190D02*
X63674666Y-76402380D01*
X63627047Y-76354761D01*
X63603238Y-76259523D01*
X63603238Y-76092857D01*
X63627047Y-75997619D01*
X63674666Y-75950000D01*
X63722285Y-75926190D01*
X63817523Y-75926190D01*
X63865142Y-75950000D01*
X63912761Y-75997619D01*
X63936571Y-76092857D01*
X63936571Y-76259523D01*
X63912761Y-76354761D01*
X63865142Y-76402380D01*
X63817523Y-76426190D01*
X63722285Y-76426190D01*
X64127047Y-75973809D02*
X64150857Y-75950000D01*
X64198476Y-75926190D01*
X64317523Y-75926190D01*
X64365142Y-75950000D01*
X64388952Y-75973809D01*
X64412761Y-76021428D01*
X64412761Y-76069047D01*
X64388952Y-76140476D01*
X64103238Y-76426190D01*
X64412761Y-76426190D01*
%TO.C,Q1*%
X40659809Y-72945619D02*
X40636000Y-72993238D01*
X40588380Y-73040857D01*
X40516952Y-73112285D01*
X40493142Y-73159904D01*
X40493142Y-73207523D01*
X40612190Y-73183714D02*
X40588380Y-73231333D01*
X40540761Y-73278952D01*
X40445523Y-73302761D01*
X40278857Y-73302761D01*
X40183619Y-73278952D01*
X40136000Y-73231333D01*
X40112190Y-73183714D01*
X40112190Y-73088476D01*
X40136000Y-73040857D01*
X40183619Y-72993238D01*
X40278857Y-72969428D01*
X40445523Y-72969428D01*
X40540761Y-72993238D01*
X40588380Y-73040857D01*
X40612190Y-73088476D01*
X40612190Y-73183714D01*
X40612190Y-72493238D02*
X40612190Y-72778952D01*
X40612190Y-72636095D02*
X40112190Y-72636095D01*
X40183619Y-72683714D01*
X40231238Y-72731333D01*
X40255047Y-72778952D01*
%TO.C,D2*%
D10*
X53871904Y-79954380D02*
X53871904Y-78954380D01*
X54110000Y-78954380D01*
X54252857Y-79002000D01*
X54348095Y-79097238D01*
X54395714Y-79192476D01*
X54443333Y-79382952D01*
X54443333Y-79525809D01*
X54395714Y-79716285D01*
X54348095Y-79811523D01*
X54252857Y-79906761D01*
X54110000Y-79954380D01*
X53871904Y-79954380D01*
X54824285Y-79049619D02*
X54871904Y-79002000D01*
X54967142Y-78954380D01*
X55205238Y-78954380D01*
X55300476Y-79002000D01*
X55348095Y-79049619D01*
X55395714Y-79144857D01*
X55395714Y-79240095D01*
X55348095Y-79382952D01*
X54776666Y-79954380D01*
X55395714Y-79954380D01*
%TO.C,D1*%
X48791904Y-79954380D02*
X48791904Y-78954380D01*
X49030000Y-78954380D01*
X49172857Y-79002000D01*
X49268095Y-79097238D01*
X49315714Y-79192476D01*
X49363333Y-79382952D01*
X49363333Y-79525809D01*
X49315714Y-79716285D01*
X49268095Y-79811523D01*
X49172857Y-79906761D01*
X49030000Y-79954380D01*
X48791904Y-79954380D01*
X50315714Y-79954380D02*
X49744285Y-79954380D01*
X50030000Y-79954380D02*
X50030000Y-78954380D01*
X49934761Y-79097238D01*
X49839523Y-79192476D01*
X49744285Y-79240095D01*
%TD*%
M02*
