%TF.GenerationSoftware,KiCad,Pcbnew,(5.1.9)-1*%
%TF.CreationDate,2021-03-03T01:29:12+00:00*%
%TF.ProjectId,NOR,4e4f522e-6b69-4636-9164-5f7063625858,rev?*%
%TF.SameCoordinates,Original*%
%TF.FileFunction,Copper,L1,Top*%
%TF.FilePolarity,Positive*%
%FSLAX46Y46*%
G04 Gerber Fmt 4.6, Leading zero omitted, Abs format (unit mm)*
G04 Created by KiCad (PCBNEW (5.1.9)-1) date 2021-03-03 01:29:12*
%MOMM*%
%LPD*%
G01*
G04 APERTURE LIST*
%TA.AperFunction,SMDPad,CuDef*%
%ADD10R,1.300000X0.700000*%
%TD*%
%TA.AperFunction,SMDPad,CuDef*%
%ADD11R,1.500000X1.300000*%
%TD*%
%TA.AperFunction,SMDPad,CuDef*%
%ADD12R,1.300000X1.500000*%
%TD*%
%TA.AperFunction,ComponentPad*%
%ADD13R,1.850000X1.850000*%
%TD*%
%TA.AperFunction,ComponentPad*%
%ADD14C,1.850000*%
%TD*%
%TA.AperFunction,SMDPad,CuDef*%
%ADD15R,1.500000X3.000000*%
%TD*%
%TA.AperFunction,ComponentPad*%
%ADD16R,2.000000X3.600000*%
%TD*%
%TA.AperFunction,SMDPad,CuDef*%
%ADD17R,0.900000X0.800000*%
%TD*%
%TA.AperFunction,SMDPad,CuDef*%
%ADD18R,0.800000X0.900000*%
%TD*%
%TA.AperFunction,ComponentPad*%
%ADD19R,1.800000X1.800000*%
%TD*%
%TA.AperFunction,ComponentPad*%
%ADD20C,1.800000*%
%TD*%
%TA.AperFunction,ViaPad*%
%ADD21C,0.800000*%
%TD*%
%TA.AperFunction,ViaPad*%
%ADD22C,1.000000*%
%TD*%
%TA.AperFunction,Conductor*%
%ADD23C,0.800000*%
%TD*%
%TA.AperFunction,Conductor*%
%ADD24C,0.600000*%
%TD*%
%TA.AperFunction,Conductor*%
%ADD25C,1.000000*%
%TD*%
G04 APERTURE END LIST*
D10*
%TO.P,R2,1*%
%TO.N,Net-(Q2-Pad2)*%
X64516000Y-85664000D03*
%TO.P,R2,2*%
%TO.N,Net-(J3-Pad1)*%
X64516000Y-87564000D03*
%TD*%
%TO.P,R4,1*%
%TO.N,Net-(Q3-Pad2)*%
X39600000Y-85750000D03*
%TO.P,R4,2*%
%TO.N,Net-(J3-Pad1)*%
X39600000Y-87650000D03*
%TD*%
D11*
%TO.P,R10,1*%
%TO.N,Net-(D3-Pad2)*%
X53260000Y-73152000D03*
%TO.P,R10,2*%
%TO.N,+5V*%
X55960000Y-73152000D03*
%TD*%
%TO.P,R9,1*%
%TO.N,Net-(Q4-Pad2)*%
X50950000Y-62230000D03*
%TO.P,R9,2*%
%TO.N,Net-(J4-Pad1)*%
X48250000Y-62230000D03*
%TD*%
%TO.P,R8,1*%
%TO.N,+5V*%
X42846000Y-67310000D03*
%TO.P,R8,2*%
%TO.N,Net-(J4-Pad1)*%
X45546000Y-67310000D03*
%TD*%
%TO.P,R7,1*%
%TO.N,Net-(Q3-Pad2)*%
X43608000Y-73914000D03*
%TO.P,R7,2*%
%TO.N,GND*%
X46308000Y-73914000D03*
%TD*%
%TO.P,R6,1*%
%TO.N,Net-(Q2-Pad3)*%
X61040000Y-76962000D03*
%TO.P,R6,2*%
%TO.N,Net-(D2-Pad1)*%
X58340000Y-76962000D03*
%TD*%
%TO.P,R5,1*%
%TO.N,Net-(Q1-Pad3)*%
X43354000Y-76835000D03*
%TO.P,R5,2*%
%TO.N,Net-(D1-Pad1)*%
X46054000Y-76835000D03*
%TD*%
%TO.P,R3,1*%
%TO.N,Net-(Q3-Pad2)*%
X41990000Y-69342000D03*
%TO.P,R3,2*%
%TO.N,Net-(J2-Pad1)*%
X39290000Y-69342000D03*
%TD*%
D12*
%TO.P,R1,1*%
%TO.N,Net-(Q1-Pad2)*%
X39878000Y-76374000D03*
%TO.P,R1,2*%
%TO.N,Net-(J2-Pad1)*%
X39878000Y-79074000D03*
%TD*%
D13*
%TO.P,J1,1*%
%TO.N,+5V*%
X43942000Y-64008000D03*
D14*
%TO.P,J1,2*%
%TO.N,GND*%
X41442000Y-64008000D03*
%TD*%
D15*
%TO.P,J2,3*%
%TO.N,GND*%
X39720000Y-82550000D03*
D16*
%TO.P,J2,2*%
%TO.N,Net-(J2-Pad2)*%
X42220000Y-82550000D03*
%TO.P,J2,1*%
%TO.N,Net-(J2-Pad1)*%
X50220000Y-82550000D03*
%TD*%
D15*
%TO.P,J4,3*%
%TO.N,GND*%
X64420000Y-67310000D03*
D16*
%TO.P,J4,2*%
%TO.N,Net-(J4-Pad2)*%
X61920000Y-67310000D03*
%TO.P,J4,1*%
%TO.N,Net-(J4-Pad1)*%
X53920000Y-67310000D03*
%TD*%
D15*
%TO.P,J3,3*%
%TO.N,GND*%
X64420000Y-82550000D03*
D16*
%TO.P,J3,2*%
%TO.N,Net-(J3-Pad2)*%
X61920000Y-82550000D03*
%TO.P,J3,1*%
%TO.N,Net-(J3-Pad1)*%
X53920000Y-82550000D03*
%TD*%
D17*
%TO.P,Q4,1*%
%TO.N,GND*%
X65262000Y-73594000D03*
%TO.P,Q4,2*%
%TO.N,Net-(Q4-Pad2)*%
X65262000Y-71694000D03*
%TO.P,Q4,3*%
%TO.N,Net-(D3-Pad1)*%
X63262000Y-72644000D03*
%TD*%
%TO.P,Q3,1*%
%TO.N,GND*%
X44466000Y-69916000D03*
%TO.P,Q3,2*%
%TO.N,Net-(Q3-Pad2)*%
X44466000Y-71816000D03*
%TO.P,Q3,3*%
%TO.N,Net-(J4-Pad1)*%
X46466000Y-70866000D03*
%TD*%
D18*
%TO.P,Q2,1*%
%TO.N,GND*%
X63058000Y-77200000D03*
%TO.P,Q2,2*%
%TO.N,Net-(Q2-Pad2)*%
X64958000Y-77200000D03*
%TO.P,Q2,3*%
%TO.N,Net-(Q2-Pad3)*%
X64008000Y-75200000D03*
%TD*%
D17*
%TO.P,Q1,1*%
%TO.N,GND*%
X39386000Y-71948000D03*
%TO.P,Q1,2*%
%TO.N,Net-(Q1-Pad2)*%
X39386000Y-73848000D03*
%TO.P,Q1,3*%
%TO.N,Net-(Q1-Pad3)*%
X41386000Y-72898000D03*
%TD*%
D19*
%TO.P,D3,1*%
%TO.N,Net-(D3-Pad1)*%
X50000000Y-66195000D03*
D20*
%TO.P,D3,2*%
%TO.N,Net-(D3-Pad2)*%
X50000000Y-68735000D03*
%TD*%
D19*
%TO.P,D2,1*%
%TO.N,Net-(D2-Pad1)*%
X55880000Y-76835000D03*
D20*
%TO.P,D2,2*%
%TO.N,+5V*%
X53340000Y-76835000D03*
%TD*%
D19*
%TO.P,D1,1*%
%TO.N,Net-(D1-Pad1)*%
X48260000Y-76835000D03*
D20*
%TO.P,D1,2*%
%TO.N,+5V*%
X50800000Y-76835000D03*
%TD*%
D21*
%TO.N,GND*%
X65024000Y-80264000D03*
X63500000Y-78232000D03*
X64008000Y-73660000D03*
X64262000Y-64770000D03*
X47752000Y-73914000D03*
X44450000Y-68834000D03*
X39624000Y-80518000D03*
X39370000Y-70866000D03*
%TO.N,Net-(J4-Pad1)*%
X46990000Y-67310000D03*
D22*
X48260000Y-64008000D03*
D21*
%TO.N,Net-(J2-Pad1)*%
X47498000Y-78994000D03*
X43942000Y-78994000D03*
X41656000Y-77216000D03*
X41656000Y-71628000D03*
%TD*%
D23*
%TO.N,Net-(D1-Pad1)*%
X46054000Y-76835000D02*
X48260000Y-76835000D01*
%TO.N,Net-(D2-Pad1)*%
X56007000Y-76962000D02*
X55880000Y-76835000D01*
X58340000Y-76962000D02*
X56007000Y-76962000D01*
D24*
%TO.N,Net-(D3-Pad1)*%
X51816000Y-68011000D02*
X50000000Y-66195000D01*
X51816000Y-69596000D02*
X51816000Y-68011000D01*
X53594000Y-71374000D02*
X51816000Y-69596000D01*
X56896000Y-71374000D02*
X53594000Y-71374000D01*
X58166000Y-72644000D02*
X56896000Y-71374000D01*
X63262000Y-72644000D02*
X58166000Y-72644000D01*
%TO.N,Net-(D3-Pad2)*%
X50000000Y-69892000D02*
X50000000Y-68735000D01*
X53260000Y-73152000D02*
X50000000Y-69892000D01*
%TO.N,GND*%
X64420000Y-80868000D02*
X65024000Y-80264000D01*
X64420000Y-82550000D02*
X64420000Y-80868000D01*
X63058000Y-77790000D02*
X63500000Y-78232000D01*
X63058000Y-77200000D02*
X63058000Y-77790000D01*
X64074000Y-73594000D02*
X64008000Y-73660000D01*
X65262000Y-73594000D02*
X64074000Y-73594000D01*
X64420000Y-64928000D02*
X64262000Y-64770000D01*
X64420000Y-67310000D02*
X64420000Y-64928000D01*
X46308000Y-73914000D02*
X47752000Y-73914000D01*
D23*
X44466000Y-68850000D02*
X44450000Y-68834000D01*
X44466000Y-69916000D02*
X44466000Y-68850000D01*
D24*
X39720000Y-80614000D02*
X39624000Y-80518000D01*
X39720000Y-82550000D02*
X39720000Y-80614000D01*
X39386000Y-70882000D02*
X39370000Y-70866000D01*
X39386000Y-71948000D02*
X39386000Y-70882000D01*
D23*
%TO.N,+5V*%
X43942000Y-64008000D02*
X43942000Y-65024000D01*
X42846000Y-66120000D02*
X42846000Y-67310000D01*
X43942000Y-65024000D02*
X42846000Y-66120000D01*
X55118000Y-74930000D02*
X55960000Y-74088000D01*
X48006000Y-72390000D02*
X50546000Y-74930000D01*
X55960000Y-74088000D02*
X55960000Y-73152000D01*
X48006000Y-65786000D02*
X48006000Y-72390000D01*
X46228000Y-64008000D02*
X48006000Y-65786000D01*
X43942000Y-64008000D02*
X46228000Y-64008000D01*
X50800000Y-75184000D02*
X50546000Y-74930000D01*
X50800000Y-76835000D02*
X50800000Y-75184000D01*
X53340000Y-76835000D02*
X53340000Y-74930000D01*
X53340000Y-74930000D02*
X55118000Y-74930000D01*
X50546000Y-74930000D02*
X53340000Y-74930000D01*
D24*
%TO.N,Net-(Q1-Pad2)*%
X39386000Y-75882000D02*
X39878000Y-76374000D01*
X39386000Y-73848000D02*
X39386000Y-75882000D01*
D23*
%TO.N,Net-(Q2-Pad2)*%
X63754000Y-79756000D02*
X64958000Y-78552000D01*
X57658000Y-79756000D02*
X63754000Y-79756000D01*
X56134000Y-84074000D02*
X56134000Y-81280000D01*
X57724000Y-85664000D02*
X56134000Y-84074000D01*
X64958000Y-78552000D02*
X64958000Y-77200000D01*
X56134000Y-81280000D02*
X57658000Y-79756000D01*
X64516000Y-85664000D02*
X57724000Y-85664000D01*
%TO.N,Net-(Q3-Pad2)*%
X41990000Y-69342000D02*
X41990000Y-70184000D01*
X43622000Y-71816000D02*
X44466000Y-71816000D01*
X41990000Y-70184000D02*
X43622000Y-71816000D01*
D24*
X42720002Y-85750000D02*
X43126002Y-85344000D01*
X39600000Y-85750000D02*
X42720002Y-85750000D01*
X43126002Y-85344000D02*
X46736000Y-85344000D01*
X46736000Y-85344000D02*
X48006000Y-84074000D01*
X48006000Y-81280000D02*
X44704000Y-77978000D01*
X48006000Y-84074000D02*
X48006000Y-81280000D01*
X44704000Y-75010000D02*
X43608000Y-73914000D01*
X44704000Y-77978000D02*
X44704000Y-75010000D01*
X43180000Y-72258000D02*
X43622000Y-71816000D01*
X43180000Y-73486000D02*
X43180000Y-72258000D01*
X43608000Y-73914000D02*
X43180000Y-73486000D01*
%TO.N,Net-(J4-Pad1)*%
X45546000Y-67310000D02*
X46990000Y-67310000D01*
X48260000Y-62240000D02*
X48250000Y-62230000D01*
X48260000Y-64008000D02*
X48260000Y-62240000D01*
D23*
X46466000Y-70866000D02*
X46466000Y-70120000D01*
D24*
X46466000Y-70120000D02*
X46466000Y-69358000D01*
X46466000Y-69358000D02*
X46990000Y-68834000D01*
X46990000Y-68834000D02*
X46990000Y-67310000D01*
D25*
X53920000Y-67310000D02*
X53920000Y-66366000D01*
X51562000Y-64008000D02*
X48260000Y-64008000D01*
X53920000Y-66366000D02*
X51562000Y-64008000D01*
D23*
%TO.N,Net-(Q4-Pad2)*%
X64180000Y-70612000D02*
X65262000Y-71694000D01*
X57912000Y-70612000D02*
X64180000Y-70612000D01*
X55880000Y-63246000D02*
X55880000Y-68580000D01*
X54864000Y-62230000D02*
X55880000Y-63246000D01*
X55880000Y-68580000D02*
X57912000Y-70612000D01*
X50950000Y-62230000D02*
X54864000Y-62230000D01*
D24*
%TO.N,Net-(J2-Pad1)*%
X50220000Y-81716000D02*
X47498000Y-78994000D01*
X50220000Y-82550000D02*
X50220000Y-81716000D01*
X39958000Y-78994000D02*
X39878000Y-79074000D01*
X41656000Y-78994000D02*
X41656000Y-77216000D01*
X43942000Y-78994000D02*
X41656000Y-78994000D01*
X41656000Y-78994000D02*
X39958000Y-78994000D01*
X41576000Y-71628000D02*
X39290000Y-69342000D01*
X41656000Y-71628000D02*
X41576000Y-71628000D01*
%TO.N,Net-(J3-Pad1)*%
X55560000Y-87564000D02*
X64516000Y-87564000D01*
X53920000Y-85924000D02*
X55560000Y-87564000D01*
X53920000Y-85272000D02*
X49856000Y-85272000D01*
X53920000Y-82550000D02*
X53920000Y-85272000D01*
X53920000Y-85272000D02*
X53920000Y-85924000D01*
X47478000Y-87650000D02*
X39600000Y-87650000D01*
X49856000Y-85272000D02*
X47478000Y-87650000D01*
D23*
%TO.N,Net-(Q1-Pad3)*%
X41386000Y-74867000D02*
X43354000Y-76835000D01*
X41386000Y-72898000D02*
X41386000Y-74867000D01*
%TO.N,Net-(Q2-Pad3)*%
X61040000Y-76962000D02*
X61040000Y-75866000D01*
X61706000Y-75200000D02*
X64008000Y-75200000D01*
X61040000Y-75866000D02*
X61706000Y-75200000D01*
%TD*%
M02*
