M48
; DRILL file {KiCad (5.1.9)-1} date 03/02/21 22:56:29
; FORMAT={-:-/ absolute / inch / decimal}
; #@! TF.CreationDate,2021-03-02T22:56:29+00:00
; #@! TF.GenerationSoftware,Kicad,Pcbnew,(5.1.9)-1
FMAT,2
INCH
T1C0.0157
T2C0.0236
T3C0.0315
T4C0.0354
T5C0.1181
%
G90
G05
T1
X1.55Y-2.79
X1.56Y-3.17
X1.64Y-2.82
X1.64Y-3.04
X1.73Y-3.11
X1.75Y-2.71
X1.85Y-2.65
X1.87Y-3.11
X1.88Y-2.91
X2.5Y-3.08
X2.52Y-2.9
X2.53Y-2.55
X2.56Y-3.16
T2
X1.9Y-2.52
T4
X1.6316Y-2.52
X1.73Y-2.52
X1.9Y-3.025
X1.9685Y-2.6061
X1.9685Y-2.7061
X2.0Y-3.025
X2.1Y-3.025
X2.2Y-3.025
T5
X1.8Y-3.25
X2.3Y-2.65
X2.3Y-3.25
T3
G00X1.6622Y-3.2146
M15
G01X1.6622Y-3.2854
M16
G05
G00X1.9772Y-3.2146
M15
G01X1.9772Y-3.2854
M16
G05
G00X2.1228Y-2.6854
M15
G01X2.1228Y-2.6146
M16
G05
G00X2.1228Y-3.2854
M15
G01X2.1228Y-3.2146
M16
G05
G00X2.4378Y-2.6854
M15
G01X2.4378Y-2.6146
M16
G05
G00X2.4378Y-3.2854
M15
G01X2.4378Y-3.2146
M16
G05
T0
M30
