%TF.GenerationSoftware,KiCad,Pcbnew,(5.1.9)-1*%
%TF.CreationDate,2021-03-03T01:22:35+00:00*%
%TF.ProjectId,555 Timer,35353520-5469-46d6-9572-2e6b69636164,rev?*%
%TF.SameCoordinates,Original*%
%TF.FileFunction,Soldermask,Bot*%
%TF.FilePolarity,Negative*%
%FSLAX46Y46*%
G04 Gerber Fmt 4.6, Leading zero omitted, Abs format (unit mm)*
G04 Created by KiCad (PCBNEW (5.1.9)-1) date 2021-03-03 01:22:35*
%MOMM*%
%LPD*%
G01*
G04 APERTURE LIST*
%ADD10C,1.600000*%
%ADD11R,1.600000X1.600000*%
%ADD12C,1.850000*%
%ADD13R,1.850000X1.850000*%
%ADD14C,2.200000*%
%ADD15R,3.500000X3.500000*%
%ADD16O,1.600000X1.600000*%
%ADD17R,3.300000X3.000000*%
%ADD18C,3.203200*%
%ADD19R,1.800000X1.800000*%
%ADD20C,1.800000*%
G04 APERTURE END LIST*
D10*
%TO.C,C2*%
X140938000Y-78994000D03*
D11*
X138938000Y-78994000D03*
%TD*%
D12*
%TO.C,J1*%
X152400000Y-98004000D03*
D13*
X152400000Y-95504000D03*
%TD*%
D14*
%TO.C,RV1*%
X140320000Y-99020000D03*
X140320000Y-96520000D03*
X140320000Y-94020000D03*
D15*
X147320000Y-101320000D03*
X147320000Y-91720000D03*
%TD*%
D11*
%TO.C,U1*%
X135890000Y-85725000D03*
D16*
X128270000Y-78105000D03*
X135890000Y-83185000D03*
X128270000Y-80645000D03*
X135890000Y-80645000D03*
X128270000Y-83185000D03*
X135890000Y-78105000D03*
X128270000Y-85725000D03*
%TD*%
D17*
%TO.C,SW1*%
X134620000Y-91820000D03*
X134620000Y-96520000D03*
X134620000Y-101220000D03*
%TD*%
D18*
%TO.C,J2*%
X147320000Y-83820000D03*
G36*
G01*
X149221600Y-79320000D02*
X149221600Y-81320000D01*
G75*
G02*
X149120000Y-81421600I-101600J0D01*
G01*
X145520000Y-81421600D01*
G75*
G02*
X145418400Y-81320000I0J101600D01*
G01*
X145418400Y-79320000D01*
G75*
G02*
X145520000Y-79218400I101600J0D01*
G01*
X149120000Y-79218400D01*
G75*
G02*
X149221600Y-79320000I0J-101600D01*
G01*
G37*
G36*
G01*
X149221600Y-87320000D02*
X149221600Y-89320000D01*
G75*
G02*
X149120000Y-89421600I-101600J0D01*
G01*
X145520000Y-89421600D01*
G75*
G02*
X145418400Y-89320000I0J101600D01*
G01*
X145418400Y-87320000D01*
G75*
G02*
X145520000Y-87218400I101600J0D01*
G01*
X149120000Y-87218400D01*
G75*
G02*
X149221600Y-87320000I0J-101600D01*
G01*
G37*
%TD*%
D19*
%TO.C,D1*%
X140970000Y-82550000D03*
D20*
X140970000Y-85090000D03*
%TD*%
D10*
%TO.C,C1*%
X128778000Y-93218000D03*
X128778000Y-90718000D03*
%TD*%
M02*
