%TF.GenerationSoftware,KiCad,Pcbnew,(5.1.9)-1*%
%TF.CreationDate,2021-03-03T01:22:35+00:00*%
%TF.ProjectId,555 Timer,35353520-5469-46d6-9572-2e6b69636164,rev?*%
%TF.SameCoordinates,Original*%
%TF.FileFunction,Copper,L2,Bot*%
%TF.FilePolarity,Positive*%
%FSLAX46Y46*%
G04 Gerber Fmt 4.6, Leading zero omitted, Abs format (unit mm)*
G04 Created by KiCad (PCBNEW (5.1.9)-1) date 2021-03-03 01:22:35*
%MOMM*%
%LPD*%
G01*
G04 APERTURE LIST*
%TA.AperFunction,ComponentPad*%
%ADD10C,1.600000*%
%TD*%
%TA.AperFunction,ComponentPad*%
%ADD11R,1.600000X1.600000*%
%TD*%
%TA.AperFunction,ComponentPad*%
%ADD12C,1.850000*%
%TD*%
%TA.AperFunction,ComponentPad*%
%ADD13R,1.850000X1.850000*%
%TD*%
%TA.AperFunction,ComponentPad*%
%ADD14C,2.200000*%
%TD*%
%TA.AperFunction,ComponentPad*%
%ADD15R,3.500000X3.500000*%
%TD*%
%TA.AperFunction,ComponentPad*%
%ADD16O,1.600000X1.600000*%
%TD*%
%TA.AperFunction,ComponentPad*%
%ADD17R,3.300000X3.000000*%
%TD*%
%TA.AperFunction,ComponentPad*%
%ADD18R,3.600000X2.000000*%
%TD*%
%TA.AperFunction,ComponentPad*%
%ADD19R,1.800000X1.800000*%
%TD*%
%TA.AperFunction,ComponentPad*%
%ADD20C,1.800000*%
%TD*%
%TA.AperFunction,ViaPad*%
%ADD21C,0.800000*%
%TD*%
%TA.AperFunction,Conductor*%
%ADD22C,0.600000*%
%TD*%
%TA.AperFunction,Conductor*%
%ADD23C,0.254000*%
%TD*%
%TA.AperFunction,Conductor*%
%ADD24C,0.100000*%
%TD*%
G04 APERTURE END LIST*
D10*
%TO.P,C2,2*%
%TO.N,GND*%
X140938000Y-78994000D03*
D11*
%TO.P,C2,1*%
%TO.N,Net-(C2-Pad1)*%
X138938000Y-78994000D03*
%TD*%
D12*
%TO.P,J1,2*%
%TO.N,GND*%
X152400000Y-98004000D03*
D13*
%TO.P,J1,1*%
%TO.N,Net-(J1-Pad1)*%
X152400000Y-95504000D03*
%TD*%
D14*
%TO.P,RV1,3*%
%TO.N,Net-(RV1-Pad3)*%
X140320000Y-99020000D03*
%TO.P,RV1,2*%
%TO.N,Net-(C2-Pad1)*%
X140320000Y-96520000D03*
%TO.P,RV1,1*%
%TO.N,Net-(R1-Pad2)*%
X140320000Y-94020000D03*
D15*
%TO.P,RV1,0*%
%TO.N,N/C*%
X147320000Y-101320000D03*
X147320000Y-91720000D03*
%TD*%
D11*
%TO.P,U1,1*%
%TO.N,GND*%
X135890000Y-85725000D03*
D16*
%TO.P,U1,5*%
%TO.N,Net-(C1-Pad2)*%
X128270000Y-78105000D03*
%TO.P,U1,2*%
%TO.N,Net-(C2-Pad1)*%
X135890000Y-83185000D03*
%TO.P,U1,6*%
X128270000Y-80645000D03*
%TO.P,U1,3*%
%TO.N,Net-(J2-Pad1)*%
X135890000Y-80645000D03*
%TO.P,U1,7*%
%TO.N,Net-(R1-Pad2)*%
X128270000Y-83185000D03*
%TO.P,U1,4*%
%TO.N,+5V*%
X135890000Y-78105000D03*
%TO.P,U1,8*%
X128270000Y-85725000D03*
%TD*%
D17*
%TO.P,SW1,3*%
%TO.N,Net-(SW1-Pad3)*%
X134620000Y-91820000D03*
%TO.P,SW1,2*%
%TO.N,Net-(J1-Pad1)*%
X134620000Y-96520000D03*
%TO.P,SW1,1*%
%TO.N,+5V*%
X134620000Y-101220000D03*
%TD*%
D18*
%TO.P,J2,2*%
%TO.N,Net-(J2-Pad2)*%
X147320000Y-80320000D03*
%TO.P,J2,1*%
%TO.N,Net-(J2-Pad1)*%
X147320000Y-88320000D03*
%TD*%
D19*
%TO.P,D1,1*%
%TO.N,GND*%
X140970000Y-82550000D03*
D20*
%TO.P,D1,2*%
%TO.N,Net-(D1-Pad2)*%
X140970000Y-85090000D03*
%TD*%
D10*
%TO.P,C1,1*%
%TO.N,GND*%
X128778000Y-93218000D03*
%TO.P,C1,2*%
%TO.N,Net-(C1-Pad2)*%
X128778000Y-90718000D03*
%TD*%
D21*
%TO.N,GND*%
X151130000Y-77470000D03*
%TO.N,Net-(D1-Pad2)*%
X147066000Y-86106000D03*
X144018016Y-86106000D03*
%TO.N,+5V*%
X130302000Y-82296000D03*
X130302000Y-79248000D03*
%TO.N,Net-(C1-Pad2)*%
X132080000Y-83312000D03*
%TD*%
D22*
%TO.N,Net-(C2-Pad1)*%
X134239000Y-83185000D02*
X134493000Y-83185000D01*
X134493000Y-83185000D02*
X135890000Y-83185000D01*
X131699000Y-80645000D02*
X134239000Y-83185000D01*
X128270000Y-80645000D02*
X131699000Y-80645000D01*
X138938000Y-80137000D02*
X138938000Y-79248000D01*
X135890000Y-83185000D02*
X138938000Y-80137000D01*
%TO.N,Net-(D1-Pad2)*%
X147066000Y-86106000D02*
X144018016Y-86106000D01*
%TO.N,+5V*%
X128270000Y-85725000D02*
X130302000Y-83693000D01*
X130302000Y-83693000D02*
X130302000Y-82296000D01*
X134747000Y-79248000D02*
X135890000Y-78105000D01*
X130302000Y-79248000D02*
X134747000Y-79248000D01*
%TO.N,Net-(C1-Pad2)*%
X128778000Y-88900000D02*
X130048000Y-87630000D01*
X128778000Y-90718000D02*
X128778000Y-88900000D01*
X130048000Y-87630000D02*
X130810000Y-86868000D01*
X130810000Y-86868000D02*
X130810000Y-85090000D01*
X132080000Y-83820000D02*
X132080000Y-83312000D01*
X130810000Y-85090000D02*
X132080000Y-83820000D01*
%TD*%
D23*
%TO.N,GND*%
X154280001Y-103480000D02*
X149554985Y-103480000D01*
X149600537Y-103424494D01*
X149659502Y-103314180D01*
X149695812Y-103194482D01*
X149708072Y-103070000D01*
X149708072Y-99570000D01*
X149695812Y-99445518D01*
X149659502Y-99325820D01*
X149600537Y-99215506D01*
X149521185Y-99118815D01*
X149481099Y-99085917D01*
X151497688Y-99085917D01*
X151584393Y-99342653D01*
X151861223Y-99476048D01*
X152158757Y-99552873D01*
X152465562Y-99570176D01*
X152769848Y-99527292D01*
X153059921Y-99425868D01*
X153215607Y-99342653D01*
X153302312Y-99085917D01*
X152400000Y-98183605D01*
X151497688Y-99085917D01*
X149481099Y-99085917D01*
X149424494Y-99039463D01*
X149314180Y-98980498D01*
X149194482Y-98944188D01*
X149070000Y-98931928D01*
X145570000Y-98931928D01*
X145445518Y-98944188D01*
X145325820Y-98980498D01*
X145215506Y-99039463D01*
X145118815Y-99118815D01*
X145039463Y-99215506D01*
X144980498Y-99325820D01*
X144944188Y-99445518D01*
X144931928Y-99570000D01*
X144931928Y-103070000D01*
X144944188Y-103194482D01*
X144980498Y-103314180D01*
X145039463Y-103424494D01*
X145085015Y-103480000D01*
X127660000Y-103480000D01*
X127660000Y-99720000D01*
X132331928Y-99720000D01*
X132331928Y-102720000D01*
X132344188Y-102844482D01*
X132380498Y-102964180D01*
X132439463Y-103074494D01*
X132518815Y-103171185D01*
X132615506Y-103250537D01*
X132725820Y-103309502D01*
X132845518Y-103345812D01*
X132970000Y-103358072D01*
X136270000Y-103358072D01*
X136394482Y-103345812D01*
X136514180Y-103309502D01*
X136624494Y-103250537D01*
X136721185Y-103171185D01*
X136800537Y-103074494D01*
X136859502Y-102964180D01*
X136895812Y-102844482D01*
X136908072Y-102720000D01*
X136908072Y-99720000D01*
X136895812Y-99595518D01*
X136859502Y-99475820D01*
X136800537Y-99365506D01*
X136721185Y-99268815D01*
X136624494Y-99189463D01*
X136514180Y-99130498D01*
X136394482Y-99094188D01*
X136270000Y-99081928D01*
X132970000Y-99081928D01*
X132845518Y-99094188D01*
X132725820Y-99130498D01*
X132615506Y-99189463D01*
X132518815Y-99268815D01*
X132439463Y-99365506D01*
X132380498Y-99475820D01*
X132344188Y-99595518D01*
X132331928Y-99720000D01*
X127660000Y-99720000D01*
X127660000Y-95020000D01*
X132331928Y-95020000D01*
X132331928Y-98020000D01*
X132344188Y-98144482D01*
X132380498Y-98264180D01*
X132439463Y-98374494D01*
X132518815Y-98471185D01*
X132615506Y-98550537D01*
X132725820Y-98609502D01*
X132845518Y-98645812D01*
X132970000Y-98658072D01*
X136270000Y-98658072D01*
X136394482Y-98645812D01*
X136514180Y-98609502D01*
X136624494Y-98550537D01*
X136721185Y-98471185D01*
X136800537Y-98374494D01*
X136859502Y-98264180D01*
X136895812Y-98144482D01*
X136908072Y-98020000D01*
X136908072Y-95020000D01*
X136895812Y-94895518D01*
X136859502Y-94775820D01*
X136800537Y-94665506D01*
X136721185Y-94568815D01*
X136624494Y-94489463D01*
X136514180Y-94430498D01*
X136394482Y-94394188D01*
X136270000Y-94381928D01*
X132970000Y-94381928D01*
X132845518Y-94394188D01*
X132725820Y-94430498D01*
X132615506Y-94489463D01*
X132518815Y-94568815D01*
X132439463Y-94665506D01*
X132380498Y-94775820D01*
X132344188Y-94895518D01*
X132331928Y-95020000D01*
X127660000Y-95020000D01*
X127660000Y-94210702D01*
X127964903Y-94210702D01*
X128036486Y-94454671D01*
X128291996Y-94575571D01*
X128566184Y-94644300D01*
X128848512Y-94658217D01*
X129128130Y-94616787D01*
X129394292Y-94521603D01*
X129519514Y-94454671D01*
X129591097Y-94210702D01*
X128778000Y-93397605D01*
X127964903Y-94210702D01*
X127660000Y-94210702D01*
X127660000Y-93994333D01*
X127785298Y-94031097D01*
X128598395Y-93218000D01*
X128957605Y-93218000D01*
X129770702Y-94031097D01*
X130014671Y-93959514D01*
X130135571Y-93704004D01*
X130204300Y-93429816D01*
X130218217Y-93147488D01*
X130176787Y-92867870D01*
X130081603Y-92601708D01*
X130014671Y-92476486D01*
X129770702Y-92404903D01*
X128957605Y-93218000D01*
X128598395Y-93218000D01*
X128584253Y-93203858D01*
X128763858Y-93024253D01*
X128778000Y-93038395D01*
X129591097Y-92225298D01*
X129519514Y-91981329D01*
X129490659Y-91967676D01*
X129692759Y-91832637D01*
X129892637Y-91632759D01*
X130049680Y-91397727D01*
X130157853Y-91136574D01*
X130213000Y-90859335D01*
X130213000Y-90576665D01*
X130173493Y-90378053D01*
X130247378Y-90320000D01*
X132331928Y-90320000D01*
X132331928Y-93320000D01*
X132344188Y-93444482D01*
X132380498Y-93564180D01*
X132439463Y-93674494D01*
X132518815Y-93771185D01*
X132615506Y-93850537D01*
X132725820Y-93909502D01*
X132845518Y-93945812D01*
X132970000Y-93958072D01*
X136270000Y-93958072D01*
X136394482Y-93945812D01*
X136514180Y-93909502D01*
X136624494Y-93850537D01*
X136626224Y-93849117D01*
X138585000Y-93849117D01*
X138585000Y-94190883D01*
X138651675Y-94526081D01*
X138782463Y-94841831D01*
X138972337Y-95125998D01*
X139116339Y-95270000D01*
X138972337Y-95414002D01*
X138782463Y-95698169D01*
X138651675Y-96013919D01*
X138585000Y-96349117D01*
X138585000Y-96690883D01*
X138651675Y-97026081D01*
X138782463Y-97341831D01*
X138972337Y-97625998D01*
X139116339Y-97770000D01*
X138972337Y-97914002D01*
X138782463Y-98198169D01*
X138651675Y-98513919D01*
X138585000Y-98849117D01*
X138585000Y-99190883D01*
X138651675Y-99526081D01*
X138782463Y-99841831D01*
X138972337Y-100125998D01*
X139214002Y-100367663D01*
X139498169Y-100557537D01*
X139813919Y-100688325D01*
X140149117Y-100755000D01*
X140490883Y-100755000D01*
X140826081Y-100688325D01*
X141141831Y-100557537D01*
X141425998Y-100367663D01*
X141667663Y-100125998D01*
X141857537Y-99841831D01*
X141988325Y-99526081D01*
X142055000Y-99190883D01*
X142055000Y-98849117D01*
X141988325Y-98513919D01*
X141857537Y-98198169D01*
X141771605Y-98069562D01*
X150833824Y-98069562D01*
X150876708Y-98373848D01*
X150978132Y-98663921D01*
X151061347Y-98819607D01*
X151318083Y-98906312D01*
X152220395Y-98004000D01*
X152206253Y-97989858D01*
X152385858Y-97810253D01*
X152400000Y-97824395D01*
X152414143Y-97810253D01*
X152593748Y-97989858D01*
X152579605Y-98004000D01*
X153481917Y-98906312D01*
X153738653Y-98819607D01*
X153872048Y-98542777D01*
X153948873Y-98245243D01*
X153966176Y-97938438D01*
X153923292Y-97634152D01*
X153821868Y-97344079D01*
X153738653Y-97188393D01*
X153481919Y-97101689D01*
X153563332Y-97020276D01*
X153569180Y-97018502D01*
X153679494Y-96959537D01*
X153776185Y-96880185D01*
X153855537Y-96783494D01*
X153914502Y-96673180D01*
X153950812Y-96553482D01*
X153963072Y-96429000D01*
X153963072Y-94579000D01*
X153950812Y-94454518D01*
X153914502Y-94334820D01*
X153855537Y-94224506D01*
X153776185Y-94127815D01*
X153679494Y-94048463D01*
X153569180Y-93989498D01*
X153449482Y-93953188D01*
X153325000Y-93940928D01*
X151475000Y-93940928D01*
X151350518Y-93953188D01*
X151230820Y-93989498D01*
X151120506Y-94048463D01*
X151023815Y-94127815D01*
X150944463Y-94224506D01*
X150885498Y-94334820D01*
X150849188Y-94454518D01*
X150836928Y-94579000D01*
X150836928Y-96429000D01*
X150849188Y-96553482D01*
X150885498Y-96673180D01*
X150944463Y-96783494D01*
X151023815Y-96880185D01*
X151120506Y-96959537D01*
X151230820Y-97018502D01*
X151236668Y-97020276D01*
X151318081Y-97101689D01*
X151061347Y-97188393D01*
X150927952Y-97465223D01*
X150851127Y-97762757D01*
X150833824Y-98069562D01*
X141771605Y-98069562D01*
X141667663Y-97914002D01*
X141523661Y-97770000D01*
X141667663Y-97625998D01*
X141857537Y-97341831D01*
X141988325Y-97026081D01*
X142055000Y-96690883D01*
X142055000Y-96349117D01*
X141988325Y-96013919D01*
X141857537Y-95698169D01*
X141667663Y-95414002D01*
X141523661Y-95270000D01*
X141667663Y-95125998D01*
X141857537Y-94841831D01*
X141988325Y-94526081D01*
X142055000Y-94190883D01*
X142055000Y-93849117D01*
X141988325Y-93513919D01*
X141857537Y-93198169D01*
X141667663Y-92914002D01*
X141425998Y-92672337D01*
X141141831Y-92482463D01*
X140826081Y-92351675D01*
X140490883Y-92285000D01*
X140149117Y-92285000D01*
X139813919Y-92351675D01*
X139498169Y-92482463D01*
X139214002Y-92672337D01*
X138972337Y-92914002D01*
X138782463Y-93198169D01*
X138651675Y-93513919D01*
X138585000Y-93849117D01*
X136626224Y-93849117D01*
X136721185Y-93771185D01*
X136800537Y-93674494D01*
X136859502Y-93564180D01*
X136895812Y-93444482D01*
X136908072Y-93320000D01*
X136908072Y-90320000D01*
X136895812Y-90195518D01*
X136859502Y-90075820D01*
X136800537Y-89965506D01*
X136721185Y-89868815D01*
X136624494Y-89789463D01*
X136514180Y-89730498D01*
X136394482Y-89694188D01*
X136270000Y-89681928D01*
X132970000Y-89681928D01*
X132845518Y-89694188D01*
X132725820Y-89730498D01*
X132615506Y-89789463D01*
X132518815Y-89868815D01*
X132439463Y-89965506D01*
X132380498Y-90075820D01*
X132344188Y-90195518D01*
X132331928Y-90320000D01*
X130247378Y-90320000D01*
X134585628Y-86911376D01*
X134638815Y-86976185D01*
X134735506Y-87055537D01*
X134845820Y-87114502D01*
X134965518Y-87150812D01*
X135090000Y-87163072D01*
X135604250Y-87160000D01*
X135763000Y-87001250D01*
X135763000Y-85986297D01*
X135933923Y-85852000D01*
X136017000Y-85852000D01*
X136017000Y-87001250D01*
X136175750Y-87160000D01*
X136690000Y-87163072D01*
X136814482Y-87150812D01*
X136934180Y-87114502D01*
X137044494Y-87055537D01*
X137141185Y-86976185D01*
X137220537Y-86879494D01*
X137279502Y-86769180D01*
X137315812Y-86649482D01*
X137328072Y-86525000D01*
X137325000Y-86010750D01*
X137166250Y-85852000D01*
X136017000Y-85852000D01*
X135933923Y-85852000D01*
X135968463Y-85824862D01*
X135986438Y-85807636D01*
X136000706Y-85787234D01*
X136010720Y-85764441D01*
X136016095Y-85740131D01*
X136017000Y-85725000D01*
X136017000Y-85598000D01*
X137166250Y-85598000D01*
X137325000Y-85439250D01*
X137328072Y-84925000D01*
X137315812Y-84800518D01*
X137279502Y-84680820D01*
X137220537Y-84570506D01*
X137141185Y-84473815D01*
X137044494Y-84394463D01*
X136934180Y-84335498D01*
X136814482Y-84299188D01*
X136806039Y-84298357D01*
X137004637Y-84099759D01*
X137161680Y-83864727D01*
X137269853Y-83603574D01*
X137300401Y-83450000D01*
X139431928Y-83450000D01*
X139444188Y-83574482D01*
X139480498Y-83694180D01*
X139539463Y-83804494D01*
X139618815Y-83901185D01*
X139715506Y-83980537D01*
X139825820Y-84039502D01*
X139844127Y-84045056D01*
X139777688Y-84111495D01*
X139609701Y-84362905D01*
X139493989Y-84642257D01*
X139435000Y-84938816D01*
X139435000Y-85241184D01*
X139493989Y-85537743D01*
X139609701Y-85817095D01*
X139777688Y-86068505D01*
X139991495Y-86282312D01*
X140242905Y-86450299D01*
X140522257Y-86566011D01*
X140818816Y-86625000D01*
X141121184Y-86625000D01*
X141417743Y-86566011D01*
X141697095Y-86450299D01*
X141948505Y-86282312D01*
X142162312Y-86068505D01*
X142205372Y-86004061D01*
X142983016Y-86004061D01*
X142983016Y-86207939D01*
X143022790Y-86407898D01*
X143100811Y-86596256D01*
X143214079Y-86765774D01*
X143358242Y-86909937D01*
X143527760Y-87023205D01*
X143716118Y-87101226D01*
X143916077Y-87141000D01*
X144119955Y-87141000D01*
X144319914Y-87101226D01*
X144465311Y-87041000D01*
X144949110Y-87041000D01*
X144930498Y-87075820D01*
X144894188Y-87195518D01*
X144881928Y-87320000D01*
X144881928Y-89320000D01*
X144894188Y-89444482D01*
X144930498Y-89564180D01*
X144989463Y-89674494D01*
X145000648Y-89688123D01*
X144980498Y-89725820D01*
X144944188Y-89845518D01*
X144931928Y-89970000D01*
X144931928Y-93470000D01*
X144944188Y-93594482D01*
X144980498Y-93714180D01*
X145039463Y-93824494D01*
X145118815Y-93921185D01*
X145215506Y-94000537D01*
X145325820Y-94059502D01*
X145445518Y-94095812D01*
X145570000Y-94108072D01*
X149070000Y-94108072D01*
X149194482Y-94095812D01*
X149314180Y-94059502D01*
X149424494Y-94000537D01*
X149521185Y-93921185D01*
X149600537Y-93824494D01*
X149659502Y-93714180D01*
X149695812Y-93594482D01*
X149708072Y-93470000D01*
X149708072Y-89970000D01*
X149695812Y-89845518D01*
X149659502Y-89725820D01*
X149639352Y-89688123D01*
X149650537Y-89674494D01*
X149709502Y-89564180D01*
X149745812Y-89444482D01*
X149758072Y-89320000D01*
X149758072Y-87320000D01*
X149745812Y-87195518D01*
X149709502Y-87075820D01*
X149650537Y-86965506D01*
X149571185Y-86868815D01*
X149474494Y-86789463D01*
X149364180Y-86730498D01*
X149244482Y-86694188D01*
X149120000Y-86681928D01*
X147925961Y-86681928D01*
X147983205Y-86596256D01*
X148061226Y-86407898D01*
X148101000Y-86207939D01*
X148101000Y-86004061D01*
X148064861Y-85822376D01*
X148331302Y-85712012D01*
X148680983Y-85478363D01*
X148978363Y-85180983D01*
X149212012Y-84831302D01*
X149372953Y-84442756D01*
X149455000Y-84030279D01*
X149455000Y-83609721D01*
X149372953Y-83197244D01*
X149212012Y-82808698D01*
X148978363Y-82459017D01*
X148680983Y-82161637D01*
X148376326Y-81958072D01*
X149120000Y-81958072D01*
X149244482Y-81945812D01*
X149364180Y-81909502D01*
X149474494Y-81850537D01*
X149571185Y-81771185D01*
X149650537Y-81674494D01*
X149709502Y-81564180D01*
X149745812Y-81444482D01*
X149758072Y-81320000D01*
X149758072Y-79320000D01*
X149745812Y-79195518D01*
X149709502Y-79075820D01*
X149650537Y-78965506D01*
X149571185Y-78868815D01*
X149474494Y-78789463D01*
X149364180Y-78730498D01*
X149244482Y-78694188D01*
X149120000Y-78681928D01*
X145520000Y-78681928D01*
X145395518Y-78694188D01*
X145275820Y-78730498D01*
X145165506Y-78789463D01*
X145068815Y-78868815D01*
X144989463Y-78965506D01*
X144930498Y-79075820D01*
X144894188Y-79195518D01*
X144881928Y-79320000D01*
X144881928Y-81320000D01*
X144894188Y-81444482D01*
X144930498Y-81564180D01*
X144989463Y-81674494D01*
X145068815Y-81771185D01*
X145165506Y-81850537D01*
X145275820Y-81909502D01*
X145395518Y-81945812D01*
X145520000Y-81958072D01*
X146263674Y-81958072D01*
X145959017Y-82161637D01*
X145661637Y-82459017D01*
X145427988Y-82808698D01*
X145267047Y-83197244D01*
X145185000Y-83609721D01*
X145185000Y-84030279D01*
X145267047Y-84442756D01*
X145427988Y-84831302D01*
X145654967Y-85171000D01*
X144465311Y-85171000D01*
X144319914Y-85110774D01*
X144119955Y-85071000D01*
X143916077Y-85071000D01*
X143716118Y-85110774D01*
X143527760Y-85188795D01*
X143358242Y-85302063D01*
X143214079Y-85446226D01*
X143100811Y-85615744D01*
X143022790Y-85804102D01*
X142983016Y-86004061D01*
X142205372Y-86004061D01*
X142330299Y-85817095D01*
X142446011Y-85537743D01*
X142505000Y-85241184D01*
X142505000Y-84938816D01*
X142446011Y-84642257D01*
X142330299Y-84362905D01*
X142162312Y-84111495D01*
X142095873Y-84045056D01*
X142114180Y-84039502D01*
X142224494Y-83980537D01*
X142321185Y-83901185D01*
X142400537Y-83804494D01*
X142459502Y-83694180D01*
X142495812Y-83574482D01*
X142508072Y-83450000D01*
X142505000Y-82835750D01*
X142346250Y-82677000D01*
X141097000Y-82677000D01*
X141097000Y-82697000D01*
X140843000Y-82697000D01*
X140843000Y-82677000D01*
X139593750Y-82677000D01*
X139435000Y-82835750D01*
X139431928Y-83450000D01*
X137300401Y-83450000D01*
X137325000Y-83326335D01*
X137325000Y-83072289D01*
X138747289Y-81650000D01*
X139431928Y-81650000D01*
X139435000Y-82264250D01*
X139593750Y-82423000D01*
X140843000Y-82423000D01*
X140843000Y-81173750D01*
X141097000Y-81173750D01*
X141097000Y-82423000D01*
X142346250Y-82423000D01*
X142505000Y-82264250D01*
X142508072Y-81650000D01*
X142495812Y-81525518D01*
X142459502Y-81405820D01*
X142400537Y-81295506D01*
X142321185Y-81198815D01*
X142224494Y-81119463D01*
X142114180Y-81060498D01*
X141994482Y-81024188D01*
X141870000Y-81011928D01*
X141255750Y-81015000D01*
X141097000Y-81173750D01*
X140843000Y-81173750D01*
X140684250Y-81015000D01*
X140070000Y-81011928D01*
X139945518Y-81024188D01*
X139825820Y-81060498D01*
X139715506Y-81119463D01*
X139618815Y-81198815D01*
X139539463Y-81295506D01*
X139480498Y-81405820D01*
X139444188Y-81525518D01*
X139431928Y-81650000D01*
X138747289Y-81650000D01*
X139566660Y-80830629D01*
X139602344Y-80801344D01*
X139719186Y-80658972D01*
X139806007Y-80496540D01*
X139828260Y-80423182D01*
X139862482Y-80419812D01*
X139982180Y-80383502D01*
X140092494Y-80324537D01*
X140189185Y-80245185D01*
X140199807Y-80232242D01*
X140451996Y-80351571D01*
X140726184Y-80420300D01*
X141008512Y-80434217D01*
X141288130Y-80392787D01*
X141554292Y-80297603D01*
X141679514Y-80230671D01*
X141751097Y-79986702D01*
X140938000Y-79173605D01*
X140923858Y-79187748D01*
X140744253Y-79008143D01*
X140758395Y-78994000D01*
X141117605Y-78994000D01*
X141930702Y-79807097D01*
X142174671Y-79735514D01*
X142295571Y-79480004D01*
X142364300Y-79205816D01*
X142378217Y-78923488D01*
X142336787Y-78643870D01*
X142241603Y-78377708D01*
X142174671Y-78252486D01*
X141930702Y-78180903D01*
X141117605Y-78994000D01*
X140758395Y-78994000D01*
X140744253Y-78979858D01*
X140923858Y-78800253D01*
X140938000Y-78814395D01*
X141751097Y-78001298D01*
X141679514Y-77757329D01*
X141424004Y-77636429D01*
X141149816Y-77567700D01*
X140867488Y-77553783D01*
X140587870Y-77595213D01*
X140321708Y-77690397D01*
X140199691Y-77755616D01*
X140189185Y-77742815D01*
X140092494Y-77663463D01*
X139982180Y-77604498D01*
X139862482Y-77568188D01*
X139738000Y-77555928D01*
X138138000Y-77555928D01*
X138013518Y-77568188D01*
X137893820Y-77604498D01*
X137783506Y-77663463D01*
X137686815Y-77742815D01*
X137607463Y-77839506D01*
X137548498Y-77949820D01*
X137512188Y-78069518D01*
X137499928Y-78194000D01*
X137499928Y-79794000D01*
X137512188Y-79918482D01*
X137548498Y-80038180D01*
X137606332Y-80146379D01*
X137312398Y-80440313D01*
X137269853Y-80226426D01*
X137161680Y-79965273D01*
X137004637Y-79730241D01*
X136804759Y-79530363D01*
X136572241Y-79375000D01*
X136804759Y-79219637D01*
X137004637Y-79019759D01*
X137161680Y-78784727D01*
X137269853Y-78523574D01*
X137325000Y-78246335D01*
X137325000Y-77963665D01*
X137269853Y-77686426D01*
X137161680Y-77425273D01*
X137004637Y-77190241D01*
X136804759Y-76990363D01*
X136609657Y-76860000D01*
X154280000Y-76860000D01*
X154280001Y-103480000D01*
%TA.AperFunction,Conductor*%
D24*
G36*
X154280001Y-103480000D02*
G01*
X149554985Y-103480000D01*
X149600537Y-103424494D01*
X149659502Y-103314180D01*
X149695812Y-103194482D01*
X149708072Y-103070000D01*
X149708072Y-99570000D01*
X149695812Y-99445518D01*
X149659502Y-99325820D01*
X149600537Y-99215506D01*
X149521185Y-99118815D01*
X149481099Y-99085917D01*
X151497688Y-99085917D01*
X151584393Y-99342653D01*
X151861223Y-99476048D01*
X152158757Y-99552873D01*
X152465562Y-99570176D01*
X152769848Y-99527292D01*
X153059921Y-99425868D01*
X153215607Y-99342653D01*
X153302312Y-99085917D01*
X152400000Y-98183605D01*
X151497688Y-99085917D01*
X149481099Y-99085917D01*
X149424494Y-99039463D01*
X149314180Y-98980498D01*
X149194482Y-98944188D01*
X149070000Y-98931928D01*
X145570000Y-98931928D01*
X145445518Y-98944188D01*
X145325820Y-98980498D01*
X145215506Y-99039463D01*
X145118815Y-99118815D01*
X145039463Y-99215506D01*
X144980498Y-99325820D01*
X144944188Y-99445518D01*
X144931928Y-99570000D01*
X144931928Y-103070000D01*
X144944188Y-103194482D01*
X144980498Y-103314180D01*
X145039463Y-103424494D01*
X145085015Y-103480000D01*
X127660000Y-103480000D01*
X127660000Y-99720000D01*
X132331928Y-99720000D01*
X132331928Y-102720000D01*
X132344188Y-102844482D01*
X132380498Y-102964180D01*
X132439463Y-103074494D01*
X132518815Y-103171185D01*
X132615506Y-103250537D01*
X132725820Y-103309502D01*
X132845518Y-103345812D01*
X132970000Y-103358072D01*
X136270000Y-103358072D01*
X136394482Y-103345812D01*
X136514180Y-103309502D01*
X136624494Y-103250537D01*
X136721185Y-103171185D01*
X136800537Y-103074494D01*
X136859502Y-102964180D01*
X136895812Y-102844482D01*
X136908072Y-102720000D01*
X136908072Y-99720000D01*
X136895812Y-99595518D01*
X136859502Y-99475820D01*
X136800537Y-99365506D01*
X136721185Y-99268815D01*
X136624494Y-99189463D01*
X136514180Y-99130498D01*
X136394482Y-99094188D01*
X136270000Y-99081928D01*
X132970000Y-99081928D01*
X132845518Y-99094188D01*
X132725820Y-99130498D01*
X132615506Y-99189463D01*
X132518815Y-99268815D01*
X132439463Y-99365506D01*
X132380498Y-99475820D01*
X132344188Y-99595518D01*
X132331928Y-99720000D01*
X127660000Y-99720000D01*
X127660000Y-95020000D01*
X132331928Y-95020000D01*
X132331928Y-98020000D01*
X132344188Y-98144482D01*
X132380498Y-98264180D01*
X132439463Y-98374494D01*
X132518815Y-98471185D01*
X132615506Y-98550537D01*
X132725820Y-98609502D01*
X132845518Y-98645812D01*
X132970000Y-98658072D01*
X136270000Y-98658072D01*
X136394482Y-98645812D01*
X136514180Y-98609502D01*
X136624494Y-98550537D01*
X136721185Y-98471185D01*
X136800537Y-98374494D01*
X136859502Y-98264180D01*
X136895812Y-98144482D01*
X136908072Y-98020000D01*
X136908072Y-95020000D01*
X136895812Y-94895518D01*
X136859502Y-94775820D01*
X136800537Y-94665506D01*
X136721185Y-94568815D01*
X136624494Y-94489463D01*
X136514180Y-94430498D01*
X136394482Y-94394188D01*
X136270000Y-94381928D01*
X132970000Y-94381928D01*
X132845518Y-94394188D01*
X132725820Y-94430498D01*
X132615506Y-94489463D01*
X132518815Y-94568815D01*
X132439463Y-94665506D01*
X132380498Y-94775820D01*
X132344188Y-94895518D01*
X132331928Y-95020000D01*
X127660000Y-95020000D01*
X127660000Y-94210702D01*
X127964903Y-94210702D01*
X128036486Y-94454671D01*
X128291996Y-94575571D01*
X128566184Y-94644300D01*
X128848512Y-94658217D01*
X129128130Y-94616787D01*
X129394292Y-94521603D01*
X129519514Y-94454671D01*
X129591097Y-94210702D01*
X128778000Y-93397605D01*
X127964903Y-94210702D01*
X127660000Y-94210702D01*
X127660000Y-93994333D01*
X127785298Y-94031097D01*
X128598395Y-93218000D01*
X128957605Y-93218000D01*
X129770702Y-94031097D01*
X130014671Y-93959514D01*
X130135571Y-93704004D01*
X130204300Y-93429816D01*
X130218217Y-93147488D01*
X130176787Y-92867870D01*
X130081603Y-92601708D01*
X130014671Y-92476486D01*
X129770702Y-92404903D01*
X128957605Y-93218000D01*
X128598395Y-93218000D01*
X128584253Y-93203858D01*
X128763858Y-93024253D01*
X128778000Y-93038395D01*
X129591097Y-92225298D01*
X129519514Y-91981329D01*
X129490659Y-91967676D01*
X129692759Y-91832637D01*
X129892637Y-91632759D01*
X130049680Y-91397727D01*
X130157853Y-91136574D01*
X130213000Y-90859335D01*
X130213000Y-90576665D01*
X130173493Y-90378053D01*
X130247378Y-90320000D01*
X132331928Y-90320000D01*
X132331928Y-93320000D01*
X132344188Y-93444482D01*
X132380498Y-93564180D01*
X132439463Y-93674494D01*
X132518815Y-93771185D01*
X132615506Y-93850537D01*
X132725820Y-93909502D01*
X132845518Y-93945812D01*
X132970000Y-93958072D01*
X136270000Y-93958072D01*
X136394482Y-93945812D01*
X136514180Y-93909502D01*
X136624494Y-93850537D01*
X136626224Y-93849117D01*
X138585000Y-93849117D01*
X138585000Y-94190883D01*
X138651675Y-94526081D01*
X138782463Y-94841831D01*
X138972337Y-95125998D01*
X139116339Y-95270000D01*
X138972337Y-95414002D01*
X138782463Y-95698169D01*
X138651675Y-96013919D01*
X138585000Y-96349117D01*
X138585000Y-96690883D01*
X138651675Y-97026081D01*
X138782463Y-97341831D01*
X138972337Y-97625998D01*
X139116339Y-97770000D01*
X138972337Y-97914002D01*
X138782463Y-98198169D01*
X138651675Y-98513919D01*
X138585000Y-98849117D01*
X138585000Y-99190883D01*
X138651675Y-99526081D01*
X138782463Y-99841831D01*
X138972337Y-100125998D01*
X139214002Y-100367663D01*
X139498169Y-100557537D01*
X139813919Y-100688325D01*
X140149117Y-100755000D01*
X140490883Y-100755000D01*
X140826081Y-100688325D01*
X141141831Y-100557537D01*
X141425998Y-100367663D01*
X141667663Y-100125998D01*
X141857537Y-99841831D01*
X141988325Y-99526081D01*
X142055000Y-99190883D01*
X142055000Y-98849117D01*
X141988325Y-98513919D01*
X141857537Y-98198169D01*
X141771605Y-98069562D01*
X150833824Y-98069562D01*
X150876708Y-98373848D01*
X150978132Y-98663921D01*
X151061347Y-98819607D01*
X151318083Y-98906312D01*
X152220395Y-98004000D01*
X152206253Y-97989858D01*
X152385858Y-97810253D01*
X152400000Y-97824395D01*
X152414143Y-97810253D01*
X152593748Y-97989858D01*
X152579605Y-98004000D01*
X153481917Y-98906312D01*
X153738653Y-98819607D01*
X153872048Y-98542777D01*
X153948873Y-98245243D01*
X153966176Y-97938438D01*
X153923292Y-97634152D01*
X153821868Y-97344079D01*
X153738653Y-97188393D01*
X153481919Y-97101689D01*
X153563332Y-97020276D01*
X153569180Y-97018502D01*
X153679494Y-96959537D01*
X153776185Y-96880185D01*
X153855537Y-96783494D01*
X153914502Y-96673180D01*
X153950812Y-96553482D01*
X153963072Y-96429000D01*
X153963072Y-94579000D01*
X153950812Y-94454518D01*
X153914502Y-94334820D01*
X153855537Y-94224506D01*
X153776185Y-94127815D01*
X153679494Y-94048463D01*
X153569180Y-93989498D01*
X153449482Y-93953188D01*
X153325000Y-93940928D01*
X151475000Y-93940928D01*
X151350518Y-93953188D01*
X151230820Y-93989498D01*
X151120506Y-94048463D01*
X151023815Y-94127815D01*
X150944463Y-94224506D01*
X150885498Y-94334820D01*
X150849188Y-94454518D01*
X150836928Y-94579000D01*
X150836928Y-96429000D01*
X150849188Y-96553482D01*
X150885498Y-96673180D01*
X150944463Y-96783494D01*
X151023815Y-96880185D01*
X151120506Y-96959537D01*
X151230820Y-97018502D01*
X151236668Y-97020276D01*
X151318081Y-97101689D01*
X151061347Y-97188393D01*
X150927952Y-97465223D01*
X150851127Y-97762757D01*
X150833824Y-98069562D01*
X141771605Y-98069562D01*
X141667663Y-97914002D01*
X141523661Y-97770000D01*
X141667663Y-97625998D01*
X141857537Y-97341831D01*
X141988325Y-97026081D01*
X142055000Y-96690883D01*
X142055000Y-96349117D01*
X141988325Y-96013919D01*
X141857537Y-95698169D01*
X141667663Y-95414002D01*
X141523661Y-95270000D01*
X141667663Y-95125998D01*
X141857537Y-94841831D01*
X141988325Y-94526081D01*
X142055000Y-94190883D01*
X142055000Y-93849117D01*
X141988325Y-93513919D01*
X141857537Y-93198169D01*
X141667663Y-92914002D01*
X141425998Y-92672337D01*
X141141831Y-92482463D01*
X140826081Y-92351675D01*
X140490883Y-92285000D01*
X140149117Y-92285000D01*
X139813919Y-92351675D01*
X139498169Y-92482463D01*
X139214002Y-92672337D01*
X138972337Y-92914002D01*
X138782463Y-93198169D01*
X138651675Y-93513919D01*
X138585000Y-93849117D01*
X136626224Y-93849117D01*
X136721185Y-93771185D01*
X136800537Y-93674494D01*
X136859502Y-93564180D01*
X136895812Y-93444482D01*
X136908072Y-93320000D01*
X136908072Y-90320000D01*
X136895812Y-90195518D01*
X136859502Y-90075820D01*
X136800537Y-89965506D01*
X136721185Y-89868815D01*
X136624494Y-89789463D01*
X136514180Y-89730498D01*
X136394482Y-89694188D01*
X136270000Y-89681928D01*
X132970000Y-89681928D01*
X132845518Y-89694188D01*
X132725820Y-89730498D01*
X132615506Y-89789463D01*
X132518815Y-89868815D01*
X132439463Y-89965506D01*
X132380498Y-90075820D01*
X132344188Y-90195518D01*
X132331928Y-90320000D01*
X130247378Y-90320000D01*
X134585628Y-86911376D01*
X134638815Y-86976185D01*
X134735506Y-87055537D01*
X134845820Y-87114502D01*
X134965518Y-87150812D01*
X135090000Y-87163072D01*
X135604250Y-87160000D01*
X135763000Y-87001250D01*
X135763000Y-85986297D01*
X135933923Y-85852000D01*
X136017000Y-85852000D01*
X136017000Y-87001250D01*
X136175750Y-87160000D01*
X136690000Y-87163072D01*
X136814482Y-87150812D01*
X136934180Y-87114502D01*
X137044494Y-87055537D01*
X137141185Y-86976185D01*
X137220537Y-86879494D01*
X137279502Y-86769180D01*
X137315812Y-86649482D01*
X137328072Y-86525000D01*
X137325000Y-86010750D01*
X137166250Y-85852000D01*
X136017000Y-85852000D01*
X135933923Y-85852000D01*
X135968463Y-85824862D01*
X135986438Y-85807636D01*
X136000706Y-85787234D01*
X136010720Y-85764441D01*
X136016095Y-85740131D01*
X136017000Y-85725000D01*
X136017000Y-85598000D01*
X137166250Y-85598000D01*
X137325000Y-85439250D01*
X137328072Y-84925000D01*
X137315812Y-84800518D01*
X137279502Y-84680820D01*
X137220537Y-84570506D01*
X137141185Y-84473815D01*
X137044494Y-84394463D01*
X136934180Y-84335498D01*
X136814482Y-84299188D01*
X136806039Y-84298357D01*
X137004637Y-84099759D01*
X137161680Y-83864727D01*
X137269853Y-83603574D01*
X137300401Y-83450000D01*
X139431928Y-83450000D01*
X139444188Y-83574482D01*
X139480498Y-83694180D01*
X139539463Y-83804494D01*
X139618815Y-83901185D01*
X139715506Y-83980537D01*
X139825820Y-84039502D01*
X139844127Y-84045056D01*
X139777688Y-84111495D01*
X139609701Y-84362905D01*
X139493989Y-84642257D01*
X139435000Y-84938816D01*
X139435000Y-85241184D01*
X139493989Y-85537743D01*
X139609701Y-85817095D01*
X139777688Y-86068505D01*
X139991495Y-86282312D01*
X140242905Y-86450299D01*
X140522257Y-86566011D01*
X140818816Y-86625000D01*
X141121184Y-86625000D01*
X141417743Y-86566011D01*
X141697095Y-86450299D01*
X141948505Y-86282312D01*
X142162312Y-86068505D01*
X142205372Y-86004061D01*
X142983016Y-86004061D01*
X142983016Y-86207939D01*
X143022790Y-86407898D01*
X143100811Y-86596256D01*
X143214079Y-86765774D01*
X143358242Y-86909937D01*
X143527760Y-87023205D01*
X143716118Y-87101226D01*
X143916077Y-87141000D01*
X144119955Y-87141000D01*
X144319914Y-87101226D01*
X144465311Y-87041000D01*
X144949110Y-87041000D01*
X144930498Y-87075820D01*
X144894188Y-87195518D01*
X144881928Y-87320000D01*
X144881928Y-89320000D01*
X144894188Y-89444482D01*
X144930498Y-89564180D01*
X144989463Y-89674494D01*
X145000648Y-89688123D01*
X144980498Y-89725820D01*
X144944188Y-89845518D01*
X144931928Y-89970000D01*
X144931928Y-93470000D01*
X144944188Y-93594482D01*
X144980498Y-93714180D01*
X145039463Y-93824494D01*
X145118815Y-93921185D01*
X145215506Y-94000537D01*
X145325820Y-94059502D01*
X145445518Y-94095812D01*
X145570000Y-94108072D01*
X149070000Y-94108072D01*
X149194482Y-94095812D01*
X149314180Y-94059502D01*
X149424494Y-94000537D01*
X149521185Y-93921185D01*
X149600537Y-93824494D01*
X149659502Y-93714180D01*
X149695812Y-93594482D01*
X149708072Y-93470000D01*
X149708072Y-89970000D01*
X149695812Y-89845518D01*
X149659502Y-89725820D01*
X149639352Y-89688123D01*
X149650537Y-89674494D01*
X149709502Y-89564180D01*
X149745812Y-89444482D01*
X149758072Y-89320000D01*
X149758072Y-87320000D01*
X149745812Y-87195518D01*
X149709502Y-87075820D01*
X149650537Y-86965506D01*
X149571185Y-86868815D01*
X149474494Y-86789463D01*
X149364180Y-86730498D01*
X149244482Y-86694188D01*
X149120000Y-86681928D01*
X147925961Y-86681928D01*
X147983205Y-86596256D01*
X148061226Y-86407898D01*
X148101000Y-86207939D01*
X148101000Y-86004061D01*
X148064861Y-85822376D01*
X148331302Y-85712012D01*
X148680983Y-85478363D01*
X148978363Y-85180983D01*
X149212012Y-84831302D01*
X149372953Y-84442756D01*
X149455000Y-84030279D01*
X149455000Y-83609721D01*
X149372953Y-83197244D01*
X149212012Y-82808698D01*
X148978363Y-82459017D01*
X148680983Y-82161637D01*
X148376326Y-81958072D01*
X149120000Y-81958072D01*
X149244482Y-81945812D01*
X149364180Y-81909502D01*
X149474494Y-81850537D01*
X149571185Y-81771185D01*
X149650537Y-81674494D01*
X149709502Y-81564180D01*
X149745812Y-81444482D01*
X149758072Y-81320000D01*
X149758072Y-79320000D01*
X149745812Y-79195518D01*
X149709502Y-79075820D01*
X149650537Y-78965506D01*
X149571185Y-78868815D01*
X149474494Y-78789463D01*
X149364180Y-78730498D01*
X149244482Y-78694188D01*
X149120000Y-78681928D01*
X145520000Y-78681928D01*
X145395518Y-78694188D01*
X145275820Y-78730498D01*
X145165506Y-78789463D01*
X145068815Y-78868815D01*
X144989463Y-78965506D01*
X144930498Y-79075820D01*
X144894188Y-79195518D01*
X144881928Y-79320000D01*
X144881928Y-81320000D01*
X144894188Y-81444482D01*
X144930498Y-81564180D01*
X144989463Y-81674494D01*
X145068815Y-81771185D01*
X145165506Y-81850537D01*
X145275820Y-81909502D01*
X145395518Y-81945812D01*
X145520000Y-81958072D01*
X146263674Y-81958072D01*
X145959017Y-82161637D01*
X145661637Y-82459017D01*
X145427988Y-82808698D01*
X145267047Y-83197244D01*
X145185000Y-83609721D01*
X145185000Y-84030279D01*
X145267047Y-84442756D01*
X145427988Y-84831302D01*
X145654967Y-85171000D01*
X144465311Y-85171000D01*
X144319914Y-85110774D01*
X144119955Y-85071000D01*
X143916077Y-85071000D01*
X143716118Y-85110774D01*
X143527760Y-85188795D01*
X143358242Y-85302063D01*
X143214079Y-85446226D01*
X143100811Y-85615744D01*
X143022790Y-85804102D01*
X142983016Y-86004061D01*
X142205372Y-86004061D01*
X142330299Y-85817095D01*
X142446011Y-85537743D01*
X142505000Y-85241184D01*
X142505000Y-84938816D01*
X142446011Y-84642257D01*
X142330299Y-84362905D01*
X142162312Y-84111495D01*
X142095873Y-84045056D01*
X142114180Y-84039502D01*
X142224494Y-83980537D01*
X142321185Y-83901185D01*
X142400537Y-83804494D01*
X142459502Y-83694180D01*
X142495812Y-83574482D01*
X142508072Y-83450000D01*
X142505000Y-82835750D01*
X142346250Y-82677000D01*
X141097000Y-82677000D01*
X141097000Y-82697000D01*
X140843000Y-82697000D01*
X140843000Y-82677000D01*
X139593750Y-82677000D01*
X139435000Y-82835750D01*
X139431928Y-83450000D01*
X137300401Y-83450000D01*
X137325000Y-83326335D01*
X137325000Y-83072289D01*
X138747289Y-81650000D01*
X139431928Y-81650000D01*
X139435000Y-82264250D01*
X139593750Y-82423000D01*
X140843000Y-82423000D01*
X140843000Y-81173750D01*
X141097000Y-81173750D01*
X141097000Y-82423000D01*
X142346250Y-82423000D01*
X142505000Y-82264250D01*
X142508072Y-81650000D01*
X142495812Y-81525518D01*
X142459502Y-81405820D01*
X142400537Y-81295506D01*
X142321185Y-81198815D01*
X142224494Y-81119463D01*
X142114180Y-81060498D01*
X141994482Y-81024188D01*
X141870000Y-81011928D01*
X141255750Y-81015000D01*
X141097000Y-81173750D01*
X140843000Y-81173750D01*
X140684250Y-81015000D01*
X140070000Y-81011928D01*
X139945518Y-81024188D01*
X139825820Y-81060498D01*
X139715506Y-81119463D01*
X139618815Y-81198815D01*
X139539463Y-81295506D01*
X139480498Y-81405820D01*
X139444188Y-81525518D01*
X139431928Y-81650000D01*
X138747289Y-81650000D01*
X139566660Y-80830629D01*
X139602344Y-80801344D01*
X139719186Y-80658972D01*
X139806007Y-80496540D01*
X139828260Y-80423182D01*
X139862482Y-80419812D01*
X139982180Y-80383502D01*
X140092494Y-80324537D01*
X140189185Y-80245185D01*
X140199807Y-80232242D01*
X140451996Y-80351571D01*
X140726184Y-80420300D01*
X141008512Y-80434217D01*
X141288130Y-80392787D01*
X141554292Y-80297603D01*
X141679514Y-80230671D01*
X141751097Y-79986702D01*
X140938000Y-79173605D01*
X140923858Y-79187748D01*
X140744253Y-79008143D01*
X140758395Y-78994000D01*
X141117605Y-78994000D01*
X141930702Y-79807097D01*
X142174671Y-79735514D01*
X142295571Y-79480004D01*
X142364300Y-79205816D01*
X142378217Y-78923488D01*
X142336787Y-78643870D01*
X142241603Y-78377708D01*
X142174671Y-78252486D01*
X141930702Y-78180903D01*
X141117605Y-78994000D01*
X140758395Y-78994000D01*
X140744253Y-78979858D01*
X140923858Y-78800253D01*
X140938000Y-78814395D01*
X141751097Y-78001298D01*
X141679514Y-77757329D01*
X141424004Y-77636429D01*
X141149816Y-77567700D01*
X140867488Y-77553783D01*
X140587870Y-77595213D01*
X140321708Y-77690397D01*
X140199691Y-77755616D01*
X140189185Y-77742815D01*
X140092494Y-77663463D01*
X139982180Y-77604498D01*
X139862482Y-77568188D01*
X139738000Y-77555928D01*
X138138000Y-77555928D01*
X138013518Y-77568188D01*
X137893820Y-77604498D01*
X137783506Y-77663463D01*
X137686815Y-77742815D01*
X137607463Y-77839506D01*
X137548498Y-77949820D01*
X137512188Y-78069518D01*
X137499928Y-78194000D01*
X137499928Y-79794000D01*
X137512188Y-79918482D01*
X137548498Y-80038180D01*
X137606332Y-80146379D01*
X137312398Y-80440313D01*
X137269853Y-80226426D01*
X137161680Y-79965273D01*
X137004637Y-79730241D01*
X136804759Y-79530363D01*
X136572241Y-79375000D01*
X136804759Y-79219637D01*
X137004637Y-79019759D01*
X137161680Y-78784727D01*
X137269853Y-78523574D01*
X137325000Y-78246335D01*
X137325000Y-77963665D01*
X137269853Y-77686426D01*
X137161680Y-77425273D01*
X137004637Y-77190241D01*
X136804759Y-76990363D01*
X136609657Y-76860000D01*
X154280000Y-76860000D01*
X154280001Y-103480000D01*
G37*
%TD.AperFunction*%
%TD*%
M02*
