%TF.GenerationSoftware,KiCad,Pcbnew,(5.1.9)-1*%
%TF.CreationDate,2021-03-03T01:22:35+00:00*%
%TF.ProjectId,555 Timer,35353520-5469-46d6-9572-2e6b69636164,rev?*%
%TF.SameCoordinates,Original*%
%TF.FileFunction,Legend,Top*%
%TF.FilePolarity,Positive*%
%FSLAX46Y46*%
G04 Gerber Fmt 4.6, Leading zero omitted, Abs format (unit mm)*
G04 Created by KiCad (PCBNEW (5.1.9)-1) date 2021-03-03 01:22:35*
%MOMM*%
%LPD*%
G01*
G04 APERTURE LIST*
%ADD10C,0.150000*%
%ADD11C,0.300000*%
%ADD12C,0.120000*%
%ADD13C,0.127000*%
G04 APERTURE END LIST*
D10*
X132381714Y-77176380D02*
X131905523Y-77176380D01*
X131857904Y-77652571D01*
X131905523Y-77604952D01*
X132000761Y-77557333D01*
X132238857Y-77557333D01*
X132334095Y-77604952D01*
X132381714Y-77652571D01*
X132429333Y-77747809D01*
X132429333Y-77985904D01*
X132381714Y-78081142D01*
X132334095Y-78128761D01*
X132238857Y-78176380D01*
X132000761Y-78176380D01*
X131905523Y-78128761D01*
X131857904Y-78081142D01*
X133334095Y-77176380D02*
X132857904Y-77176380D01*
X132810285Y-77652571D01*
X132857904Y-77604952D01*
X132953142Y-77557333D01*
X133191238Y-77557333D01*
X133286476Y-77604952D01*
X133334095Y-77652571D01*
X133381714Y-77747809D01*
X133381714Y-77985904D01*
X133334095Y-78081142D01*
X133286476Y-78128761D01*
X133191238Y-78176380D01*
X132953142Y-78176380D01*
X132857904Y-78128761D01*
X132810285Y-78081142D01*
X134286476Y-77176380D02*
X133810285Y-77176380D01*
X133762666Y-77652571D01*
X133810285Y-77604952D01*
X133905523Y-77557333D01*
X134143619Y-77557333D01*
X134238857Y-77604952D01*
X134286476Y-77652571D01*
X134334095Y-77747809D01*
X134334095Y-77985904D01*
X134286476Y-78081142D01*
X134238857Y-78128761D01*
X134143619Y-78176380D01*
X133905523Y-78176380D01*
X133810285Y-78128761D01*
X133762666Y-78081142D01*
D11*
X149796571Y-95611142D02*
X150939428Y-95611142D01*
X150368000Y-96182571D02*
X150368000Y-95039714D01*
D12*
%TO.C,C2*%
X142243722Y-80173723D02*
G75*
G03*
X142243580Y-77814000I-2305722J1179723D01*
G01*
X142243722Y-80173723D02*
G75*
G02*
X137632420Y-80174000I-2305722J1179723D01*
G01*
X142243722Y-77814277D02*
G75*
G03*
X137632420Y-77814000I-2305722J-1179723D01*
G01*
X139938000Y-76444000D02*
X139938000Y-81544000D01*
X139978000Y-76444000D02*
X139978000Y-78014000D01*
X139978000Y-79974000D02*
X139978000Y-81544000D01*
X140018000Y-76445000D02*
X140018000Y-78014000D01*
X140018000Y-79974000D02*
X140018000Y-81543000D01*
X140058000Y-76446000D02*
X140058000Y-78014000D01*
X140058000Y-79974000D02*
X140058000Y-81542000D01*
X140098000Y-76448000D02*
X140098000Y-78014000D01*
X140098000Y-79974000D02*
X140098000Y-81540000D01*
X140138000Y-76451000D02*
X140138000Y-78014000D01*
X140138000Y-79974000D02*
X140138000Y-81537000D01*
X140178000Y-76455000D02*
X140178000Y-78014000D01*
X140178000Y-79974000D02*
X140178000Y-81533000D01*
X140218000Y-76459000D02*
X140218000Y-78014000D01*
X140218000Y-79974000D02*
X140218000Y-81529000D01*
X140258000Y-76463000D02*
X140258000Y-78014000D01*
X140258000Y-79974000D02*
X140258000Y-81525000D01*
X140298000Y-76469000D02*
X140298000Y-78014000D01*
X140298000Y-79974000D02*
X140298000Y-81519000D01*
X140338000Y-76475000D02*
X140338000Y-78014000D01*
X140338000Y-79974000D02*
X140338000Y-81513000D01*
X140378000Y-76481000D02*
X140378000Y-78014000D01*
X140378000Y-79974000D02*
X140378000Y-81507000D01*
X140418000Y-76488000D02*
X140418000Y-78014000D01*
X140418000Y-79974000D02*
X140418000Y-81500000D01*
X140458000Y-76496000D02*
X140458000Y-78014000D01*
X140458000Y-79974000D02*
X140458000Y-81492000D01*
X140498000Y-76505000D02*
X140498000Y-78014000D01*
X140498000Y-79974000D02*
X140498000Y-81483000D01*
X140538000Y-76514000D02*
X140538000Y-78014000D01*
X140538000Y-79974000D02*
X140538000Y-81474000D01*
X140578000Y-76524000D02*
X140578000Y-78014000D01*
X140578000Y-79974000D02*
X140578000Y-81464000D01*
X140618000Y-76534000D02*
X140618000Y-78014000D01*
X140618000Y-79974000D02*
X140618000Y-81454000D01*
X140659000Y-76546000D02*
X140659000Y-78014000D01*
X140659000Y-79974000D02*
X140659000Y-81442000D01*
X140699000Y-76558000D02*
X140699000Y-78014000D01*
X140699000Y-79974000D02*
X140699000Y-81430000D01*
X140739000Y-76570000D02*
X140739000Y-78014000D01*
X140739000Y-79974000D02*
X140739000Y-81418000D01*
X140779000Y-76584000D02*
X140779000Y-78014000D01*
X140779000Y-79974000D02*
X140779000Y-81404000D01*
X140819000Y-76598000D02*
X140819000Y-78014000D01*
X140819000Y-79974000D02*
X140819000Y-81390000D01*
X140859000Y-76612000D02*
X140859000Y-78014000D01*
X140859000Y-79974000D02*
X140859000Y-81376000D01*
X140899000Y-76628000D02*
X140899000Y-78014000D01*
X140899000Y-79974000D02*
X140899000Y-81360000D01*
X140939000Y-76644000D02*
X140939000Y-78014000D01*
X140939000Y-79974000D02*
X140939000Y-81344000D01*
X140979000Y-76661000D02*
X140979000Y-78014000D01*
X140979000Y-79974000D02*
X140979000Y-81327000D01*
X141019000Y-76679000D02*
X141019000Y-78014000D01*
X141019000Y-79974000D02*
X141019000Y-81309000D01*
X141059000Y-76698000D02*
X141059000Y-78014000D01*
X141059000Y-79974000D02*
X141059000Y-81290000D01*
X141099000Y-76718000D02*
X141099000Y-78014000D01*
X141099000Y-79974000D02*
X141099000Y-81270000D01*
X141139000Y-76738000D02*
X141139000Y-78014000D01*
X141139000Y-79974000D02*
X141139000Y-81250000D01*
X141179000Y-76760000D02*
X141179000Y-78014000D01*
X141179000Y-79974000D02*
X141179000Y-81228000D01*
X141219000Y-76782000D02*
X141219000Y-78014000D01*
X141219000Y-79974000D02*
X141219000Y-81206000D01*
X141259000Y-76805000D02*
X141259000Y-78014000D01*
X141259000Y-79974000D02*
X141259000Y-81183000D01*
X141299000Y-76829000D02*
X141299000Y-78014000D01*
X141299000Y-79974000D02*
X141299000Y-81159000D01*
X141339000Y-76854000D02*
X141339000Y-78014000D01*
X141339000Y-79974000D02*
X141339000Y-81134000D01*
X141379000Y-76881000D02*
X141379000Y-78014000D01*
X141379000Y-79974000D02*
X141379000Y-81107000D01*
X141419000Y-76908000D02*
X141419000Y-78014000D01*
X141419000Y-79974000D02*
X141419000Y-81080000D01*
X141459000Y-76936000D02*
X141459000Y-78014000D01*
X141459000Y-79974000D02*
X141459000Y-81052000D01*
X141499000Y-76966000D02*
X141499000Y-78014000D01*
X141499000Y-79974000D02*
X141499000Y-81022000D01*
X141539000Y-76997000D02*
X141539000Y-78014000D01*
X141539000Y-79974000D02*
X141539000Y-80991000D01*
X141579000Y-77029000D02*
X141579000Y-78014000D01*
X141579000Y-79974000D02*
X141579000Y-80959000D01*
X141619000Y-77062000D02*
X141619000Y-78014000D01*
X141619000Y-79974000D02*
X141619000Y-80926000D01*
X141659000Y-77097000D02*
X141659000Y-78014000D01*
X141659000Y-79974000D02*
X141659000Y-80891000D01*
X141699000Y-77133000D02*
X141699000Y-78014000D01*
X141699000Y-79974000D02*
X141699000Y-80855000D01*
X141739000Y-77171000D02*
X141739000Y-78014000D01*
X141739000Y-79974000D02*
X141739000Y-80817000D01*
X141779000Y-77211000D02*
X141779000Y-78014000D01*
X141779000Y-79974000D02*
X141779000Y-80777000D01*
X141819000Y-77252000D02*
X141819000Y-78014000D01*
X141819000Y-79974000D02*
X141819000Y-80736000D01*
X141859000Y-77295000D02*
X141859000Y-78014000D01*
X141859000Y-79974000D02*
X141859000Y-80693000D01*
X141899000Y-77340000D02*
X141899000Y-78014000D01*
X141899000Y-79974000D02*
X141899000Y-80648000D01*
X141939000Y-77388000D02*
X141939000Y-80600000D01*
X141979000Y-77438000D02*
X141979000Y-80550000D01*
X142019000Y-77490000D02*
X142019000Y-80498000D01*
X142059000Y-77546000D02*
X142059000Y-80442000D01*
X142099000Y-77604000D02*
X142099000Y-80384000D01*
X142139000Y-77667000D02*
X142139000Y-80321000D01*
X142179000Y-77733000D02*
X142179000Y-80255000D01*
X142219000Y-77805000D02*
X142219000Y-80183000D01*
X142259000Y-77882000D02*
X142259000Y-80106000D01*
X142299000Y-77966000D02*
X142299000Y-80022000D01*
X142339000Y-78060000D02*
X142339000Y-79928000D01*
X142379000Y-78165000D02*
X142379000Y-79823000D01*
X142419000Y-78287000D02*
X142419000Y-79701000D01*
X142459000Y-78435000D02*
X142459000Y-79553000D01*
X142499000Y-78640000D02*
X142499000Y-79348000D01*
X136738000Y-78994000D02*
X137938000Y-78994000D01*
X137338000Y-78344000D02*
X137338000Y-79644000D01*
%TO.C,J1*%
X154150000Y-92854000D02*
X150050000Y-92854000D01*
X150050000Y-92854000D02*
X150050000Y-100654000D01*
X150050000Y-100654000D02*
X154150000Y-100654000D01*
X154150000Y-100654000D02*
X154150000Y-92854000D01*
X152400000Y-92854000D02*
X152400000Y-93354000D01*
X152400000Y-93354000D02*
X153650000Y-93354000D01*
X153650000Y-93354000D02*
X153650000Y-100154000D01*
X153650000Y-100154000D02*
X152400000Y-100154000D01*
X152400000Y-100154000D02*
X152400000Y-100654000D01*
X151550000Y-92854000D02*
X151550000Y-93854000D01*
X151550000Y-93854000D02*
X150050000Y-93854000D01*
X151550000Y-100654000D02*
X151550000Y-99654000D01*
X151550000Y-99654000D02*
X150050000Y-99654000D01*
X152250000Y-92554000D02*
X149750000Y-92554000D01*
X149750000Y-92554000D02*
X149750000Y-95054000D01*
D10*
%TO.C,RV1*%
X152820000Y-91520000D02*
X152820000Y-101520000D01*
X152820000Y-91520000D02*
X140820000Y-91520000D01*
X140820000Y-91520000D02*
X140320000Y-91520000D01*
X140320000Y-91520000D02*
X140320000Y-101520000D01*
X140320000Y-101520000D02*
X152820000Y-101520000D01*
D12*
%TO.C,U1*%
X129430000Y-87055000D02*
X131080000Y-87055000D01*
X129430000Y-76775000D02*
X129430000Y-87055000D01*
X134730000Y-76775000D02*
X129430000Y-76775000D01*
X134730000Y-87055000D02*
X134730000Y-76775000D01*
X133080000Y-87055000D02*
X134730000Y-87055000D01*
X131080000Y-87055000D02*
G75*
G02*
X133080000Y-87055000I1000000J0D01*
G01*
%TO.C,R2*%
X152536000Y-88738000D02*
X152536000Y-87538000D01*
X154296000Y-87538000D02*
X154296000Y-88738000D01*
%TO.C,R1*%
X137322000Y-87766000D02*
X138522000Y-87766000D01*
X138522000Y-89526000D02*
X137322000Y-89526000D01*
D10*
%TO.C,SW1*%
X130620000Y-103220000D02*
X138620000Y-103220000D01*
X138620000Y-103220000D02*
X138620000Y-90020000D01*
X138620000Y-90020000D02*
X130620000Y-90020000D01*
X130620000Y-90020000D02*
X130620000Y-103220000D01*
D13*
%TO.C,J2*%
X145320000Y-76820000D02*
X149320000Y-76820000D01*
X145320000Y-76820000D02*
X145320000Y-79320000D01*
X149320000Y-77120000D02*
X149320000Y-76820000D01*
X149320000Y-79320000D02*
X149320000Y-77148000D01*
X145070000Y-86820000D02*
X145070000Y-89820000D01*
X149570000Y-86820000D02*
X145070000Y-86820000D01*
X149570000Y-89820000D02*
X149570000Y-86820000D01*
X142820000Y-79320000D02*
X142820000Y-89820000D01*
X145320000Y-79320000D02*
X142820000Y-79320000D01*
X151820000Y-79320000D02*
X149320000Y-79320000D01*
X151820000Y-89820000D02*
X151820000Y-79320000D01*
X145820000Y-89820000D02*
X142820000Y-89820000D01*
X148820000Y-89820000D02*
X145820000Y-89820000D01*
X151820000Y-89820000D02*
X148820000Y-89820000D01*
D12*
%TO.C,D1*%
X139890000Y-82260000D02*
X139734000Y-82260000D01*
X142206000Y-82260000D02*
X142050000Y-82260000D01*
X142048608Y-85492335D02*
G75*
G03*
X142205516Y-82260000I-1078608J1672335D01*
G01*
X139891392Y-85492335D02*
G75*
G02*
X139734484Y-82260000I1078608J1672335D01*
G01*
X142049837Y-84861130D02*
G75*
G03*
X142050000Y-82779039I-1079837J1041130D01*
G01*
X139890163Y-84861130D02*
G75*
G02*
X139890000Y-82779039I1079837J1041130D01*
G01*
%TO.C,C1*%
X129774000Y-90408000D02*
X129838000Y-90408000D01*
X127718000Y-90408000D02*
X127782000Y-90408000D01*
X129774000Y-93528000D02*
X129838000Y-93528000D01*
X127718000Y-93528000D02*
X127782000Y-93528000D01*
X129838000Y-93528000D02*
X129838000Y-90408000D01*
X127718000Y-93528000D02*
X127718000Y-90408000D01*
%TO.C,C2*%
D10*
X143597333Y-77573142D02*
X143549714Y-77620761D01*
X143406857Y-77668380D01*
X143311619Y-77668380D01*
X143168761Y-77620761D01*
X143073523Y-77525523D01*
X143025904Y-77430285D01*
X142978285Y-77239809D01*
X142978285Y-77096952D01*
X143025904Y-76906476D01*
X143073523Y-76811238D01*
X143168761Y-76716000D01*
X143311619Y-76668380D01*
X143406857Y-76668380D01*
X143549714Y-76716000D01*
X143597333Y-76763619D01*
X143978285Y-76763619D02*
X144025904Y-76716000D01*
X144121142Y-76668380D01*
X144359238Y-76668380D01*
X144454476Y-76716000D01*
X144502095Y-76763619D01*
X144549714Y-76858857D01*
X144549714Y-76954095D01*
X144502095Y-77096952D01*
X143930666Y-77668380D01*
X144549714Y-77668380D01*
%TO.C,J1*%
X152868380Y-100409333D02*
X153582666Y-100409333D01*
X153725523Y-100456952D01*
X153820761Y-100552190D01*
X153868380Y-100695047D01*
X153868380Y-100790285D01*
X153868380Y-99409333D02*
X153868380Y-99980761D01*
X153868380Y-99695047D02*
X152868380Y-99695047D01*
X153011238Y-99790285D01*
X153106476Y-99885523D01*
X153154095Y-99980761D01*
%TO.C,RV1*%
X147672380Y-97415238D02*
X147196190Y-97748571D01*
X147672380Y-97986666D02*
X146672380Y-97986666D01*
X146672380Y-97605714D01*
X146720000Y-97510476D01*
X146767619Y-97462857D01*
X146862857Y-97415238D01*
X147005714Y-97415238D01*
X147100952Y-97462857D01*
X147148571Y-97510476D01*
X147196190Y-97605714D01*
X147196190Y-97986666D01*
X146672380Y-97129523D02*
X147672380Y-96796190D01*
X146672380Y-96462857D01*
X147672380Y-95605714D02*
X147672380Y-96177142D01*
X147672380Y-95891428D02*
X146672380Y-95891428D01*
X146815238Y-95986666D01*
X146910476Y-96081904D01*
X146958095Y-96177142D01*
%TO.C,U1*%
X131318095Y-81494380D02*
X131318095Y-82303904D01*
X131365714Y-82399142D01*
X131413333Y-82446761D01*
X131508571Y-82494380D01*
X131699047Y-82494380D01*
X131794285Y-82446761D01*
X131841904Y-82399142D01*
X131889523Y-82303904D01*
X131889523Y-81494380D01*
X132889523Y-82494380D02*
X132318095Y-82494380D01*
X132603809Y-82494380D02*
X132603809Y-81494380D01*
X132508571Y-81637238D01*
X132413333Y-81732476D01*
X132318095Y-81780095D01*
%TO.C,R2*%
X153224666Y-85206666D02*
X152891333Y-85440000D01*
X153224666Y-85606666D02*
X152524666Y-85606666D01*
X152524666Y-85340000D01*
X152558000Y-85273333D01*
X152591333Y-85240000D01*
X152658000Y-85206666D01*
X152758000Y-85206666D01*
X152824666Y-85240000D01*
X152858000Y-85273333D01*
X152891333Y-85340000D01*
X152891333Y-85606666D01*
X152591333Y-84940000D02*
X152558000Y-84906666D01*
X152524666Y-84840000D01*
X152524666Y-84673333D01*
X152558000Y-84606666D01*
X152591333Y-84573333D01*
X152658000Y-84540000D01*
X152724666Y-84540000D01*
X152824666Y-84573333D01*
X153224666Y-84973333D01*
X153224666Y-84540000D01*
X153540666Y-85528000D02*
X153540666Y-85094666D01*
X153807333Y-85328000D01*
X153807333Y-85228000D01*
X153840666Y-85161333D01*
X153874000Y-85128000D01*
X153940666Y-85094666D01*
X154107333Y-85094666D01*
X154174000Y-85128000D01*
X154207333Y-85161333D01*
X154240666Y-85228000D01*
X154240666Y-85428000D01*
X154207333Y-85494666D01*
X154174000Y-85528000D01*
X153540666Y-84861333D02*
X153540666Y-84428000D01*
X153807333Y-84661333D01*
X153807333Y-84561333D01*
X153840666Y-84494666D01*
X153874000Y-84461333D01*
X153940666Y-84428000D01*
X154107333Y-84428000D01*
X154174000Y-84461333D01*
X154207333Y-84494666D01*
X154240666Y-84561333D01*
X154240666Y-84761333D01*
X154207333Y-84828000D01*
X154174000Y-84861333D01*
X153540666Y-83994666D02*
X153540666Y-83928000D01*
X153574000Y-83861333D01*
X153607333Y-83828000D01*
X153674000Y-83794666D01*
X153807333Y-83761333D01*
X153974000Y-83761333D01*
X154107333Y-83794666D01*
X154174000Y-83828000D01*
X154207333Y-83861333D01*
X154240666Y-83928000D01*
X154240666Y-83994666D01*
X154207333Y-84061333D01*
X154174000Y-84094666D01*
X154107333Y-84128000D01*
X153974000Y-84161333D01*
X153807333Y-84161333D01*
X153674000Y-84128000D01*
X153607333Y-84094666D01*
X153574000Y-84061333D01*
X153540666Y-83994666D01*
X153874000Y-83228000D02*
X153874000Y-83461333D01*
X154240666Y-83461333D02*
X153540666Y-83461333D01*
X153540666Y-83128000D01*
%TO.C,R1*%
X140152380Y-86780666D02*
X139676190Y-87114000D01*
X140152380Y-87352095D02*
X139152380Y-87352095D01*
X139152380Y-86971142D01*
X139200000Y-86875904D01*
X139247619Y-86828285D01*
X139342857Y-86780666D01*
X139485714Y-86780666D01*
X139580952Y-86828285D01*
X139628571Y-86875904D01*
X139676190Y-86971142D01*
X139676190Y-87352095D01*
X140152380Y-85828285D02*
X140152380Y-86399714D01*
X140152380Y-86114000D02*
X139152380Y-86114000D01*
X139295238Y-86209238D01*
X139390476Y-86304476D01*
X139438095Y-86399714D01*
X138882380Y-86955238D02*
X138882380Y-87526666D01*
X138882380Y-87240952D02*
X137882380Y-87240952D01*
X138025238Y-87336190D01*
X138120476Y-87431428D01*
X138168095Y-87526666D01*
X137882380Y-86336190D02*
X137882380Y-86240952D01*
X137930000Y-86145714D01*
X137977619Y-86098095D01*
X138072857Y-86050476D01*
X138263333Y-86002857D01*
X138501428Y-86002857D01*
X138691904Y-86050476D01*
X138787142Y-86098095D01*
X138834761Y-86145714D01*
X138882380Y-86240952D01*
X138882380Y-86336190D01*
X138834761Y-86431428D01*
X138787142Y-86479047D01*
X138691904Y-86526666D01*
X138501428Y-86574285D01*
X138263333Y-86574285D01*
X138072857Y-86526666D01*
X137977619Y-86479047D01*
X137930000Y-86431428D01*
X137882380Y-86336190D01*
X138882380Y-85574285D02*
X137882380Y-85574285D01*
X138501428Y-85479047D02*
X138882380Y-85193333D01*
X138215714Y-85193333D02*
X138596666Y-85574285D01*
%TO.C,SW1*%
X131849761Y-92773333D02*
X131897380Y-92630476D01*
X131897380Y-92392380D01*
X131849761Y-92297142D01*
X131802142Y-92249523D01*
X131706904Y-92201904D01*
X131611666Y-92201904D01*
X131516428Y-92249523D01*
X131468809Y-92297142D01*
X131421190Y-92392380D01*
X131373571Y-92582857D01*
X131325952Y-92678095D01*
X131278333Y-92725714D01*
X131183095Y-92773333D01*
X131087857Y-92773333D01*
X130992619Y-92725714D01*
X130945000Y-92678095D01*
X130897380Y-92582857D01*
X130897380Y-92344761D01*
X130945000Y-92201904D01*
X130897380Y-91868571D02*
X131897380Y-91630476D01*
X131183095Y-91440000D01*
X131897380Y-91249523D01*
X130897380Y-91011428D01*
X131897380Y-90106666D02*
X131897380Y-90678095D01*
X131897380Y-90392380D02*
X130897380Y-90392380D01*
X131040238Y-90487619D01*
X131135476Y-90582857D01*
X131183095Y-90678095D01*
%TO.C,C1*%
X128611333Y-95480142D02*
X128563714Y-95527761D01*
X128420857Y-95575380D01*
X128325619Y-95575380D01*
X128182761Y-95527761D01*
X128087523Y-95432523D01*
X128039904Y-95337285D01*
X127992285Y-95146809D01*
X127992285Y-95003952D01*
X128039904Y-94813476D01*
X128087523Y-94718238D01*
X128182761Y-94623000D01*
X128325619Y-94575380D01*
X128420857Y-94575380D01*
X128563714Y-94623000D01*
X128611333Y-94670619D01*
X129563714Y-95575380D02*
X128992285Y-95575380D01*
X129278000Y-95575380D02*
X129278000Y-94575380D01*
X129182761Y-94718238D01*
X129087523Y-94813476D01*
X128992285Y-94861095D01*
X127960571Y-89352380D02*
X127389142Y-89352380D01*
X127674857Y-89352380D02*
X127674857Y-88352380D01*
X127579619Y-88495238D01*
X127484380Y-88590476D01*
X127389142Y-88638095D01*
X128579619Y-88352380D02*
X128674857Y-88352380D01*
X128770095Y-88400000D01*
X128817714Y-88447619D01*
X128865333Y-88542857D01*
X128912952Y-88733333D01*
X128912952Y-88971428D01*
X128865333Y-89161904D01*
X128817714Y-89257142D01*
X128770095Y-89304761D01*
X128674857Y-89352380D01*
X128579619Y-89352380D01*
X128484380Y-89304761D01*
X128436761Y-89257142D01*
X128389142Y-89161904D01*
X128341523Y-88971428D01*
X128341523Y-88733333D01*
X128389142Y-88542857D01*
X128436761Y-88447619D01*
X128484380Y-88400000D01*
X128579619Y-88352380D01*
X129341523Y-88685714D02*
X129341523Y-89352380D01*
X129341523Y-88780952D02*
X129389142Y-88733333D01*
X129484380Y-88685714D01*
X129627238Y-88685714D01*
X129722476Y-88733333D01*
X129770095Y-88828571D01*
X129770095Y-89352380D01*
X130579619Y-88828571D02*
X130246285Y-88828571D01*
X130246285Y-89352380D02*
X130246285Y-88352380D01*
X130722476Y-88352380D01*
%TD*%
M02*
