%TF.GenerationSoftware,KiCad,Pcbnew,(5.1.9)-1*%
%TF.CreationDate,2021-03-03T01:22:35+00:00*%
%TF.ProjectId,555 Timer,35353520-5469-46d6-9572-2e6b69636164,rev?*%
%TF.SameCoordinates,Original*%
%TF.FileFunction,Copper,L1,Top*%
%TF.FilePolarity,Positive*%
%FSLAX46Y46*%
G04 Gerber Fmt 4.6, Leading zero omitted, Abs format (unit mm)*
G04 Created by KiCad (PCBNEW (5.1.9)-1) date 2021-03-03 01:22:35*
%MOMM*%
%LPD*%
G01*
G04 APERTURE LIST*
%TA.AperFunction,ComponentPad*%
%ADD10C,1.600000*%
%TD*%
%TA.AperFunction,ComponentPad*%
%ADD11R,1.600000X1.600000*%
%TD*%
%TA.AperFunction,ComponentPad*%
%ADD12C,1.850000*%
%TD*%
%TA.AperFunction,ComponentPad*%
%ADD13R,1.850000X1.850000*%
%TD*%
%TA.AperFunction,ComponentPad*%
%ADD14C,2.200000*%
%TD*%
%TA.AperFunction,ComponentPad*%
%ADD15R,3.500000X3.500000*%
%TD*%
%TA.AperFunction,ComponentPad*%
%ADD16O,1.600000X1.600000*%
%TD*%
%TA.AperFunction,SMDPad,CuDef*%
%ADD17R,1.300000X1.500000*%
%TD*%
%TA.AperFunction,SMDPad,CuDef*%
%ADD18R,1.500000X1.300000*%
%TD*%
%TA.AperFunction,ComponentPad*%
%ADD19R,3.300000X3.000000*%
%TD*%
%TA.AperFunction,SMDPad,CuDef*%
%ADD20R,3.000000X1.500000*%
%TD*%
%TA.AperFunction,ComponentPad*%
%ADD21R,3.600000X2.000000*%
%TD*%
%TA.AperFunction,ComponentPad*%
%ADD22R,1.800000X1.800000*%
%TD*%
%TA.AperFunction,ComponentPad*%
%ADD23C,1.800000*%
%TD*%
%TA.AperFunction,ViaPad*%
%ADD24C,0.800000*%
%TD*%
%TA.AperFunction,Conductor*%
%ADD25C,1.000000*%
%TD*%
%TA.AperFunction,Conductor*%
%ADD26C,0.600000*%
%TD*%
%TA.AperFunction,Conductor*%
%ADD27C,0.800000*%
%TD*%
G04 APERTURE END LIST*
D10*
%TO.P,C2,2*%
%TO.N,GND*%
X140938000Y-78994000D03*
D11*
%TO.P,C2,1*%
%TO.N,Net-(C2-Pad1)*%
X138938000Y-78994000D03*
%TD*%
D12*
%TO.P,J1,2*%
%TO.N,GND*%
X152400000Y-98004000D03*
D13*
%TO.P,J1,1*%
%TO.N,Net-(J1-Pad1)*%
X152400000Y-95504000D03*
%TD*%
D14*
%TO.P,RV1,3*%
%TO.N,Net-(RV1-Pad3)*%
X140320000Y-99020000D03*
%TO.P,RV1,2*%
%TO.N,Net-(C2-Pad1)*%
X140320000Y-96520000D03*
%TO.P,RV1,1*%
%TO.N,Net-(R1-Pad2)*%
X140320000Y-94020000D03*
D15*
%TO.P,RV1,0*%
%TO.N,N/C*%
X147320000Y-101320000D03*
X147320000Y-91720000D03*
%TD*%
D11*
%TO.P,U1,1*%
%TO.N,GND*%
X135890000Y-85725000D03*
D16*
%TO.P,U1,5*%
%TO.N,Net-(C1-Pad2)*%
X128270000Y-78105000D03*
%TO.P,U1,2*%
%TO.N,Net-(C2-Pad1)*%
X135890000Y-83185000D03*
%TO.P,U1,6*%
X128270000Y-80645000D03*
%TO.P,U1,3*%
%TO.N,Net-(J2-Pad1)*%
X135890000Y-80645000D03*
%TO.P,U1,7*%
%TO.N,Net-(R1-Pad2)*%
X128270000Y-83185000D03*
%TO.P,U1,4*%
%TO.N,+5V*%
X135890000Y-78105000D03*
%TO.P,U1,8*%
X128270000Y-85725000D03*
%TD*%
D17*
%TO.P,R2,1*%
%TO.N,Net-(J2-Pad1)*%
X153416000Y-89488000D03*
%TO.P,R2,2*%
%TO.N,Net-(D1-Pad2)*%
X153416000Y-86788000D03*
%TD*%
D18*
%TO.P,R1,1*%
%TO.N,+5V*%
X136572000Y-88646000D03*
%TO.P,R1,2*%
%TO.N,Net-(R1-Pad2)*%
X139272000Y-88646000D03*
%TD*%
D19*
%TO.P,SW1,3*%
%TO.N,Net-(SW1-Pad3)*%
X134620000Y-91820000D03*
%TO.P,SW1,2*%
%TO.N,Net-(J1-Pad1)*%
X134620000Y-96520000D03*
%TO.P,SW1,1*%
%TO.N,+5V*%
X134620000Y-101220000D03*
%TD*%
D20*
%TO.P,J2,3*%
%TO.N,GND*%
X147320000Y-77820000D03*
D21*
%TO.P,J2,2*%
%TO.N,Net-(J2-Pad2)*%
X147320000Y-80320000D03*
%TO.P,J2,1*%
%TO.N,Net-(J2-Pad1)*%
X147320000Y-88320000D03*
%TD*%
D22*
%TO.P,D1,1*%
%TO.N,GND*%
X140970000Y-82550000D03*
D23*
%TO.P,D1,2*%
%TO.N,Net-(D1-Pad2)*%
X140970000Y-85090000D03*
%TD*%
D10*
%TO.P,C1,1*%
%TO.N,GND*%
X128778000Y-93218000D03*
%TO.P,C1,2*%
%TO.N,Net-(C1-Pad2)*%
X128778000Y-90718000D03*
%TD*%
D24*
%TO.N,GND*%
X151130000Y-77470000D03*
%TO.N,Net-(D1-Pad2)*%
X147066000Y-86106000D03*
X144018016Y-86106000D03*
%TO.N,+5V*%
X130302000Y-82296000D03*
X130302000Y-79248000D03*
%TO.N,Net-(C1-Pad2)*%
X132080000Y-83312000D03*
%TD*%
D25*
%TO.N,GND*%
X150780000Y-77820000D02*
X151130000Y-77470000D01*
X147320000Y-77820000D02*
X150780000Y-77820000D01*
D26*
%TO.N,Net-(C2-Pad1)*%
X135890000Y-83224998D02*
X135890000Y-83185000D01*
X136271000Y-83185000D02*
X135890000Y-83185000D01*
X137414000Y-84328000D02*
X136271000Y-83185000D01*
X137922000Y-84328000D02*
X137414000Y-84328000D01*
X141920001Y-88326001D02*
X137922000Y-84328000D01*
X141920001Y-96077999D02*
X141920001Y-88326001D01*
X141478000Y-96520000D02*
X141920001Y-96077999D01*
X140320000Y-96520000D02*
X141478000Y-96520000D01*
%TO.N,Net-(D1-Pad2)*%
X153416000Y-86788000D02*
X151050000Y-86788000D01*
X151050000Y-86788000D02*
X150368000Y-86106000D01*
X150368000Y-86106000D02*
X147066000Y-86106000D01*
X144018000Y-86106000D02*
X144018016Y-86106000D01*
X141986000Y-86106000D02*
X140970000Y-85090000D01*
X144018016Y-86106000D02*
X141986000Y-86106000D01*
D25*
%TO.N,Net-(J1-Pad1)*%
X152400000Y-95504000D02*
X147828000Y-95504000D01*
X147828000Y-95504000D02*
X142240000Y-101092000D01*
X139192000Y-101092000D02*
X134620000Y-96520000D01*
X142240000Y-101092000D02*
X139192000Y-101092000D01*
%TO.N,Net-(J2-Pad1)*%
X147320000Y-88320000D02*
X149915000Y-88320000D01*
X151083000Y-89488000D02*
X153416000Y-89488000D01*
X149915000Y-88320000D02*
X151083000Y-89488000D01*
D26*
X147248000Y-88320000D02*
X147320000Y-88320000D01*
D27*
X143383000Y-80645000D02*
X135890000Y-80645000D01*
X144526000Y-81788000D02*
X143383000Y-80645000D01*
X144526000Y-84582000D02*
X144526000Y-81788000D01*
X145542000Y-85598000D02*
X144526000Y-84582000D01*
X145542000Y-87213000D02*
X145542000Y-85598000D01*
X146649000Y-88320000D02*
X145542000Y-87213000D01*
X147320000Y-88320000D02*
X146649000Y-88320000D01*
D25*
%TO.N,+5V*%
X128270000Y-85725000D02*
X129413000Y-85725000D01*
D26*
X130302000Y-82296000D02*
X130302000Y-79248000D01*
D25*
X134620000Y-101220000D02*
X131699000Y-98299000D01*
X129413000Y-85725000D02*
X131699000Y-88011000D01*
X131699000Y-98299000D02*
X131699000Y-89027000D01*
X131699000Y-89027000D02*
X131699000Y-88011000D01*
D26*
X136191000Y-89027000D02*
X136572000Y-88646000D01*
X131699000Y-89027000D02*
X136191000Y-89027000D01*
%TO.N,Net-(R1-Pad2)*%
X129159000Y-83185000D02*
X128270000Y-83185000D01*
X140320000Y-89694000D02*
X139272000Y-88646000D01*
X140320000Y-94020000D02*
X140320000Y-89694000D01*
X139272000Y-88646000D02*
X138002000Y-87376000D01*
X138002000Y-87376000D02*
X133858000Y-87376000D01*
X129667000Y-83185000D02*
X128270000Y-83185000D01*
X133858000Y-87376000D02*
X129667000Y-83185000D01*
%TO.N,Net-(C1-Pad2)*%
X132080000Y-83312000D02*
X132080000Y-79248000D01*
X130937000Y-78105000D02*
X128270000Y-78105000D01*
X132080000Y-79248000D02*
X130937000Y-78105000D01*
%TD*%
M02*
