M48
; DRILL file {KiCad (5.1.9)-1} date 03/03/21 01:22:30
; FORMAT={-:-/ absolute / inch / decimal}
; #@! TF.CreationDate,2021-03-03T01:22:30+00:00
; #@! TF.GenerationSoftware,Kicad,Pcbnew,(5.1.9)-1
FMAT,2
INCH
T1C0.0157
T2C0.0315
T3C0.0354
T4C0.0472
T5C0.0512
T6C0.0866
T7C0.1181
%
G90
G05
T1
X5.13Y-3.12
X5.13Y-3.24
X5.2Y-3.28
X5.67Y-3.39
X5.79Y-3.39
X5.95Y-3.05
T2
X5.05Y-3.075
X5.05Y-3.175
X5.05Y-3.275
X5.05Y-3.375
X5.07Y-3.5716
X5.07Y-3.67
X5.35Y-3.075
X5.35Y-3.175
X5.35Y-3.275
X5.35Y-3.375
X5.47Y-3.11
X5.5487Y-3.11
T3
X5.55Y-3.25
X5.55Y-3.35
X6.0Y-3.76
X6.0Y-3.8584
T5
X5.5244Y-3.7016
X5.5244Y-3.8
X5.5244Y-3.8984
T6
X5.8Y-3.611
X5.8Y-3.989
T7
X5.8Y-3.3
T2
G00X5.8354Y-3.1622
M15
G01X5.7646Y-3.1622
M16
G05
G00X5.8354Y-3.4772
M15
G01X5.7646Y-3.4772
M16
G05
T4
G00X5.3256Y-3.615
M15
G01X5.2744Y-3.615
M16
G05
G00X5.3256Y-3.8
M15
G01X5.2744Y-3.8
M16
G05
G00X5.3256Y-3.985
M15
G01X5.2744Y-3.985
M16
G05
T0
M30
