%TF.GenerationSoftware,KiCad,Pcbnew,(5.1.9)-1*%
%TF.CreationDate,2021-03-02T23:28:56+00:00*%
%TF.ProjectId,Four Power Outlet,466f7572-2050-46f7-9765-72204f75746c,rev?*%
%TF.SameCoordinates,Original*%
%TF.FileFunction,Copper,L2,Bot*%
%TF.FilePolarity,Positive*%
%FSLAX46Y46*%
G04 Gerber Fmt 4.6, Leading zero omitted, Abs format (unit mm)*
G04 Created by KiCad (PCBNEW (5.1.9)-1) date 2021-03-02 23:28:56*
%MOMM*%
%LPD*%
G01*
G04 APERTURE LIST*
%TA.AperFunction,ComponentPad*%
%ADD10R,1.850000X1.850000*%
%TD*%
%TA.AperFunction,ComponentPad*%
%ADD11C,1.850000*%
%TD*%
%TA.AperFunction,ComponentPad*%
%ADD12R,3.300000X3.000000*%
%TD*%
%TA.AperFunction,ComponentPad*%
%ADD13R,2.000000X3.600000*%
%TD*%
%TA.AperFunction,ComponentPad*%
%ADD14R,1.800000X1.800000*%
%TD*%
%TA.AperFunction,ComponentPad*%
%ADD15C,1.800000*%
%TD*%
%TA.AperFunction,ViaPad*%
%ADD16C,0.800000*%
%TD*%
%TA.AperFunction,Conductor*%
%ADD17C,1.000000*%
%TD*%
%TA.AperFunction,Conductor*%
%ADD18C,0.254000*%
%TD*%
%TA.AperFunction,Conductor*%
%ADD19C,0.100000*%
%TD*%
G04 APERTURE END LIST*
D10*
%TO.P,J1,1*%
%TO.N,GND*%
X92075000Y-125730000D03*
D11*
%TO.P,J1,2*%
%TO.N,+5V*%
X89575000Y-125730000D03*
%TD*%
D12*
%TO.P,SW4,3*%
%TO.N,Net-(SW4-Pad3)*%
X84075000Y-115060000D03*
%TO.P,SW4,2*%
%TO.N,+5V*%
X84075000Y-119760000D03*
%TO.P,SW4,1*%
%TO.N,Net-(J5-Pad1)*%
X84075000Y-124460000D03*
%TD*%
%TO.P,SW3,3*%
%TO.N,Net-(SW3-Pad3)*%
X97790000Y-115060000D03*
%TO.P,SW3,2*%
%TO.N,+5V*%
X97790000Y-119760000D03*
%TO.P,SW3,1*%
%TO.N,Net-(J4-Pad1)*%
X97790000Y-124460000D03*
%TD*%
%TO.P,SW2,3*%
%TO.N,Net-(SW2-Pad3)*%
X110500000Y-115060000D03*
%TO.P,SW2,2*%
%TO.N,+5V*%
X110500000Y-119760000D03*
%TO.P,SW2,1*%
%TO.N,Net-(J3-Pad1)*%
X110500000Y-124460000D03*
%TD*%
%TO.P,SW1,3*%
%TO.N,Net-(SW1-Pad3)*%
X124200000Y-115060000D03*
%TO.P,SW1,2*%
%TO.N,+5V*%
X124200000Y-119760000D03*
%TO.P,SW1,1*%
%TO.N,Net-(J2-Pad1)*%
X124200000Y-124460000D03*
%TD*%
D13*
%TO.P,J5,2*%
%TO.N,Net-(J5-Pad2)*%
X80574000Y-107315000D03*
%TO.P,J5,1*%
%TO.N,Net-(J5-Pad1)*%
X88574000Y-107315000D03*
%TD*%
%TO.P,J4,2*%
%TO.N,Net-(J4-Pad2)*%
X94290000Y-107315000D03*
%TO.P,J4,1*%
%TO.N,Net-(J4-Pad1)*%
X102290000Y-107315000D03*
%TD*%
%TO.P,J3,2*%
%TO.N,Net-(J3-Pad2)*%
X113990000Y-107315000D03*
%TO.P,J3,1*%
%TO.N,Net-(J3-Pad1)*%
X105990000Y-107315000D03*
%TD*%
%TO.P,J2,2*%
%TO.N,Net-(J2-Pad2)*%
X127706000Y-107315000D03*
%TO.P,J2,1*%
%TO.N,Net-(J2-Pad1)*%
X119706000Y-107315000D03*
%TD*%
D14*
%TO.P,D4,1*%
%TO.N,GND*%
X78105000Y-114300000D03*
D15*
%TO.P,D4,2*%
%TO.N,Net-(D4-Pad2)*%
X78105000Y-116840000D03*
%TD*%
D14*
%TO.P,D3,1*%
%TO.N,GND*%
X91440000Y-114300000D03*
D15*
%TO.P,D3,2*%
%TO.N,Net-(D3-Pad2)*%
X91440000Y-116840000D03*
%TD*%
D14*
%TO.P,D2,1*%
%TO.N,GND*%
X104140000Y-114300000D03*
D15*
%TO.P,D2,2*%
%TO.N,Net-(D2-Pad2)*%
X104140000Y-116840000D03*
%TD*%
D14*
%TO.P,D1,1*%
%TO.N,GND*%
X118110000Y-114300000D03*
D15*
%TO.P,D1,2*%
%TO.N,Net-(D1-Pad2)*%
X118110000Y-116840000D03*
%TD*%
D16*
%TO.N,GND*%
X129540000Y-110490000D03*
X115570000Y-110490000D03*
X92710000Y-110490000D03*
X78740000Y-110490000D03*
%TO.N,Net-(D1-Pad2)*%
X115570000Y-121920000D03*
X115570000Y-117475000D03*
X115570000Y-121920000D03*
%TO.N,Net-(D2-Pad2)*%
X102870000Y-121920000D03*
X102870000Y-118110000D03*
%TO.N,Net-(J3-Pad1)*%
X113665000Y-121920000D03*
X113665000Y-117475000D03*
%TO.N,Net-(J4-Pad1)*%
X100965000Y-121920000D03*
X100965000Y-118110000D03*
%TD*%
D17*
%TO.N,Net-(D1-Pad2)*%
X115570000Y-117475000D02*
X115570000Y-121920000D01*
%TO.N,Net-(D2-Pad2)*%
X102870000Y-121920000D02*
X102870000Y-118110000D01*
%TO.N,Net-(J3-Pad1)*%
X113665000Y-121920000D02*
X113665000Y-117475000D01*
%TO.N,Net-(J4-Pad1)*%
X100965000Y-121920000D02*
X100965000Y-118110000D01*
%TD*%
D18*
%TO.N,GND*%
X131420000Y-126873000D02*
X93597444Y-126873000D01*
X93625812Y-126779482D01*
X93638072Y-126655000D01*
X93635000Y-126015750D01*
X93476250Y-125857000D01*
X92202000Y-125857000D01*
X92202000Y-125877000D01*
X91948000Y-125877000D01*
X91948000Y-125857000D01*
X91928000Y-125857000D01*
X91928000Y-125603000D01*
X91948000Y-125603000D01*
X91948000Y-124328750D01*
X92202000Y-124328750D01*
X92202000Y-125603000D01*
X93476250Y-125603000D01*
X93635000Y-125444250D01*
X93638072Y-124805000D01*
X93625812Y-124680518D01*
X93589502Y-124560820D01*
X93530537Y-124450506D01*
X93451185Y-124353815D01*
X93354494Y-124274463D01*
X93244180Y-124215498D01*
X93124482Y-124179188D01*
X93000000Y-124166928D01*
X92360750Y-124170000D01*
X92202000Y-124328750D01*
X91948000Y-124328750D01*
X91789250Y-124170000D01*
X91150000Y-124166928D01*
X91025518Y-124179188D01*
X90905820Y-124215498D01*
X90795506Y-124274463D01*
X90698815Y-124353815D01*
X90619463Y-124450506D01*
X90578435Y-124527262D01*
X90569442Y-124518269D01*
X90313937Y-124347546D01*
X90030035Y-124229950D01*
X89728647Y-124170000D01*
X89421353Y-124170000D01*
X89119965Y-124229950D01*
X88836063Y-124347546D01*
X88580558Y-124518269D01*
X88363269Y-124735558D01*
X88192546Y-124991063D01*
X88074950Y-125274965D01*
X88015000Y-125576353D01*
X88015000Y-125883647D01*
X88074950Y-126185035D01*
X88192546Y-126468937D01*
X88363269Y-126724442D01*
X88511827Y-126873000D01*
X76860000Y-126873000D01*
X76860000Y-122960000D01*
X81786928Y-122960000D01*
X81786928Y-125960000D01*
X81799188Y-126084482D01*
X81835498Y-126204180D01*
X81894463Y-126314494D01*
X81973815Y-126411185D01*
X82070506Y-126490537D01*
X82180820Y-126549502D01*
X82300518Y-126585812D01*
X82425000Y-126598072D01*
X85725000Y-126598072D01*
X85849482Y-126585812D01*
X85969180Y-126549502D01*
X86079494Y-126490537D01*
X86176185Y-126411185D01*
X86255537Y-126314494D01*
X86314502Y-126204180D01*
X86350812Y-126084482D01*
X86363072Y-125960000D01*
X86363072Y-122960000D01*
X95501928Y-122960000D01*
X95501928Y-125960000D01*
X95514188Y-126084482D01*
X95550498Y-126204180D01*
X95609463Y-126314494D01*
X95688815Y-126411185D01*
X95785506Y-126490537D01*
X95895820Y-126549502D01*
X96015518Y-126585812D01*
X96140000Y-126598072D01*
X99440000Y-126598072D01*
X99564482Y-126585812D01*
X99684180Y-126549502D01*
X99794494Y-126490537D01*
X99891185Y-126411185D01*
X99970537Y-126314494D01*
X100029502Y-126204180D01*
X100065812Y-126084482D01*
X100078072Y-125960000D01*
X100078072Y-122960000D01*
X100065812Y-122835518D01*
X100029502Y-122715820D01*
X99970537Y-122605506D01*
X99891185Y-122508815D01*
X99794494Y-122429463D01*
X99684180Y-122370498D01*
X99564482Y-122334188D01*
X99440000Y-122321928D01*
X96140000Y-122321928D01*
X96015518Y-122334188D01*
X95895820Y-122370498D01*
X95785506Y-122429463D01*
X95688815Y-122508815D01*
X95609463Y-122605506D01*
X95550498Y-122715820D01*
X95514188Y-122835518D01*
X95501928Y-122960000D01*
X86363072Y-122960000D01*
X86350812Y-122835518D01*
X86314502Y-122715820D01*
X86255537Y-122605506D01*
X86176185Y-122508815D01*
X86079494Y-122429463D01*
X85969180Y-122370498D01*
X85849482Y-122334188D01*
X85725000Y-122321928D01*
X82425000Y-122321928D01*
X82300518Y-122334188D01*
X82180820Y-122370498D01*
X82070506Y-122429463D01*
X81973815Y-122508815D01*
X81894463Y-122605506D01*
X81835498Y-122715820D01*
X81799188Y-122835518D01*
X81786928Y-122960000D01*
X76860000Y-122960000D01*
X76860000Y-117739652D01*
X76912688Y-117818505D01*
X77126495Y-118032312D01*
X77377905Y-118200299D01*
X77657257Y-118316011D01*
X77953816Y-118375000D01*
X78256184Y-118375000D01*
X78552743Y-118316011D01*
X78687964Y-118260000D01*
X81786928Y-118260000D01*
X81786928Y-121260000D01*
X81799188Y-121384482D01*
X81835498Y-121504180D01*
X81894463Y-121614494D01*
X81973815Y-121711185D01*
X82070506Y-121790537D01*
X82180820Y-121849502D01*
X82300518Y-121885812D01*
X82425000Y-121898072D01*
X85725000Y-121898072D01*
X85849482Y-121885812D01*
X85969180Y-121849502D01*
X86079494Y-121790537D01*
X86176185Y-121711185D01*
X86255537Y-121614494D01*
X86314502Y-121504180D01*
X86350812Y-121384482D01*
X86363072Y-121260000D01*
X86363072Y-118260000D01*
X86350812Y-118135518D01*
X86314502Y-118015820D01*
X86255537Y-117905506D01*
X86176185Y-117808815D01*
X86079494Y-117729463D01*
X85969180Y-117670498D01*
X85849482Y-117634188D01*
X85725000Y-117621928D01*
X82425000Y-117621928D01*
X82300518Y-117634188D01*
X82180820Y-117670498D01*
X82070506Y-117729463D01*
X81973815Y-117808815D01*
X81894463Y-117905506D01*
X81835498Y-118015820D01*
X81799188Y-118135518D01*
X81786928Y-118260000D01*
X78687964Y-118260000D01*
X78832095Y-118200299D01*
X79083505Y-118032312D01*
X79297312Y-117818505D01*
X79465299Y-117567095D01*
X79581011Y-117287743D01*
X79640000Y-116991184D01*
X79640000Y-116688816D01*
X79581011Y-116392257D01*
X79465299Y-116112905D01*
X79297312Y-115861495D01*
X79230873Y-115795056D01*
X79249180Y-115789502D01*
X79359494Y-115730537D01*
X79456185Y-115651185D01*
X79535537Y-115554494D01*
X79594502Y-115444180D01*
X79630812Y-115324482D01*
X79643072Y-115200000D01*
X79640000Y-114585750D01*
X79481250Y-114427000D01*
X78232000Y-114427000D01*
X78232000Y-114447000D01*
X77978000Y-114447000D01*
X77978000Y-114427000D01*
X77958000Y-114427000D01*
X77958000Y-114173000D01*
X77978000Y-114173000D01*
X77978000Y-112923750D01*
X78232000Y-112923750D01*
X78232000Y-114173000D01*
X79481250Y-114173000D01*
X79640000Y-114014250D01*
X79642271Y-113560000D01*
X81786928Y-113560000D01*
X81786928Y-116560000D01*
X81799188Y-116684482D01*
X81835498Y-116804180D01*
X81894463Y-116914494D01*
X81973815Y-117011185D01*
X82070506Y-117090537D01*
X82180820Y-117149502D01*
X82300518Y-117185812D01*
X82425000Y-117198072D01*
X85725000Y-117198072D01*
X85849482Y-117185812D01*
X85969180Y-117149502D01*
X86079494Y-117090537D01*
X86176185Y-117011185D01*
X86255537Y-116914494D01*
X86314502Y-116804180D01*
X86350812Y-116684482D01*
X86363072Y-116560000D01*
X86363072Y-115200000D01*
X89901928Y-115200000D01*
X89914188Y-115324482D01*
X89950498Y-115444180D01*
X90009463Y-115554494D01*
X90088815Y-115651185D01*
X90185506Y-115730537D01*
X90295820Y-115789502D01*
X90314127Y-115795056D01*
X90247688Y-115861495D01*
X90079701Y-116112905D01*
X89963989Y-116392257D01*
X89905000Y-116688816D01*
X89905000Y-116991184D01*
X89963989Y-117287743D01*
X90079701Y-117567095D01*
X90247688Y-117818505D01*
X90461495Y-118032312D01*
X90712905Y-118200299D01*
X90992257Y-118316011D01*
X91288816Y-118375000D01*
X91591184Y-118375000D01*
X91887743Y-118316011D01*
X92022964Y-118260000D01*
X95501928Y-118260000D01*
X95501928Y-121260000D01*
X95514188Y-121384482D01*
X95550498Y-121504180D01*
X95609463Y-121614494D01*
X95688815Y-121711185D01*
X95785506Y-121790537D01*
X95895820Y-121849502D01*
X96015518Y-121885812D01*
X96140000Y-121898072D01*
X99440000Y-121898072D01*
X99564482Y-121885812D01*
X99684180Y-121849502D01*
X99794494Y-121790537D01*
X99830000Y-121761398D01*
X99830000Y-121975751D01*
X99846423Y-122142498D01*
X99911324Y-122356446D01*
X100016716Y-122553623D01*
X100158551Y-122726449D01*
X100331377Y-122868284D01*
X100528553Y-122973676D01*
X100742501Y-123038577D01*
X100965000Y-123060491D01*
X101187498Y-123038577D01*
X101401446Y-122973676D01*
X101598623Y-122868284D01*
X101771449Y-122726449D01*
X101913284Y-122553623D01*
X101917500Y-122545735D01*
X101921716Y-122553623D01*
X102063551Y-122726449D01*
X102236377Y-122868284D01*
X102433553Y-122973676D01*
X102647501Y-123038577D01*
X102870000Y-123060491D01*
X103092498Y-123038577D01*
X103306446Y-122973676D01*
X103332032Y-122960000D01*
X108211928Y-122960000D01*
X108211928Y-125960000D01*
X108224188Y-126084482D01*
X108260498Y-126204180D01*
X108319463Y-126314494D01*
X108398815Y-126411185D01*
X108495506Y-126490537D01*
X108605820Y-126549502D01*
X108725518Y-126585812D01*
X108850000Y-126598072D01*
X112150000Y-126598072D01*
X112274482Y-126585812D01*
X112394180Y-126549502D01*
X112504494Y-126490537D01*
X112601185Y-126411185D01*
X112680537Y-126314494D01*
X112739502Y-126204180D01*
X112775812Y-126084482D01*
X112788072Y-125960000D01*
X112788072Y-122960000D01*
X112775812Y-122835518D01*
X112739502Y-122715820D01*
X112680537Y-122605506D01*
X112601185Y-122508815D01*
X112504494Y-122429463D01*
X112394180Y-122370498D01*
X112274482Y-122334188D01*
X112150000Y-122321928D01*
X108850000Y-122321928D01*
X108725518Y-122334188D01*
X108605820Y-122370498D01*
X108495506Y-122429463D01*
X108398815Y-122508815D01*
X108319463Y-122605506D01*
X108260498Y-122715820D01*
X108224188Y-122835518D01*
X108211928Y-122960000D01*
X103332032Y-122960000D01*
X103503623Y-122868284D01*
X103676449Y-122726449D01*
X103818284Y-122553623D01*
X103923676Y-122356447D01*
X103988577Y-122142499D01*
X104005000Y-121975752D01*
X104005000Y-118375000D01*
X104291184Y-118375000D01*
X104587743Y-118316011D01*
X104867095Y-118200299D01*
X105118505Y-118032312D01*
X105332312Y-117818505D01*
X105500299Y-117567095D01*
X105616011Y-117287743D01*
X105675000Y-116991184D01*
X105675000Y-116688816D01*
X105616011Y-116392257D01*
X105500299Y-116112905D01*
X105332312Y-115861495D01*
X105265873Y-115795056D01*
X105284180Y-115789502D01*
X105394494Y-115730537D01*
X105491185Y-115651185D01*
X105570537Y-115554494D01*
X105629502Y-115444180D01*
X105665812Y-115324482D01*
X105678072Y-115200000D01*
X105675000Y-114585750D01*
X105516250Y-114427000D01*
X104267000Y-114427000D01*
X104267000Y-114447000D01*
X104013000Y-114447000D01*
X104013000Y-114427000D01*
X102763750Y-114427000D01*
X102605000Y-114585750D01*
X102601928Y-115200000D01*
X102614188Y-115324482D01*
X102650498Y-115444180D01*
X102709463Y-115554494D01*
X102788815Y-115651185D01*
X102885506Y-115730537D01*
X102995820Y-115789502D01*
X103014127Y-115795056D01*
X102947688Y-115861495D01*
X102779701Y-116112905D01*
X102663989Y-116392257D01*
X102605000Y-116688816D01*
X102605000Y-116991184D01*
X102607463Y-117003569D01*
X102433554Y-117056324D01*
X102236378Y-117161716D01*
X102063552Y-117303551D01*
X101921717Y-117476377D01*
X101917501Y-117484266D01*
X101913284Y-117476377D01*
X101771449Y-117303551D01*
X101598623Y-117161716D01*
X101401447Y-117056324D01*
X101187499Y-116991423D01*
X100965000Y-116969509D01*
X100742502Y-116991423D01*
X100528554Y-117056324D01*
X100331378Y-117161716D01*
X100158552Y-117303551D01*
X100016717Y-117476377D01*
X99911325Y-117673553D01*
X99874458Y-117795087D01*
X99794494Y-117729463D01*
X99684180Y-117670498D01*
X99564482Y-117634188D01*
X99440000Y-117621928D01*
X96140000Y-117621928D01*
X96015518Y-117634188D01*
X95895820Y-117670498D01*
X95785506Y-117729463D01*
X95688815Y-117808815D01*
X95609463Y-117905506D01*
X95550498Y-118015820D01*
X95514188Y-118135518D01*
X95501928Y-118260000D01*
X92022964Y-118260000D01*
X92167095Y-118200299D01*
X92418505Y-118032312D01*
X92632312Y-117818505D01*
X92800299Y-117567095D01*
X92916011Y-117287743D01*
X92975000Y-116991184D01*
X92975000Y-116688816D01*
X92916011Y-116392257D01*
X92800299Y-116112905D01*
X92632312Y-115861495D01*
X92565873Y-115795056D01*
X92584180Y-115789502D01*
X92694494Y-115730537D01*
X92791185Y-115651185D01*
X92870537Y-115554494D01*
X92929502Y-115444180D01*
X92965812Y-115324482D01*
X92978072Y-115200000D01*
X92975000Y-114585750D01*
X92816250Y-114427000D01*
X91567000Y-114427000D01*
X91567000Y-114447000D01*
X91313000Y-114447000D01*
X91313000Y-114427000D01*
X90063750Y-114427000D01*
X89905000Y-114585750D01*
X89901928Y-115200000D01*
X86363072Y-115200000D01*
X86363072Y-113560000D01*
X86350812Y-113435518D01*
X86340038Y-113400000D01*
X89901928Y-113400000D01*
X89905000Y-114014250D01*
X90063750Y-114173000D01*
X91313000Y-114173000D01*
X91313000Y-112923750D01*
X91567000Y-112923750D01*
X91567000Y-114173000D01*
X92816250Y-114173000D01*
X92975000Y-114014250D01*
X92977271Y-113560000D01*
X95501928Y-113560000D01*
X95501928Y-116560000D01*
X95514188Y-116684482D01*
X95550498Y-116804180D01*
X95609463Y-116914494D01*
X95688815Y-117011185D01*
X95785506Y-117090537D01*
X95895820Y-117149502D01*
X96015518Y-117185812D01*
X96140000Y-117198072D01*
X99440000Y-117198072D01*
X99564482Y-117185812D01*
X99684180Y-117149502D01*
X99794494Y-117090537D01*
X99891185Y-117011185D01*
X99970537Y-116914494D01*
X100029502Y-116804180D01*
X100065812Y-116684482D01*
X100078072Y-116560000D01*
X100078072Y-113560000D01*
X100065812Y-113435518D01*
X100055038Y-113400000D01*
X102601928Y-113400000D01*
X102605000Y-114014250D01*
X102763750Y-114173000D01*
X104013000Y-114173000D01*
X104013000Y-112923750D01*
X104267000Y-112923750D01*
X104267000Y-114173000D01*
X105516250Y-114173000D01*
X105675000Y-114014250D01*
X105677271Y-113560000D01*
X108211928Y-113560000D01*
X108211928Y-116560000D01*
X108224188Y-116684482D01*
X108260498Y-116804180D01*
X108319463Y-116914494D01*
X108398815Y-117011185D01*
X108495506Y-117090537D01*
X108605820Y-117149502D01*
X108725518Y-117185812D01*
X108850000Y-117198072D01*
X112150000Y-117198072D01*
X112274482Y-117185812D01*
X112394180Y-117149502D01*
X112504494Y-117090537D01*
X112601185Y-117011185D01*
X112672216Y-116924633D01*
X112611325Y-117038553D01*
X112546424Y-117252501D01*
X112530001Y-117419248D01*
X112530001Y-117750396D01*
X112504494Y-117729463D01*
X112394180Y-117670498D01*
X112274482Y-117634188D01*
X112150000Y-117621928D01*
X108850000Y-117621928D01*
X108725518Y-117634188D01*
X108605820Y-117670498D01*
X108495506Y-117729463D01*
X108398815Y-117808815D01*
X108319463Y-117905506D01*
X108260498Y-118015820D01*
X108224188Y-118135518D01*
X108211928Y-118260000D01*
X108211928Y-121260000D01*
X108224188Y-121384482D01*
X108260498Y-121504180D01*
X108319463Y-121614494D01*
X108398815Y-121711185D01*
X108495506Y-121790537D01*
X108605820Y-121849502D01*
X108725518Y-121885812D01*
X108850000Y-121898072D01*
X112150000Y-121898072D01*
X112274482Y-121885812D01*
X112394180Y-121849502D01*
X112504494Y-121790537D01*
X112530000Y-121769605D01*
X112530000Y-121975751D01*
X112546423Y-122142498D01*
X112611324Y-122356446D01*
X112716716Y-122553623D01*
X112858551Y-122726449D01*
X113031377Y-122868284D01*
X113228553Y-122973676D01*
X113442501Y-123038577D01*
X113665000Y-123060491D01*
X113887498Y-123038577D01*
X114101446Y-122973676D01*
X114298623Y-122868284D01*
X114471449Y-122726449D01*
X114613284Y-122553623D01*
X114617501Y-122545734D01*
X114621717Y-122553623D01*
X114763552Y-122726449D01*
X114936378Y-122868284D01*
X115133554Y-122973676D01*
X115347502Y-123038577D01*
X115570000Y-123060491D01*
X115792499Y-123038577D01*
X116006447Y-122973676D01*
X116032033Y-122960000D01*
X121911928Y-122960000D01*
X121911928Y-125960000D01*
X121924188Y-126084482D01*
X121960498Y-126204180D01*
X122019463Y-126314494D01*
X122098815Y-126411185D01*
X122195506Y-126490537D01*
X122305820Y-126549502D01*
X122425518Y-126585812D01*
X122550000Y-126598072D01*
X125850000Y-126598072D01*
X125974482Y-126585812D01*
X126094180Y-126549502D01*
X126204494Y-126490537D01*
X126301185Y-126411185D01*
X126380537Y-126314494D01*
X126439502Y-126204180D01*
X126475812Y-126084482D01*
X126488072Y-125960000D01*
X126488072Y-122960000D01*
X126475812Y-122835518D01*
X126439502Y-122715820D01*
X126380537Y-122605506D01*
X126301185Y-122508815D01*
X126204494Y-122429463D01*
X126094180Y-122370498D01*
X125974482Y-122334188D01*
X125850000Y-122321928D01*
X122550000Y-122321928D01*
X122425518Y-122334188D01*
X122305820Y-122370498D01*
X122195506Y-122429463D01*
X122098815Y-122508815D01*
X122019463Y-122605506D01*
X121960498Y-122715820D01*
X121924188Y-122835518D01*
X121911928Y-122960000D01*
X116032033Y-122960000D01*
X116203623Y-122868284D01*
X116376449Y-122726449D01*
X116518284Y-122553623D01*
X116623676Y-122356447D01*
X116688577Y-122142499D01*
X116705000Y-121975752D01*
X116705000Y-117459178D01*
X116749701Y-117567095D01*
X116917688Y-117818505D01*
X117131495Y-118032312D01*
X117382905Y-118200299D01*
X117662257Y-118316011D01*
X117958816Y-118375000D01*
X118261184Y-118375000D01*
X118557743Y-118316011D01*
X118692964Y-118260000D01*
X121911928Y-118260000D01*
X121911928Y-121260000D01*
X121924188Y-121384482D01*
X121960498Y-121504180D01*
X122019463Y-121614494D01*
X122098815Y-121711185D01*
X122195506Y-121790537D01*
X122305820Y-121849502D01*
X122425518Y-121885812D01*
X122550000Y-121898072D01*
X125850000Y-121898072D01*
X125974482Y-121885812D01*
X126094180Y-121849502D01*
X126204494Y-121790537D01*
X126301185Y-121711185D01*
X126380537Y-121614494D01*
X126439502Y-121504180D01*
X126475812Y-121384482D01*
X126488072Y-121260000D01*
X126488072Y-118260000D01*
X126475812Y-118135518D01*
X126439502Y-118015820D01*
X126380537Y-117905506D01*
X126301185Y-117808815D01*
X126204494Y-117729463D01*
X126094180Y-117670498D01*
X125974482Y-117634188D01*
X125850000Y-117621928D01*
X122550000Y-117621928D01*
X122425518Y-117634188D01*
X122305820Y-117670498D01*
X122195506Y-117729463D01*
X122098815Y-117808815D01*
X122019463Y-117905506D01*
X121960498Y-118015820D01*
X121924188Y-118135518D01*
X121911928Y-118260000D01*
X118692964Y-118260000D01*
X118837095Y-118200299D01*
X119088505Y-118032312D01*
X119302312Y-117818505D01*
X119470299Y-117567095D01*
X119586011Y-117287743D01*
X119645000Y-116991184D01*
X119645000Y-116688816D01*
X119586011Y-116392257D01*
X119470299Y-116112905D01*
X119302312Y-115861495D01*
X119235873Y-115795056D01*
X119254180Y-115789502D01*
X119364494Y-115730537D01*
X119461185Y-115651185D01*
X119540537Y-115554494D01*
X119599502Y-115444180D01*
X119635812Y-115324482D01*
X119648072Y-115200000D01*
X119645000Y-114585750D01*
X119486250Y-114427000D01*
X118237000Y-114427000D01*
X118237000Y-114447000D01*
X117983000Y-114447000D01*
X117983000Y-114427000D01*
X116733750Y-114427000D01*
X116575000Y-114585750D01*
X116571928Y-115200000D01*
X116584188Y-115324482D01*
X116620498Y-115444180D01*
X116679463Y-115554494D01*
X116758815Y-115651185D01*
X116855506Y-115730537D01*
X116965820Y-115789502D01*
X116984127Y-115795056D01*
X116917688Y-115861495D01*
X116749701Y-116112905D01*
X116633989Y-116392257D01*
X116575000Y-116688816D01*
X116575000Y-116947486D01*
X116518284Y-116841377D01*
X116376449Y-116668551D01*
X116203623Y-116526716D01*
X116006446Y-116421324D01*
X115792498Y-116356423D01*
X115570000Y-116334509D01*
X115347501Y-116356423D01*
X115133553Y-116421324D01*
X114936377Y-116526716D01*
X114763551Y-116668551D01*
X114621716Y-116841377D01*
X114617500Y-116849265D01*
X114613284Y-116841377D01*
X114471449Y-116668551D01*
X114298623Y-116526716D01*
X114101447Y-116421324D01*
X113887499Y-116356423D01*
X113665000Y-116334509D01*
X113442502Y-116356423D01*
X113228554Y-116421324D01*
X113031378Y-116526716D01*
X112858552Y-116668551D01*
X112725041Y-116831234D01*
X112739502Y-116804180D01*
X112775812Y-116684482D01*
X112788072Y-116560000D01*
X112788072Y-113560000D01*
X112775812Y-113435518D01*
X112765038Y-113400000D01*
X116571928Y-113400000D01*
X116575000Y-114014250D01*
X116733750Y-114173000D01*
X117983000Y-114173000D01*
X117983000Y-112923750D01*
X118237000Y-112923750D01*
X118237000Y-114173000D01*
X119486250Y-114173000D01*
X119645000Y-114014250D01*
X119647271Y-113560000D01*
X121911928Y-113560000D01*
X121911928Y-116560000D01*
X121924188Y-116684482D01*
X121960498Y-116804180D01*
X122019463Y-116914494D01*
X122098815Y-117011185D01*
X122195506Y-117090537D01*
X122305820Y-117149502D01*
X122425518Y-117185812D01*
X122550000Y-117198072D01*
X125850000Y-117198072D01*
X125974482Y-117185812D01*
X126094180Y-117149502D01*
X126204494Y-117090537D01*
X126301185Y-117011185D01*
X126380537Y-116914494D01*
X126439502Y-116804180D01*
X126475812Y-116684482D01*
X126488072Y-116560000D01*
X126488072Y-113560000D01*
X126475812Y-113435518D01*
X126439502Y-113315820D01*
X126380537Y-113205506D01*
X126301185Y-113108815D01*
X126204494Y-113029463D01*
X126094180Y-112970498D01*
X125974482Y-112934188D01*
X125850000Y-112921928D01*
X122550000Y-112921928D01*
X122425518Y-112934188D01*
X122305820Y-112970498D01*
X122195506Y-113029463D01*
X122098815Y-113108815D01*
X122019463Y-113205506D01*
X121960498Y-113315820D01*
X121924188Y-113435518D01*
X121911928Y-113560000D01*
X119647271Y-113560000D01*
X119648072Y-113400000D01*
X119635812Y-113275518D01*
X119599502Y-113155820D01*
X119540537Y-113045506D01*
X119461185Y-112948815D01*
X119364494Y-112869463D01*
X119254180Y-112810498D01*
X119134482Y-112774188D01*
X119010000Y-112761928D01*
X118395750Y-112765000D01*
X118237000Y-112923750D01*
X117983000Y-112923750D01*
X117824250Y-112765000D01*
X117210000Y-112761928D01*
X117085518Y-112774188D01*
X116965820Y-112810498D01*
X116855506Y-112869463D01*
X116758815Y-112948815D01*
X116679463Y-113045506D01*
X116620498Y-113155820D01*
X116584188Y-113275518D01*
X116571928Y-113400000D01*
X112765038Y-113400000D01*
X112739502Y-113315820D01*
X112680537Y-113205506D01*
X112601185Y-113108815D01*
X112504494Y-113029463D01*
X112394180Y-112970498D01*
X112274482Y-112934188D01*
X112150000Y-112921928D01*
X108850000Y-112921928D01*
X108725518Y-112934188D01*
X108605820Y-112970498D01*
X108495506Y-113029463D01*
X108398815Y-113108815D01*
X108319463Y-113205506D01*
X108260498Y-113315820D01*
X108224188Y-113435518D01*
X108211928Y-113560000D01*
X105677271Y-113560000D01*
X105678072Y-113400000D01*
X105665812Y-113275518D01*
X105629502Y-113155820D01*
X105570537Y-113045506D01*
X105491185Y-112948815D01*
X105394494Y-112869463D01*
X105284180Y-112810498D01*
X105164482Y-112774188D01*
X105040000Y-112761928D01*
X104425750Y-112765000D01*
X104267000Y-112923750D01*
X104013000Y-112923750D01*
X103854250Y-112765000D01*
X103240000Y-112761928D01*
X103115518Y-112774188D01*
X102995820Y-112810498D01*
X102885506Y-112869463D01*
X102788815Y-112948815D01*
X102709463Y-113045506D01*
X102650498Y-113155820D01*
X102614188Y-113275518D01*
X102601928Y-113400000D01*
X100055038Y-113400000D01*
X100029502Y-113315820D01*
X99970537Y-113205506D01*
X99891185Y-113108815D01*
X99794494Y-113029463D01*
X99684180Y-112970498D01*
X99564482Y-112934188D01*
X99440000Y-112921928D01*
X96140000Y-112921928D01*
X96015518Y-112934188D01*
X95895820Y-112970498D01*
X95785506Y-113029463D01*
X95688815Y-113108815D01*
X95609463Y-113205506D01*
X95550498Y-113315820D01*
X95514188Y-113435518D01*
X95501928Y-113560000D01*
X92977271Y-113560000D01*
X92978072Y-113400000D01*
X92965812Y-113275518D01*
X92929502Y-113155820D01*
X92870537Y-113045506D01*
X92791185Y-112948815D01*
X92694494Y-112869463D01*
X92584180Y-112810498D01*
X92464482Y-112774188D01*
X92340000Y-112761928D01*
X91725750Y-112765000D01*
X91567000Y-112923750D01*
X91313000Y-112923750D01*
X91154250Y-112765000D01*
X90540000Y-112761928D01*
X90415518Y-112774188D01*
X90295820Y-112810498D01*
X90185506Y-112869463D01*
X90088815Y-112948815D01*
X90009463Y-113045506D01*
X89950498Y-113155820D01*
X89914188Y-113275518D01*
X89901928Y-113400000D01*
X86340038Y-113400000D01*
X86314502Y-113315820D01*
X86255537Y-113205506D01*
X86176185Y-113108815D01*
X86079494Y-113029463D01*
X85969180Y-112970498D01*
X85849482Y-112934188D01*
X85725000Y-112921928D01*
X82425000Y-112921928D01*
X82300518Y-112934188D01*
X82180820Y-112970498D01*
X82070506Y-113029463D01*
X81973815Y-113108815D01*
X81894463Y-113205506D01*
X81835498Y-113315820D01*
X81799188Y-113435518D01*
X81786928Y-113560000D01*
X79642271Y-113560000D01*
X79643072Y-113400000D01*
X79630812Y-113275518D01*
X79594502Y-113155820D01*
X79535537Y-113045506D01*
X79456185Y-112948815D01*
X79359494Y-112869463D01*
X79249180Y-112810498D01*
X79129482Y-112774188D01*
X79005000Y-112761928D01*
X78390750Y-112765000D01*
X78232000Y-112923750D01*
X77978000Y-112923750D01*
X77819250Y-112765000D01*
X77205000Y-112761928D01*
X77080518Y-112774188D01*
X76960820Y-112810498D01*
X76860000Y-112864388D01*
X76860000Y-105515000D01*
X78935928Y-105515000D01*
X78935928Y-109115000D01*
X78948188Y-109239482D01*
X78984498Y-109359180D01*
X79043463Y-109469494D01*
X79122815Y-109566185D01*
X79219506Y-109645537D01*
X79329820Y-109704502D01*
X79449518Y-109740812D01*
X79574000Y-109753072D01*
X81574000Y-109753072D01*
X81698482Y-109740812D01*
X81818180Y-109704502D01*
X81928494Y-109645537D01*
X82025185Y-109566185D01*
X82104537Y-109469494D01*
X82163502Y-109359180D01*
X82199812Y-109239482D01*
X82212072Y-109115000D01*
X82212072Y-108371326D01*
X82415637Y-108675983D01*
X82713017Y-108973363D01*
X83062698Y-109207012D01*
X83451244Y-109367953D01*
X83863721Y-109450000D01*
X84284279Y-109450000D01*
X84696756Y-109367953D01*
X85085302Y-109207012D01*
X85434983Y-108973363D01*
X85732363Y-108675983D01*
X85966012Y-108326302D01*
X86126953Y-107937756D01*
X86209000Y-107525279D01*
X86209000Y-107104721D01*
X86126953Y-106692244D01*
X85966012Y-106303698D01*
X85732363Y-105954017D01*
X85434983Y-105656637D01*
X85223008Y-105515000D01*
X86935928Y-105515000D01*
X86935928Y-109115000D01*
X86948188Y-109239482D01*
X86984498Y-109359180D01*
X87043463Y-109469494D01*
X87122815Y-109566185D01*
X87219506Y-109645537D01*
X87329820Y-109704502D01*
X87449518Y-109740812D01*
X87574000Y-109753072D01*
X89574000Y-109753072D01*
X89698482Y-109740812D01*
X89818180Y-109704502D01*
X89928494Y-109645537D01*
X90025185Y-109566185D01*
X90104537Y-109469494D01*
X90163502Y-109359180D01*
X90199812Y-109239482D01*
X90212072Y-109115000D01*
X90212072Y-105515000D01*
X92651928Y-105515000D01*
X92651928Y-109115000D01*
X92664188Y-109239482D01*
X92700498Y-109359180D01*
X92759463Y-109469494D01*
X92838815Y-109566185D01*
X92935506Y-109645537D01*
X93045820Y-109704502D01*
X93165518Y-109740812D01*
X93290000Y-109753072D01*
X95290000Y-109753072D01*
X95414482Y-109740812D01*
X95534180Y-109704502D01*
X95644494Y-109645537D01*
X95741185Y-109566185D01*
X95820537Y-109469494D01*
X95879502Y-109359180D01*
X95915812Y-109239482D01*
X95928072Y-109115000D01*
X95928072Y-108371326D01*
X96131637Y-108675983D01*
X96429017Y-108973363D01*
X96778698Y-109207012D01*
X97167244Y-109367953D01*
X97579721Y-109450000D01*
X98000279Y-109450000D01*
X98412756Y-109367953D01*
X98801302Y-109207012D01*
X99150983Y-108973363D01*
X99448363Y-108675983D01*
X99682012Y-108326302D01*
X99842953Y-107937756D01*
X99925000Y-107525279D01*
X99925000Y-107104721D01*
X99842953Y-106692244D01*
X99682012Y-106303698D01*
X99448363Y-105954017D01*
X99150983Y-105656637D01*
X98939008Y-105515000D01*
X100651928Y-105515000D01*
X100651928Y-109115000D01*
X100664188Y-109239482D01*
X100700498Y-109359180D01*
X100759463Y-109469494D01*
X100838815Y-109566185D01*
X100935506Y-109645537D01*
X101045820Y-109704502D01*
X101165518Y-109740812D01*
X101290000Y-109753072D01*
X103290000Y-109753072D01*
X103414482Y-109740812D01*
X103534180Y-109704502D01*
X103644494Y-109645537D01*
X103741185Y-109566185D01*
X103820537Y-109469494D01*
X103879502Y-109359180D01*
X103915812Y-109239482D01*
X103928072Y-109115000D01*
X103928072Y-105515000D01*
X104351928Y-105515000D01*
X104351928Y-109115000D01*
X104364188Y-109239482D01*
X104400498Y-109359180D01*
X104459463Y-109469494D01*
X104538815Y-109566185D01*
X104635506Y-109645537D01*
X104745820Y-109704502D01*
X104865518Y-109740812D01*
X104990000Y-109753072D01*
X106990000Y-109753072D01*
X107114482Y-109740812D01*
X107234180Y-109704502D01*
X107344494Y-109645537D01*
X107441185Y-109566185D01*
X107520537Y-109469494D01*
X107579502Y-109359180D01*
X107615812Y-109239482D01*
X107628072Y-109115000D01*
X107628072Y-107104721D01*
X108355000Y-107104721D01*
X108355000Y-107525279D01*
X108437047Y-107937756D01*
X108597988Y-108326302D01*
X108831637Y-108675983D01*
X109129017Y-108973363D01*
X109478698Y-109207012D01*
X109867244Y-109367953D01*
X110279721Y-109450000D01*
X110700279Y-109450000D01*
X111112756Y-109367953D01*
X111501302Y-109207012D01*
X111850983Y-108973363D01*
X112148363Y-108675983D01*
X112351928Y-108371326D01*
X112351928Y-109115000D01*
X112364188Y-109239482D01*
X112400498Y-109359180D01*
X112459463Y-109469494D01*
X112538815Y-109566185D01*
X112635506Y-109645537D01*
X112745820Y-109704502D01*
X112865518Y-109740812D01*
X112990000Y-109753072D01*
X114990000Y-109753072D01*
X115114482Y-109740812D01*
X115234180Y-109704502D01*
X115344494Y-109645537D01*
X115441185Y-109566185D01*
X115520537Y-109469494D01*
X115579502Y-109359180D01*
X115615812Y-109239482D01*
X115628072Y-109115000D01*
X115628072Y-105515000D01*
X118067928Y-105515000D01*
X118067928Y-109115000D01*
X118080188Y-109239482D01*
X118116498Y-109359180D01*
X118175463Y-109469494D01*
X118254815Y-109566185D01*
X118351506Y-109645537D01*
X118461820Y-109704502D01*
X118581518Y-109740812D01*
X118706000Y-109753072D01*
X120706000Y-109753072D01*
X120830482Y-109740812D01*
X120950180Y-109704502D01*
X121060494Y-109645537D01*
X121157185Y-109566185D01*
X121236537Y-109469494D01*
X121295502Y-109359180D01*
X121331812Y-109239482D01*
X121344072Y-109115000D01*
X121344072Y-107104721D01*
X122071000Y-107104721D01*
X122071000Y-107525279D01*
X122153047Y-107937756D01*
X122313988Y-108326302D01*
X122547637Y-108675983D01*
X122845017Y-108973363D01*
X123194698Y-109207012D01*
X123583244Y-109367953D01*
X123995721Y-109450000D01*
X124416279Y-109450000D01*
X124828756Y-109367953D01*
X125217302Y-109207012D01*
X125566983Y-108973363D01*
X125864363Y-108675983D01*
X126067928Y-108371326D01*
X126067928Y-109115000D01*
X126080188Y-109239482D01*
X126116498Y-109359180D01*
X126175463Y-109469494D01*
X126254815Y-109566185D01*
X126351506Y-109645537D01*
X126461820Y-109704502D01*
X126581518Y-109740812D01*
X126706000Y-109753072D01*
X128706000Y-109753072D01*
X128830482Y-109740812D01*
X128950180Y-109704502D01*
X129060494Y-109645537D01*
X129157185Y-109566185D01*
X129236537Y-109469494D01*
X129295502Y-109359180D01*
X129331812Y-109239482D01*
X129344072Y-109115000D01*
X129344072Y-105515000D01*
X129331812Y-105390518D01*
X129295502Y-105270820D01*
X129236537Y-105160506D01*
X129157185Y-105063815D01*
X129060494Y-104984463D01*
X128950180Y-104925498D01*
X128830482Y-104889188D01*
X128706000Y-104876928D01*
X126706000Y-104876928D01*
X126581518Y-104889188D01*
X126461820Y-104925498D01*
X126351506Y-104984463D01*
X126254815Y-105063815D01*
X126175463Y-105160506D01*
X126116498Y-105270820D01*
X126080188Y-105390518D01*
X126067928Y-105515000D01*
X126067928Y-106258674D01*
X125864363Y-105954017D01*
X125566983Y-105656637D01*
X125217302Y-105422988D01*
X124828756Y-105262047D01*
X124416279Y-105180000D01*
X123995721Y-105180000D01*
X123583244Y-105262047D01*
X123194698Y-105422988D01*
X122845017Y-105656637D01*
X122547637Y-105954017D01*
X122313988Y-106303698D01*
X122153047Y-106692244D01*
X122071000Y-107104721D01*
X121344072Y-107104721D01*
X121344072Y-105515000D01*
X121331812Y-105390518D01*
X121295502Y-105270820D01*
X121236537Y-105160506D01*
X121157185Y-105063815D01*
X121060494Y-104984463D01*
X120950180Y-104925498D01*
X120830482Y-104889188D01*
X120706000Y-104876928D01*
X118706000Y-104876928D01*
X118581518Y-104889188D01*
X118461820Y-104925498D01*
X118351506Y-104984463D01*
X118254815Y-105063815D01*
X118175463Y-105160506D01*
X118116498Y-105270820D01*
X118080188Y-105390518D01*
X118067928Y-105515000D01*
X115628072Y-105515000D01*
X115615812Y-105390518D01*
X115579502Y-105270820D01*
X115520537Y-105160506D01*
X115441185Y-105063815D01*
X115344494Y-104984463D01*
X115234180Y-104925498D01*
X115114482Y-104889188D01*
X114990000Y-104876928D01*
X112990000Y-104876928D01*
X112865518Y-104889188D01*
X112745820Y-104925498D01*
X112635506Y-104984463D01*
X112538815Y-105063815D01*
X112459463Y-105160506D01*
X112400498Y-105270820D01*
X112364188Y-105390518D01*
X112351928Y-105515000D01*
X112351928Y-106258674D01*
X112148363Y-105954017D01*
X111850983Y-105656637D01*
X111501302Y-105422988D01*
X111112756Y-105262047D01*
X110700279Y-105180000D01*
X110279721Y-105180000D01*
X109867244Y-105262047D01*
X109478698Y-105422988D01*
X109129017Y-105656637D01*
X108831637Y-105954017D01*
X108597988Y-106303698D01*
X108437047Y-106692244D01*
X108355000Y-107104721D01*
X107628072Y-107104721D01*
X107628072Y-105515000D01*
X107615812Y-105390518D01*
X107579502Y-105270820D01*
X107520537Y-105160506D01*
X107441185Y-105063815D01*
X107344494Y-104984463D01*
X107234180Y-104925498D01*
X107114482Y-104889188D01*
X106990000Y-104876928D01*
X104990000Y-104876928D01*
X104865518Y-104889188D01*
X104745820Y-104925498D01*
X104635506Y-104984463D01*
X104538815Y-105063815D01*
X104459463Y-105160506D01*
X104400498Y-105270820D01*
X104364188Y-105390518D01*
X104351928Y-105515000D01*
X103928072Y-105515000D01*
X103915812Y-105390518D01*
X103879502Y-105270820D01*
X103820537Y-105160506D01*
X103741185Y-105063815D01*
X103644494Y-104984463D01*
X103534180Y-104925498D01*
X103414482Y-104889188D01*
X103290000Y-104876928D01*
X101290000Y-104876928D01*
X101165518Y-104889188D01*
X101045820Y-104925498D01*
X100935506Y-104984463D01*
X100838815Y-105063815D01*
X100759463Y-105160506D01*
X100700498Y-105270820D01*
X100664188Y-105390518D01*
X100651928Y-105515000D01*
X98939008Y-105515000D01*
X98801302Y-105422988D01*
X98412756Y-105262047D01*
X98000279Y-105180000D01*
X97579721Y-105180000D01*
X97167244Y-105262047D01*
X96778698Y-105422988D01*
X96429017Y-105656637D01*
X96131637Y-105954017D01*
X95928072Y-106258674D01*
X95928072Y-105515000D01*
X95915812Y-105390518D01*
X95879502Y-105270820D01*
X95820537Y-105160506D01*
X95741185Y-105063815D01*
X95644494Y-104984463D01*
X95534180Y-104925498D01*
X95414482Y-104889188D01*
X95290000Y-104876928D01*
X93290000Y-104876928D01*
X93165518Y-104889188D01*
X93045820Y-104925498D01*
X92935506Y-104984463D01*
X92838815Y-105063815D01*
X92759463Y-105160506D01*
X92700498Y-105270820D01*
X92664188Y-105390518D01*
X92651928Y-105515000D01*
X90212072Y-105515000D01*
X90199812Y-105390518D01*
X90163502Y-105270820D01*
X90104537Y-105160506D01*
X90025185Y-105063815D01*
X89928494Y-104984463D01*
X89818180Y-104925498D01*
X89698482Y-104889188D01*
X89574000Y-104876928D01*
X87574000Y-104876928D01*
X87449518Y-104889188D01*
X87329820Y-104925498D01*
X87219506Y-104984463D01*
X87122815Y-105063815D01*
X87043463Y-105160506D01*
X86984498Y-105270820D01*
X86948188Y-105390518D01*
X86935928Y-105515000D01*
X85223008Y-105515000D01*
X85085302Y-105422988D01*
X84696756Y-105262047D01*
X84284279Y-105180000D01*
X83863721Y-105180000D01*
X83451244Y-105262047D01*
X83062698Y-105422988D01*
X82713017Y-105656637D01*
X82415637Y-105954017D01*
X82212072Y-106258674D01*
X82212072Y-105515000D01*
X82199812Y-105390518D01*
X82163502Y-105270820D01*
X82104537Y-105160506D01*
X82025185Y-105063815D01*
X81928494Y-104984463D01*
X81818180Y-104925498D01*
X81698482Y-104889188D01*
X81574000Y-104876928D01*
X79574000Y-104876928D01*
X79449518Y-104889188D01*
X79329820Y-104925498D01*
X79219506Y-104984463D01*
X79122815Y-105063815D01*
X79043463Y-105160506D01*
X78984498Y-105270820D01*
X78948188Y-105390518D01*
X78935928Y-105515000D01*
X76860000Y-105515000D01*
X76860000Y-100990000D01*
X131420001Y-100990000D01*
X131420000Y-126873000D01*
%TA.AperFunction,Conductor*%
D19*
G36*
X131420000Y-126873000D02*
G01*
X93597444Y-126873000D01*
X93625812Y-126779482D01*
X93638072Y-126655000D01*
X93635000Y-126015750D01*
X93476250Y-125857000D01*
X92202000Y-125857000D01*
X92202000Y-125877000D01*
X91948000Y-125877000D01*
X91948000Y-125857000D01*
X91928000Y-125857000D01*
X91928000Y-125603000D01*
X91948000Y-125603000D01*
X91948000Y-124328750D01*
X92202000Y-124328750D01*
X92202000Y-125603000D01*
X93476250Y-125603000D01*
X93635000Y-125444250D01*
X93638072Y-124805000D01*
X93625812Y-124680518D01*
X93589502Y-124560820D01*
X93530537Y-124450506D01*
X93451185Y-124353815D01*
X93354494Y-124274463D01*
X93244180Y-124215498D01*
X93124482Y-124179188D01*
X93000000Y-124166928D01*
X92360750Y-124170000D01*
X92202000Y-124328750D01*
X91948000Y-124328750D01*
X91789250Y-124170000D01*
X91150000Y-124166928D01*
X91025518Y-124179188D01*
X90905820Y-124215498D01*
X90795506Y-124274463D01*
X90698815Y-124353815D01*
X90619463Y-124450506D01*
X90578435Y-124527262D01*
X90569442Y-124518269D01*
X90313937Y-124347546D01*
X90030035Y-124229950D01*
X89728647Y-124170000D01*
X89421353Y-124170000D01*
X89119965Y-124229950D01*
X88836063Y-124347546D01*
X88580558Y-124518269D01*
X88363269Y-124735558D01*
X88192546Y-124991063D01*
X88074950Y-125274965D01*
X88015000Y-125576353D01*
X88015000Y-125883647D01*
X88074950Y-126185035D01*
X88192546Y-126468937D01*
X88363269Y-126724442D01*
X88511827Y-126873000D01*
X76860000Y-126873000D01*
X76860000Y-122960000D01*
X81786928Y-122960000D01*
X81786928Y-125960000D01*
X81799188Y-126084482D01*
X81835498Y-126204180D01*
X81894463Y-126314494D01*
X81973815Y-126411185D01*
X82070506Y-126490537D01*
X82180820Y-126549502D01*
X82300518Y-126585812D01*
X82425000Y-126598072D01*
X85725000Y-126598072D01*
X85849482Y-126585812D01*
X85969180Y-126549502D01*
X86079494Y-126490537D01*
X86176185Y-126411185D01*
X86255537Y-126314494D01*
X86314502Y-126204180D01*
X86350812Y-126084482D01*
X86363072Y-125960000D01*
X86363072Y-122960000D01*
X95501928Y-122960000D01*
X95501928Y-125960000D01*
X95514188Y-126084482D01*
X95550498Y-126204180D01*
X95609463Y-126314494D01*
X95688815Y-126411185D01*
X95785506Y-126490537D01*
X95895820Y-126549502D01*
X96015518Y-126585812D01*
X96140000Y-126598072D01*
X99440000Y-126598072D01*
X99564482Y-126585812D01*
X99684180Y-126549502D01*
X99794494Y-126490537D01*
X99891185Y-126411185D01*
X99970537Y-126314494D01*
X100029502Y-126204180D01*
X100065812Y-126084482D01*
X100078072Y-125960000D01*
X100078072Y-122960000D01*
X100065812Y-122835518D01*
X100029502Y-122715820D01*
X99970537Y-122605506D01*
X99891185Y-122508815D01*
X99794494Y-122429463D01*
X99684180Y-122370498D01*
X99564482Y-122334188D01*
X99440000Y-122321928D01*
X96140000Y-122321928D01*
X96015518Y-122334188D01*
X95895820Y-122370498D01*
X95785506Y-122429463D01*
X95688815Y-122508815D01*
X95609463Y-122605506D01*
X95550498Y-122715820D01*
X95514188Y-122835518D01*
X95501928Y-122960000D01*
X86363072Y-122960000D01*
X86350812Y-122835518D01*
X86314502Y-122715820D01*
X86255537Y-122605506D01*
X86176185Y-122508815D01*
X86079494Y-122429463D01*
X85969180Y-122370498D01*
X85849482Y-122334188D01*
X85725000Y-122321928D01*
X82425000Y-122321928D01*
X82300518Y-122334188D01*
X82180820Y-122370498D01*
X82070506Y-122429463D01*
X81973815Y-122508815D01*
X81894463Y-122605506D01*
X81835498Y-122715820D01*
X81799188Y-122835518D01*
X81786928Y-122960000D01*
X76860000Y-122960000D01*
X76860000Y-117739652D01*
X76912688Y-117818505D01*
X77126495Y-118032312D01*
X77377905Y-118200299D01*
X77657257Y-118316011D01*
X77953816Y-118375000D01*
X78256184Y-118375000D01*
X78552743Y-118316011D01*
X78687964Y-118260000D01*
X81786928Y-118260000D01*
X81786928Y-121260000D01*
X81799188Y-121384482D01*
X81835498Y-121504180D01*
X81894463Y-121614494D01*
X81973815Y-121711185D01*
X82070506Y-121790537D01*
X82180820Y-121849502D01*
X82300518Y-121885812D01*
X82425000Y-121898072D01*
X85725000Y-121898072D01*
X85849482Y-121885812D01*
X85969180Y-121849502D01*
X86079494Y-121790537D01*
X86176185Y-121711185D01*
X86255537Y-121614494D01*
X86314502Y-121504180D01*
X86350812Y-121384482D01*
X86363072Y-121260000D01*
X86363072Y-118260000D01*
X86350812Y-118135518D01*
X86314502Y-118015820D01*
X86255537Y-117905506D01*
X86176185Y-117808815D01*
X86079494Y-117729463D01*
X85969180Y-117670498D01*
X85849482Y-117634188D01*
X85725000Y-117621928D01*
X82425000Y-117621928D01*
X82300518Y-117634188D01*
X82180820Y-117670498D01*
X82070506Y-117729463D01*
X81973815Y-117808815D01*
X81894463Y-117905506D01*
X81835498Y-118015820D01*
X81799188Y-118135518D01*
X81786928Y-118260000D01*
X78687964Y-118260000D01*
X78832095Y-118200299D01*
X79083505Y-118032312D01*
X79297312Y-117818505D01*
X79465299Y-117567095D01*
X79581011Y-117287743D01*
X79640000Y-116991184D01*
X79640000Y-116688816D01*
X79581011Y-116392257D01*
X79465299Y-116112905D01*
X79297312Y-115861495D01*
X79230873Y-115795056D01*
X79249180Y-115789502D01*
X79359494Y-115730537D01*
X79456185Y-115651185D01*
X79535537Y-115554494D01*
X79594502Y-115444180D01*
X79630812Y-115324482D01*
X79643072Y-115200000D01*
X79640000Y-114585750D01*
X79481250Y-114427000D01*
X78232000Y-114427000D01*
X78232000Y-114447000D01*
X77978000Y-114447000D01*
X77978000Y-114427000D01*
X77958000Y-114427000D01*
X77958000Y-114173000D01*
X77978000Y-114173000D01*
X77978000Y-112923750D01*
X78232000Y-112923750D01*
X78232000Y-114173000D01*
X79481250Y-114173000D01*
X79640000Y-114014250D01*
X79642271Y-113560000D01*
X81786928Y-113560000D01*
X81786928Y-116560000D01*
X81799188Y-116684482D01*
X81835498Y-116804180D01*
X81894463Y-116914494D01*
X81973815Y-117011185D01*
X82070506Y-117090537D01*
X82180820Y-117149502D01*
X82300518Y-117185812D01*
X82425000Y-117198072D01*
X85725000Y-117198072D01*
X85849482Y-117185812D01*
X85969180Y-117149502D01*
X86079494Y-117090537D01*
X86176185Y-117011185D01*
X86255537Y-116914494D01*
X86314502Y-116804180D01*
X86350812Y-116684482D01*
X86363072Y-116560000D01*
X86363072Y-115200000D01*
X89901928Y-115200000D01*
X89914188Y-115324482D01*
X89950498Y-115444180D01*
X90009463Y-115554494D01*
X90088815Y-115651185D01*
X90185506Y-115730537D01*
X90295820Y-115789502D01*
X90314127Y-115795056D01*
X90247688Y-115861495D01*
X90079701Y-116112905D01*
X89963989Y-116392257D01*
X89905000Y-116688816D01*
X89905000Y-116991184D01*
X89963989Y-117287743D01*
X90079701Y-117567095D01*
X90247688Y-117818505D01*
X90461495Y-118032312D01*
X90712905Y-118200299D01*
X90992257Y-118316011D01*
X91288816Y-118375000D01*
X91591184Y-118375000D01*
X91887743Y-118316011D01*
X92022964Y-118260000D01*
X95501928Y-118260000D01*
X95501928Y-121260000D01*
X95514188Y-121384482D01*
X95550498Y-121504180D01*
X95609463Y-121614494D01*
X95688815Y-121711185D01*
X95785506Y-121790537D01*
X95895820Y-121849502D01*
X96015518Y-121885812D01*
X96140000Y-121898072D01*
X99440000Y-121898072D01*
X99564482Y-121885812D01*
X99684180Y-121849502D01*
X99794494Y-121790537D01*
X99830000Y-121761398D01*
X99830000Y-121975751D01*
X99846423Y-122142498D01*
X99911324Y-122356446D01*
X100016716Y-122553623D01*
X100158551Y-122726449D01*
X100331377Y-122868284D01*
X100528553Y-122973676D01*
X100742501Y-123038577D01*
X100965000Y-123060491D01*
X101187498Y-123038577D01*
X101401446Y-122973676D01*
X101598623Y-122868284D01*
X101771449Y-122726449D01*
X101913284Y-122553623D01*
X101917500Y-122545735D01*
X101921716Y-122553623D01*
X102063551Y-122726449D01*
X102236377Y-122868284D01*
X102433553Y-122973676D01*
X102647501Y-123038577D01*
X102870000Y-123060491D01*
X103092498Y-123038577D01*
X103306446Y-122973676D01*
X103332032Y-122960000D01*
X108211928Y-122960000D01*
X108211928Y-125960000D01*
X108224188Y-126084482D01*
X108260498Y-126204180D01*
X108319463Y-126314494D01*
X108398815Y-126411185D01*
X108495506Y-126490537D01*
X108605820Y-126549502D01*
X108725518Y-126585812D01*
X108850000Y-126598072D01*
X112150000Y-126598072D01*
X112274482Y-126585812D01*
X112394180Y-126549502D01*
X112504494Y-126490537D01*
X112601185Y-126411185D01*
X112680537Y-126314494D01*
X112739502Y-126204180D01*
X112775812Y-126084482D01*
X112788072Y-125960000D01*
X112788072Y-122960000D01*
X112775812Y-122835518D01*
X112739502Y-122715820D01*
X112680537Y-122605506D01*
X112601185Y-122508815D01*
X112504494Y-122429463D01*
X112394180Y-122370498D01*
X112274482Y-122334188D01*
X112150000Y-122321928D01*
X108850000Y-122321928D01*
X108725518Y-122334188D01*
X108605820Y-122370498D01*
X108495506Y-122429463D01*
X108398815Y-122508815D01*
X108319463Y-122605506D01*
X108260498Y-122715820D01*
X108224188Y-122835518D01*
X108211928Y-122960000D01*
X103332032Y-122960000D01*
X103503623Y-122868284D01*
X103676449Y-122726449D01*
X103818284Y-122553623D01*
X103923676Y-122356447D01*
X103988577Y-122142499D01*
X104005000Y-121975752D01*
X104005000Y-118375000D01*
X104291184Y-118375000D01*
X104587743Y-118316011D01*
X104867095Y-118200299D01*
X105118505Y-118032312D01*
X105332312Y-117818505D01*
X105500299Y-117567095D01*
X105616011Y-117287743D01*
X105675000Y-116991184D01*
X105675000Y-116688816D01*
X105616011Y-116392257D01*
X105500299Y-116112905D01*
X105332312Y-115861495D01*
X105265873Y-115795056D01*
X105284180Y-115789502D01*
X105394494Y-115730537D01*
X105491185Y-115651185D01*
X105570537Y-115554494D01*
X105629502Y-115444180D01*
X105665812Y-115324482D01*
X105678072Y-115200000D01*
X105675000Y-114585750D01*
X105516250Y-114427000D01*
X104267000Y-114427000D01*
X104267000Y-114447000D01*
X104013000Y-114447000D01*
X104013000Y-114427000D01*
X102763750Y-114427000D01*
X102605000Y-114585750D01*
X102601928Y-115200000D01*
X102614188Y-115324482D01*
X102650498Y-115444180D01*
X102709463Y-115554494D01*
X102788815Y-115651185D01*
X102885506Y-115730537D01*
X102995820Y-115789502D01*
X103014127Y-115795056D01*
X102947688Y-115861495D01*
X102779701Y-116112905D01*
X102663989Y-116392257D01*
X102605000Y-116688816D01*
X102605000Y-116991184D01*
X102607463Y-117003569D01*
X102433554Y-117056324D01*
X102236378Y-117161716D01*
X102063552Y-117303551D01*
X101921717Y-117476377D01*
X101917501Y-117484266D01*
X101913284Y-117476377D01*
X101771449Y-117303551D01*
X101598623Y-117161716D01*
X101401447Y-117056324D01*
X101187499Y-116991423D01*
X100965000Y-116969509D01*
X100742502Y-116991423D01*
X100528554Y-117056324D01*
X100331378Y-117161716D01*
X100158552Y-117303551D01*
X100016717Y-117476377D01*
X99911325Y-117673553D01*
X99874458Y-117795087D01*
X99794494Y-117729463D01*
X99684180Y-117670498D01*
X99564482Y-117634188D01*
X99440000Y-117621928D01*
X96140000Y-117621928D01*
X96015518Y-117634188D01*
X95895820Y-117670498D01*
X95785506Y-117729463D01*
X95688815Y-117808815D01*
X95609463Y-117905506D01*
X95550498Y-118015820D01*
X95514188Y-118135518D01*
X95501928Y-118260000D01*
X92022964Y-118260000D01*
X92167095Y-118200299D01*
X92418505Y-118032312D01*
X92632312Y-117818505D01*
X92800299Y-117567095D01*
X92916011Y-117287743D01*
X92975000Y-116991184D01*
X92975000Y-116688816D01*
X92916011Y-116392257D01*
X92800299Y-116112905D01*
X92632312Y-115861495D01*
X92565873Y-115795056D01*
X92584180Y-115789502D01*
X92694494Y-115730537D01*
X92791185Y-115651185D01*
X92870537Y-115554494D01*
X92929502Y-115444180D01*
X92965812Y-115324482D01*
X92978072Y-115200000D01*
X92975000Y-114585750D01*
X92816250Y-114427000D01*
X91567000Y-114427000D01*
X91567000Y-114447000D01*
X91313000Y-114447000D01*
X91313000Y-114427000D01*
X90063750Y-114427000D01*
X89905000Y-114585750D01*
X89901928Y-115200000D01*
X86363072Y-115200000D01*
X86363072Y-113560000D01*
X86350812Y-113435518D01*
X86340038Y-113400000D01*
X89901928Y-113400000D01*
X89905000Y-114014250D01*
X90063750Y-114173000D01*
X91313000Y-114173000D01*
X91313000Y-112923750D01*
X91567000Y-112923750D01*
X91567000Y-114173000D01*
X92816250Y-114173000D01*
X92975000Y-114014250D01*
X92977271Y-113560000D01*
X95501928Y-113560000D01*
X95501928Y-116560000D01*
X95514188Y-116684482D01*
X95550498Y-116804180D01*
X95609463Y-116914494D01*
X95688815Y-117011185D01*
X95785506Y-117090537D01*
X95895820Y-117149502D01*
X96015518Y-117185812D01*
X96140000Y-117198072D01*
X99440000Y-117198072D01*
X99564482Y-117185812D01*
X99684180Y-117149502D01*
X99794494Y-117090537D01*
X99891185Y-117011185D01*
X99970537Y-116914494D01*
X100029502Y-116804180D01*
X100065812Y-116684482D01*
X100078072Y-116560000D01*
X100078072Y-113560000D01*
X100065812Y-113435518D01*
X100055038Y-113400000D01*
X102601928Y-113400000D01*
X102605000Y-114014250D01*
X102763750Y-114173000D01*
X104013000Y-114173000D01*
X104013000Y-112923750D01*
X104267000Y-112923750D01*
X104267000Y-114173000D01*
X105516250Y-114173000D01*
X105675000Y-114014250D01*
X105677271Y-113560000D01*
X108211928Y-113560000D01*
X108211928Y-116560000D01*
X108224188Y-116684482D01*
X108260498Y-116804180D01*
X108319463Y-116914494D01*
X108398815Y-117011185D01*
X108495506Y-117090537D01*
X108605820Y-117149502D01*
X108725518Y-117185812D01*
X108850000Y-117198072D01*
X112150000Y-117198072D01*
X112274482Y-117185812D01*
X112394180Y-117149502D01*
X112504494Y-117090537D01*
X112601185Y-117011185D01*
X112672216Y-116924633D01*
X112611325Y-117038553D01*
X112546424Y-117252501D01*
X112530001Y-117419248D01*
X112530001Y-117750396D01*
X112504494Y-117729463D01*
X112394180Y-117670498D01*
X112274482Y-117634188D01*
X112150000Y-117621928D01*
X108850000Y-117621928D01*
X108725518Y-117634188D01*
X108605820Y-117670498D01*
X108495506Y-117729463D01*
X108398815Y-117808815D01*
X108319463Y-117905506D01*
X108260498Y-118015820D01*
X108224188Y-118135518D01*
X108211928Y-118260000D01*
X108211928Y-121260000D01*
X108224188Y-121384482D01*
X108260498Y-121504180D01*
X108319463Y-121614494D01*
X108398815Y-121711185D01*
X108495506Y-121790537D01*
X108605820Y-121849502D01*
X108725518Y-121885812D01*
X108850000Y-121898072D01*
X112150000Y-121898072D01*
X112274482Y-121885812D01*
X112394180Y-121849502D01*
X112504494Y-121790537D01*
X112530000Y-121769605D01*
X112530000Y-121975751D01*
X112546423Y-122142498D01*
X112611324Y-122356446D01*
X112716716Y-122553623D01*
X112858551Y-122726449D01*
X113031377Y-122868284D01*
X113228553Y-122973676D01*
X113442501Y-123038577D01*
X113665000Y-123060491D01*
X113887498Y-123038577D01*
X114101446Y-122973676D01*
X114298623Y-122868284D01*
X114471449Y-122726449D01*
X114613284Y-122553623D01*
X114617501Y-122545734D01*
X114621717Y-122553623D01*
X114763552Y-122726449D01*
X114936378Y-122868284D01*
X115133554Y-122973676D01*
X115347502Y-123038577D01*
X115570000Y-123060491D01*
X115792499Y-123038577D01*
X116006447Y-122973676D01*
X116032033Y-122960000D01*
X121911928Y-122960000D01*
X121911928Y-125960000D01*
X121924188Y-126084482D01*
X121960498Y-126204180D01*
X122019463Y-126314494D01*
X122098815Y-126411185D01*
X122195506Y-126490537D01*
X122305820Y-126549502D01*
X122425518Y-126585812D01*
X122550000Y-126598072D01*
X125850000Y-126598072D01*
X125974482Y-126585812D01*
X126094180Y-126549502D01*
X126204494Y-126490537D01*
X126301185Y-126411185D01*
X126380537Y-126314494D01*
X126439502Y-126204180D01*
X126475812Y-126084482D01*
X126488072Y-125960000D01*
X126488072Y-122960000D01*
X126475812Y-122835518D01*
X126439502Y-122715820D01*
X126380537Y-122605506D01*
X126301185Y-122508815D01*
X126204494Y-122429463D01*
X126094180Y-122370498D01*
X125974482Y-122334188D01*
X125850000Y-122321928D01*
X122550000Y-122321928D01*
X122425518Y-122334188D01*
X122305820Y-122370498D01*
X122195506Y-122429463D01*
X122098815Y-122508815D01*
X122019463Y-122605506D01*
X121960498Y-122715820D01*
X121924188Y-122835518D01*
X121911928Y-122960000D01*
X116032033Y-122960000D01*
X116203623Y-122868284D01*
X116376449Y-122726449D01*
X116518284Y-122553623D01*
X116623676Y-122356447D01*
X116688577Y-122142499D01*
X116705000Y-121975752D01*
X116705000Y-117459178D01*
X116749701Y-117567095D01*
X116917688Y-117818505D01*
X117131495Y-118032312D01*
X117382905Y-118200299D01*
X117662257Y-118316011D01*
X117958816Y-118375000D01*
X118261184Y-118375000D01*
X118557743Y-118316011D01*
X118692964Y-118260000D01*
X121911928Y-118260000D01*
X121911928Y-121260000D01*
X121924188Y-121384482D01*
X121960498Y-121504180D01*
X122019463Y-121614494D01*
X122098815Y-121711185D01*
X122195506Y-121790537D01*
X122305820Y-121849502D01*
X122425518Y-121885812D01*
X122550000Y-121898072D01*
X125850000Y-121898072D01*
X125974482Y-121885812D01*
X126094180Y-121849502D01*
X126204494Y-121790537D01*
X126301185Y-121711185D01*
X126380537Y-121614494D01*
X126439502Y-121504180D01*
X126475812Y-121384482D01*
X126488072Y-121260000D01*
X126488072Y-118260000D01*
X126475812Y-118135518D01*
X126439502Y-118015820D01*
X126380537Y-117905506D01*
X126301185Y-117808815D01*
X126204494Y-117729463D01*
X126094180Y-117670498D01*
X125974482Y-117634188D01*
X125850000Y-117621928D01*
X122550000Y-117621928D01*
X122425518Y-117634188D01*
X122305820Y-117670498D01*
X122195506Y-117729463D01*
X122098815Y-117808815D01*
X122019463Y-117905506D01*
X121960498Y-118015820D01*
X121924188Y-118135518D01*
X121911928Y-118260000D01*
X118692964Y-118260000D01*
X118837095Y-118200299D01*
X119088505Y-118032312D01*
X119302312Y-117818505D01*
X119470299Y-117567095D01*
X119586011Y-117287743D01*
X119645000Y-116991184D01*
X119645000Y-116688816D01*
X119586011Y-116392257D01*
X119470299Y-116112905D01*
X119302312Y-115861495D01*
X119235873Y-115795056D01*
X119254180Y-115789502D01*
X119364494Y-115730537D01*
X119461185Y-115651185D01*
X119540537Y-115554494D01*
X119599502Y-115444180D01*
X119635812Y-115324482D01*
X119648072Y-115200000D01*
X119645000Y-114585750D01*
X119486250Y-114427000D01*
X118237000Y-114427000D01*
X118237000Y-114447000D01*
X117983000Y-114447000D01*
X117983000Y-114427000D01*
X116733750Y-114427000D01*
X116575000Y-114585750D01*
X116571928Y-115200000D01*
X116584188Y-115324482D01*
X116620498Y-115444180D01*
X116679463Y-115554494D01*
X116758815Y-115651185D01*
X116855506Y-115730537D01*
X116965820Y-115789502D01*
X116984127Y-115795056D01*
X116917688Y-115861495D01*
X116749701Y-116112905D01*
X116633989Y-116392257D01*
X116575000Y-116688816D01*
X116575000Y-116947486D01*
X116518284Y-116841377D01*
X116376449Y-116668551D01*
X116203623Y-116526716D01*
X116006446Y-116421324D01*
X115792498Y-116356423D01*
X115570000Y-116334509D01*
X115347501Y-116356423D01*
X115133553Y-116421324D01*
X114936377Y-116526716D01*
X114763551Y-116668551D01*
X114621716Y-116841377D01*
X114617500Y-116849265D01*
X114613284Y-116841377D01*
X114471449Y-116668551D01*
X114298623Y-116526716D01*
X114101447Y-116421324D01*
X113887499Y-116356423D01*
X113665000Y-116334509D01*
X113442502Y-116356423D01*
X113228554Y-116421324D01*
X113031378Y-116526716D01*
X112858552Y-116668551D01*
X112725041Y-116831234D01*
X112739502Y-116804180D01*
X112775812Y-116684482D01*
X112788072Y-116560000D01*
X112788072Y-113560000D01*
X112775812Y-113435518D01*
X112765038Y-113400000D01*
X116571928Y-113400000D01*
X116575000Y-114014250D01*
X116733750Y-114173000D01*
X117983000Y-114173000D01*
X117983000Y-112923750D01*
X118237000Y-112923750D01*
X118237000Y-114173000D01*
X119486250Y-114173000D01*
X119645000Y-114014250D01*
X119647271Y-113560000D01*
X121911928Y-113560000D01*
X121911928Y-116560000D01*
X121924188Y-116684482D01*
X121960498Y-116804180D01*
X122019463Y-116914494D01*
X122098815Y-117011185D01*
X122195506Y-117090537D01*
X122305820Y-117149502D01*
X122425518Y-117185812D01*
X122550000Y-117198072D01*
X125850000Y-117198072D01*
X125974482Y-117185812D01*
X126094180Y-117149502D01*
X126204494Y-117090537D01*
X126301185Y-117011185D01*
X126380537Y-116914494D01*
X126439502Y-116804180D01*
X126475812Y-116684482D01*
X126488072Y-116560000D01*
X126488072Y-113560000D01*
X126475812Y-113435518D01*
X126439502Y-113315820D01*
X126380537Y-113205506D01*
X126301185Y-113108815D01*
X126204494Y-113029463D01*
X126094180Y-112970498D01*
X125974482Y-112934188D01*
X125850000Y-112921928D01*
X122550000Y-112921928D01*
X122425518Y-112934188D01*
X122305820Y-112970498D01*
X122195506Y-113029463D01*
X122098815Y-113108815D01*
X122019463Y-113205506D01*
X121960498Y-113315820D01*
X121924188Y-113435518D01*
X121911928Y-113560000D01*
X119647271Y-113560000D01*
X119648072Y-113400000D01*
X119635812Y-113275518D01*
X119599502Y-113155820D01*
X119540537Y-113045506D01*
X119461185Y-112948815D01*
X119364494Y-112869463D01*
X119254180Y-112810498D01*
X119134482Y-112774188D01*
X119010000Y-112761928D01*
X118395750Y-112765000D01*
X118237000Y-112923750D01*
X117983000Y-112923750D01*
X117824250Y-112765000D01*
X117210000Y-112761928D01*
X117085518Y-112774188D01*
X116965820Y-112810498D01*
X116855506Y-112869463D01*
X116758815Y-112948815D01*
X116679463Y-113045506D01*
X116620498Y-113155820D01*
X116584188Y-113275518D01*
X116571928Y-113400000D01*
X112765038Y-113400000D01*
X112739502Y-113315820D01*
X112680537Y-113205506D01*
X112601185Y-113108815D01*
X112504494Y-113029463D01*
X112394180Y-112970498D01*
X112274482Y-112934188D01*
X112150000Y-112921928D01*
X108850000Y-112921928D01*
X108725518Y-112934188D01*
X108605820Y-112970498D01*
X108495506Y-113029463D01*
X108398815Y-113108815D01*
X108319463Y-113205506D01*
X108260498Y-113315820D01*
X108224188Y-113435518D01*
X108211928Y-113560000D01*
X105677271Y-113560000D01*
X105678072Y-113400000D01*
X105665812Y-113275518D01*
X105629502Y-113155820D01*
X105570537Y-113045506D01*
X105491185Y-112948815D01*
X105394494Y-112869463D01*
X105284180Y-112810498D01*
X105164482Y-112774188D01*
X105040000Y-112761928D01*
X104425750Y-112765000D01*
X104267000Y-112923750D01*
X104013000Y-112923750D01*
X103854250Y-112765000D01*
X103240000Y-112761928D01*
X103115518Y-112774188D01*
X102995820Y-112810498D01*
X102885506Y-112869463D01*
X102788815Y-112948815D01*
X102709463Y-113045506D01*
X102650498Y-113155820D01*
X102614188Y-113275518D01*
X102601928Y-113400000D01*
X100055038Y-113400000D01*
X100029502Y-113315820D01*
X99970537Y-113205506D01*
X99891185Y-113108815D01*
X99794494Y-113029463D01*
X99684180Y-112970498D01*
X99564482Y-112934188D01*
X99440000Y-112921928D01*
X96140000Y-112921928D01*
X96015518Y-112934188D01*
X95895820Y-112970498D01*
X95785506Y-113029463D01*
X95688815Y-113108815D01*
X95609463Y-113205506D01*
X95550498Y-113315820D01*
X95514188Y-113435518D01*
X95501928Y-113560000D01*
X92977271Y-113560000D01*
X92978072Y-113400000D01*
X92965812Y-113275518D01*
X92929502Y-113155820D01*
X92870537Y-113045506D01*
X92791185Y-112948815D01*
X92694494Y-112869463D01*
X92584180Y-112810498D01*
X92464482Y-112774188D01*
X92340000Y-112761928D01*
X91725750Y-112765000D01*
X91567000Y-112923750D01*
X91313000Y-112923750D01*
X91154250Y-112765000D01*
X90540000Y-112761928D01*
X90415518Y-112774188D01*
X90295820Y-112810498D01*
X90185506Y-112869463D01*
X90088815Y-112948815D01*
X90009463Y-113045506D01*
X89950498Y-113155820D01*
X89914188Y-113275518D01*
X89901928Y-113400000D01*
X86340038Y-113400000D01*
X86314502Y-113315820D01*
X86255537Y-113205506D01*
X86176185Y-113108815D01*
X86079494Y-113029463D01*
X85969180Y-112970498D01*
X85849482Y-112934188D01*
X85725000Y-112921928D01*
X82425000Y-112921928D01*
X82300518Y-112934188D01*
X82180820Y-112970498D01*
X82070506Y-113029463D01*
X81973815Y-113108815D01*
X81894463Y-113205506D01*
X81835498Y-113315820D01*
X81799188Y-113435518D01*
X81786928Y-113560000D01*
X79642271Y-113560000D01*
X79643072Y-113400000D01*
X79630812Y-113275518D01*
X79594502Y-113155820D01*
X79535537Y-113045506D01*
X79456185Y-112948815D01*
X79359494Y-112869463D01*
X79249180Y-112810498D01*
X79129482Y-112774188D01*
X79005000Y-112761928D01*
X78390750Y-112765000D01*
X78232000Y-112923750D01*
X77978000Y-112923750D01*
X77819250Y-112765000D01*
X77205000Y-112761928D01*
X77080518Y-112774188D01*
X76960820Y-112810498D01*
X76860000Y-112864388D01*
X76860000Y-105515000D01*
X78935928Y-105515000D01*
X78935928Y-109115000D01*
X78948188Y-109239482D01*
X78984498Y-109359180D01*
X79043463Y-109469494D01*
X79122815Y-109566185D01*
X79219506Y-109645537D01*
X79329820Y-109704502D01*
X79449518Y-109740812D01*
X79574000Y-109753072D01*
X81574000Y-109753072D01*
X81698482Y-109740812D01*
X81818180Y-109704502D01*
X81928494Y-109645537D01*
X82025185Y-109566185D01*
X82104537Y-109469494D01*
X82163502Y-109359180D01*
X82199812Y-109239482D01*
X82212072Y-109115000D01*
X82212072Y-108371326D01*
X82415637Y-108675983D01*
X82713017Y-108973363D01*
X83062698Y-109207012D01*
X83451244Y-109367953D01*
X83863721Y-109450000D01*
X84284279Y-109450000D01*
X84696756Y-109367953D01*
X85085302Y-109207012D01*
X85434983Y-108973363D01*
X85732363Y-108675983D01*
X85966012Y-108326302D01*
X86126953Y-107937756D01*
X86209000Y-107525279D01*
X86209000Y-107104721D01*
X86126953Y-106692244D01*
X85966012Y-106303698D01*
X85732363Y-105954017D01*
X85434983Y-105656637D01*
X85223008Y-105515000D01*
X86935928Y-105515000D01*
X86935928Y-109115000D01*
X86948188Y-109239482D01*
X86984498Y-109359180D01*
X87043463Y-109469494D01*
X87122815Y-109566185D01*
X87219506Y-109645537D01*
X87329820Y-109704502D01*
X87449518Y-109740812D01*
X87574000Y-109753072D01*
X89574000Y-109753072D01*
X89698482Y-109740812D01*
X89818180Y-109704502D01*
X89928494Y-109645537D01*
X90025185Y-109566185D01*
X90104537Y-109469494D01*
X90163502Y-109359180D01*
X90199812Y-109239482D01*
X90212072Y-109115000D01*
X90212072Y-105515000D01*
X92651928Y-105515000D01*
X92651928Y-109115000D01*
X92664188Y-109239482D01*
X92700498Y-109359180D01*
X92759463Y-109469494D01*
X92838815Y-109566185D01*
X92935506Y-109645537D01*
X93045820Y-109704502D01*
X93165518Y-109740812D01*
X93290000Y-109753072D01*
X95290000Y-109753072D01*
X95414482Y-109740812D01*
X95534180Y-109704502D01*
X95644494Y-109645537D01*
X95741185Y-109566185D01*
X95820537Y-109469494D01*
X95879502Y-109359180D01*
X95915812Y-109239482D01*
X95928072Y-109115000D01*
X95928072Y-108371326D01*
X96131637Y-108675983D01*
X96429017Y-108973363D01*
X96778698Y-109207012D01*
X97167244Y-109367953D01*
X97579721Y-109450000D01*
X98000279Y-109450000D01*
X98412756Y-109367953D01*
X98801302Y-109207012D01*
X99150983Y-108973363D01*
X99448363Y-108675983D01*
X99682012Y-108326302D01*
X99842953Y-107937756D01*
X99925000Y-107525279D01*
X99925000Y-107104721D01*
X99842953Y-106692244D01*
X99682012Y-106303698D01*
X99448363Y-105954017D01*
X99150983Y-105656637D01*
X98939008Y-105515000D01*
X100651928Y-105515000D01*
X100651928Y-109115000D01*
X100664188Y-109239482D01*
X100700498Y-109359180D01*
X100759463Y-109469494D01*
X100838815Y-109566185D01*
X100935506Y-109645537D01*
X101045820Y-109704502D01*
X101165518Y-109740812D01*
X101290000Y-109753072D01*
X103290000Y-109753072D01*
X103414482Y-109740812D01*
X103534180Y-109704502D01*
X103644494Y-109645537D01*
X103741185Y-109566185D01*
X103820537Y-109469494D01*
X103879502Y-109359180D01*
X103915812Y-109239482D01*
X103928072Y-109115000D01*
X103928072Y-105515000D01*
X104351928Y-105515000D01*
X104351928Y-109115000D01*
X104364188Y-109239482D01*
X104400498Y-109359180D01*
X104459463Y-109469494D01*
X104538815Y-109566185D01*
X104635506Y-109645537D01*
X104745820Y-109704502D01*
X104865518Y-109740812D01*
X104990000Y-109753072D01*
X106990000Y-109753072D01*
X107114482Y-109740812D01*
X107234180Y-109704502D01*
X107344494Y-109645537D01*
X107441185Y-109566185D01*
X107520537Y-109469494D01*
X107579502Y-109359180D01*
X107615812Y-109239482D01*
X107628072Y-109115000D01*
X107628072Y-107104721D01*
X108355000Y-107104721D01*
X108355000Y-107525279D01*
X108437047Y-107937756D01*
X108597988Y-108326302D01*
X108831637Y-108675983D01*
X109129017Y-108973363D01*
X109478698Y-109207012D01*
X109867244Y-109367953D01*
X110279721Y-109450000D01*
X110700279Y-109450000D01*
X111112756Y-109367953D01*
X111501302Y-109207012D01*
X111850983Y-108973363D01*
X112148363Y-108675983D01*
X112351928Y-108371326D01*
X112351928Y-109115000D01*
X112364188Y-109239482D01*
X112400498Y-109359180D01*
X112459463Y-109469494D01*
X112538815Y-109566185D01*
X112635506Y-109645537D01*
X112745820Y-109704502D01*
X112865518Y-109740812D01*
X112990000Y-109753072D01*
X114990000Y-109753072D01*
X115114482Y-109740812D01*
X115234180Y-109704502D01*
X115344494Y-109645537D01*
X115441185Y-109566185D01*
X115520537Y-109469494D01*
X115579502Y-109359180D01*
X115615812Y-109239482D01*
X115628072Y-109115000D01*
X115628072Y-105515000D01*
X118067928Y-105515000D01*
X118067928Y-109115000D01*
X118080188Y-109239482D01*
X118116498Y-109359180D01*
X118175463Y-109469494D01*
X118254815Y-109566185D01*
X118351506Y-109645537D01*
X118461820Y-109704502D01*
X118581518Y-109740812D01*
X118706000Y-109753072D01*
X120706000Y-109753072D01*
X120830482Y-109740812D01*
X120950180Y-109704502D01*
X121060494Y-109645537D01*
X121157185Y-109566185D01*
X121236537Y-109469494D01*
X121295502Y-109359180D01*
X121331812Y-109239482D01*
X121344072Y-109115000D01*
X121344072Y-107104721D01*
X122071000Y-107104721D01*
X122071000Y-107525279D01*
X122153047Y-107937756D01*
X122313988Y-108326302D01*
X122547637Y-108675983D01*
X122845017Y-108973363D01*
X123194698Y-109207012D01*
X123583244Y-109367953D01*
X123995721Y-109450000D01*
X124416279Y-109450000D01*
X124828756Y-109367953D01*
X125217302Y-109207012D01*
X125566983Y-108973363D01*
X125864363Y-108675983D01*
X126067928Y-108371326D01*
X126067928Y-109115000D01*
X126080188Y-109239482D01*
X126116498Y-109359180D01*
X126175463Y-109469494D01*
X126254815Y-109566185D01*
X126351506Y-109645537D01*
X126461820Y-109704502D01*
X126581518Y-109740812D01*
X126706000Y-109753072D01*
X128706000Y-109753072D01*
X128830482Y-109740812D01*
X128950180Y-109704502D01*
X129060494Y-109645537D01*
X129157185Y-109566185D01*
X129236537Y-109469494D01*
X129295502Y-109359180D01*
X129331812Y-109239482D01*
X129344072Y-109115000D01*
X129344072Y-105515000D01*
X129331812Y-105390518D01*
X129295502Y-105270820D01*
X129236537Y-105160506D01*
X129157185Y-105063815D01*
X129060494Y-104984463D01*
X128950180Y-104925498D01*
X128830482Y-104889188D01*
X128706000Y-104876928D01*
X126706000Y-104876928D01*
X126581518Y-104889188D01*
X126461820Y-104925498D01*
X126351506Y-104984463D01*
X126254815Y-105063815D01*
X126175463Y-105160506D01*
X126116498Y-105270820D01*
X126080188Y-105390518D01*
X126067928Y-105515000D01*
X126067928Y-106258674D01*
X125864363Y-105954017D01*
X125566983Y-105656637D01*
X125217302Y-105422988D01*
X124828756Y-105262047D01*
X124416279Y-105180000D01*
X123995721Y-105180000D01*
X123583244Y-105262047D01*
X123194698Y-105422988D01*
X122845017Y-105656637D01*
X122547637Y-105954017D01*
X122313988Y-106303698D01*
X122153047Y-106692244D01*
X122071000Y-107104721D01*
X121344072Y-107104721D01*
X121344072Y-105515000D01*
X121331812Y-105390518D01*
X121295502Y-105270820D01*
X121236537Y-105160506D01*
X121157185Y-105063815D01*
X121060494Y-104984463D01*
X120950180Y-104925498D01*
X120830482Y-104889188D01*
X120706000Y-104876928D01*
X118706000Y-104876928D01*
X118581518Y-104889188D01*
X118461820Y-104925498D01*
X118351506Y-104984463D01*
X118254815Y-105063815D01*
X118175463Y-105160506D01*
X118116498Y-105270820D01*
X118080188Y-105390518D01*
X118067928Y-105515000D01*
X115628072Y-105515000D01*
X115615812Y-105390518D01*
X115579502Y-105270820D01*
X115520537Y-105160506D01*
X115441185Y-105063815D01*
X115344494Y-104984463D01*
X115234180Y-104925498D01*
X115114482Y-104889188D01*
X114990000Y-104876928D01*
X112990000Y-104876928D01*
X112865518Y-104889188D01*
X112745820Y-104925498D01*
X112635506Y-104984463D01*
X112538815Y-105063815D01*
X112459463Y-105160506D01*
X112400498Y-105270820D01*
X112364188Y-105390518D01*
X112351928Y-105515000D01*
X112351928Y-106258674D01*
X112148363Y-105954017D01*
X111850983Y-105656637D01*
X111501302Y-105422988D01*
X111112756Y-105262047D01*
X110700279Y-105180000D01*
X110279721Y-105180000D01*
X109867244Y-105262047D01*
X109478698Y-105422988D01*
X109129017Y-105656637D01*
X108831637Y-105954017D01*
X108597988Y-106303698D01*
X108437047Y-106692244D01*
X108355000Y-107104721D01*
X107628072Y-107104721D01*
X107628072Y-105515000D01*
X107615812Y-105390518D01*
X107579502Y-105270820D01*
X107520537Y-105160506D01*
X107441185Y-105063815D01*
X107344494Y-104984463D01*
X107234180Y-104925498D01*
X107114482Y-104889188D01*
X106990000Y-104876928D01*
X104990000Y-104876928D01*
X104865518Y-104889188D01*
X104745820Y-104925498D01*
X104635506Y-104984463D01*
X104538815Y-105063815D01*
X104459463Y-105160506D01*
X104400498Y-105270820D01*
X104364188Y-105390518D01*
X104351928Y-105515000D01*
X103928072Y-105515000D01*
X103915812Y-105390518D01*
X103879502Y-105270820D01*
X103820537Y-105160506D01*
X103741185Y-105063815D01*
X103644494Y-104984463D01*
X103534180Y-104925498D01*
X103414482Y-104889188D01*
X103290000Y-104876928D01*
X101290000Y-104876928D01*
X101165518Y-104889188D01*
X101045820Y-104925498D01*
X100935506Y-104984463D01*
X100838815Y-105063815D01*
X100759463Y-105160506D01*
X100700498Y-105270820D01*
X100664188Y-105390518D01*
X100651928Y-105515000D01*
X98939008Y-105515000D01*
X98801302Y-105422988D01*
X98412756Y-105262047D01*
X98000279Y-105180000D01*
X97579721Y-105180000D01*
X97167244Y-105262047D01*
X96778698Y-105422988D01*
X96429017Y-105656637D01*
X96131637Y-105954017D01*
X95928072Y-106258674D01*
X95928072Y-105515000D01*
X95915812Y-105390518D01*
X95879502Y-105270820D01*
X95820537Y-105160506D01*
X95741185Y-105063815D01*
X95644494Y-104984463D01*
X95534180Y-104925498D01*
X95414482Y-104889188D01*
X95290000Y-104876928D01*
X93290000Y-104876928D01*
X93165518Y-104889188D01*
X93045820Y-104925498D01*
X92935506Y-104984463D01*
X92838815Y-105063815D01*
X92759463Y-105160506D01*
X92700498Y-105270820D01*
X92664188Y-105390518D01*
X92651928Y-105515000D01*
X90212072Y-105515000D01*
X90199812Y-105390518D01*
X90163502Y-105270820D01*
X90104537Y-105160506D01*
X90025185Y-105063815D01*
X89928494Y-104984463D01*
X89818180Y-104925498D01*
X89698482Y-104889188D01*
X89574000Y-104876928D01*
X87574000Y-104876928D01*
X87449518Y-104889188D01*
X87329820Y-104925498D01*
X87219506Y-104984463D01*
X87122815Y-105063815D01*
X87043463Y-105160506D01*
X86984498Y-105270820D01*
X86948188Y-105390518D01*
X86935928Y-105515000D01*
X85223008Y-105515000D01*
X85085302Y-105422988D01*
X84696756Y-105262047D01*
X84284279Y-105180000D01*
X83863721Y-105180000D01*
X83451244Y-105262047D01*
X83062698Y-105422988D01*
X82713017Y-105656637D01*
X82415637Y-105954017D01*
X82212072Y-106258674D01*
X82212072Y-105515000D01*
X82199812Y-105390518D01*
X82163502Y-105270820D01*
X82104537Y-105160506D01*
X82025185Y-105063815D01*
X81928494Y-104984463D01*
X81818180Y-104925498D01*
X81698482Y-104889188D01*
X81574000Y-104876928D01*
X79574000Y-104876928D01*
X79449518Y-104889188D01*
X79329820Y-104925498D01*
X79219506Y-104984463D01*
X79122815Y-105063815D01*
X79043463Y-105160506D01*
X78984498Y-105270820D01*
X78948188Y-105390518D01*
X78935928Y-105515000D01*
X76860000Y-105515000D01*
X76860000Y-100990000D01*
X131420001Y-100990000D01*
X131420000Y-126873000D01*
G37*
%TD.AperFunction*%
%TD*%
M02*
