M48
; DRILL file {KiCad (5.1.9)-1} date 03/02/21 23:28:35
; FORMAT={-:-/ absolute / inch / decimal}
; #@! TF.CreationDate,2021-03-02T23:28:35+00:00
; #@! TF.GenerationSoftware,Kicad,Pcbnew,(5.1.9)-1
FMAT,2
INCH
T1C0.0157
T2C0.0315
T3C0.0354
T4C0.0472
T5C0.1181
%
G90
G05
T1
X3.1Y-4.35
X3.65Y-4.35
X3.975Y-4.65
X3.975Y-4.8
X4.05Y-4.65
X4.05Y-4.8
X4.475Y-4.625
X4.475Y-4.8
X4.55Y-4.35
X4.55Y-4.625
X4.55Y-4.8
X4.55Y-4.8
X5.1Y-4.35
T3
X3.075Y-4.5
X3.075Y-4.6
X3.5266Y-4.95
X3.6Y-4.5
X3.6Y-4.6
X3.625Y-4.95
X4.1Y-4.5
X4.1Y-4.6
X4.65Y-4.5
X4.65Y-4.6
T5
X3.31Y-4.225
X3.85Y-4.225
X4.35Y-4.225
X4.89Y-4.225
T2
G00X3.1722Y-4.1896
M15
G01X3.1722Y-4.2604
M16
G05
G00X3.4872Y-4.1896
M15
G01X3.4872Y-4.2604
M16
G05
G00X3.7122Y-4.1896
M15
G01X3.7122Y-4.2604
M16
G05
G00X4.0272Y-4.1896
M15
G01X4.0272Y-4.2604
M16
G05
G00X4.1728Y-4.2604
M15
G01X4.1728Y-4.1896
M16
G05
G00X4.4878Y-4.2604
M15
G01X4.4878Y-4.1896
M16
G05
G00X4.7128Y-4.2604
M15
G01X4.7128Y-4.1896
M16
G05
G00X5.0278Y-4.2604
M15
G01X5.0278Y-4.1896
M16
G05
T4
G00X3.3356Y-4.5299
M15
G01X3.2844Y-4.5299
M16
G05
G00X3.3356Y-4.715
M15
G01X3.2844Y-4.715
M16
G05
G00X3.3356Y-4.9
M15
G01X3.2844Y-4.9
M16
G05
G00X3.8756Y-4.5299
M15
G01X3.8244Y-4.5299
M16
G05
G00X3.8756Y-4.715
M15
G01X3.8244Y-4.715
M16
G05
G00X3.8756Y-4.9
M15
G01X3.8244Y-4.9
M16
G05
G00X4.376Y-4.5299
M15
G01X4.3248Y-4.5299
M16
G05
G00X4.376Y-4.715
M15
G01X4.3248Y-4.715
M16
G05
G00X4.376Y-4.9
M15
G01X4.3248Y-4.9
M16
G05
G00X4.9154Y-4.5299
M15
G01X4.8642Y-4.5299
M16
G05
G00X4.9154Y-4.715
M15
G01X4.8642Y-4.715
M16
G05
G00X4.9154Y-4.9
M15
G01X4.8642Y-4.9
M16
G05
T0
M30
