%TF.GenerationSoftware,KiCad,Pcbnew,(5.1.9)-1*%
%TF.CreationDate,2021-03-02T23:28:56+00:00*%
%TF.ProjectId,Four Power Outlet,466f7572-2050-46f7-9765-72204f75746c,rev?*%
%TF.SameCoordinates,Original*%
%TF.FileFunction,Legend,Top*%
%TF.FilePolarity,Positive*%
%FSLAX46Y46*%
G04 Gerber Fmt 4.6, Leading zero omitted, Abs format (unit mm)*
G04 Created by KiCad (PCBNEW (5.1.9)-1) date 2021-03-02 23:28:56*
%MOMM*%
%LPD*%
G01*
G04 APERTURE LIST*
%ADD10C,0.300000*%
%ADD11C,0.150000*%
%ADD12C,0.120000*%
%ADD13C,0.127000*%
%ADD14C,0.100000*%
%ADD15C,0.101600*%
G04 APERTURE END LIST*
D10*
X110197428Y-101278571D02*
X110197428Y-102278571D01*
X109840285Y-100707142D02*
X109483142Y-101778571D01*
X110411714Y-101778571D01*
X112126000Y-102278571D02*
X112126000Y-100778571D01*
X112697428Y-100778571D01*
X112840285Y-100850000D01*
X112911714Y-100921428D01*
X112983142Y-101064285D01*
X112983142Y-101278571D01*
X112911714Y-101421428D01*
X112840285Y-101492857D01*
X112697428Y-101564285D01*
X112126000Y-101564285D01*
X113911714Y-100778571D02*
X114197428Y-100778571D01*
X114340285Y-100850000D01*
X114483142Y-100992857D01*
X114554571Y-101278571D01*
X114554571Y-101778571D01*
X114483142Y-102064285D01*
X114340285Y-102207142D01*
X114197428Y-102278571D01*
X113911714Y-102278571D01*
X113768857Y-102207142D01*
X113626000Y-102064285D01*
X113554571Y-101778571D01*
X113554571Y-101278571D01*
X113626000Y-100992857D01*
X113768857Y-100850000D01*
X113911714Y-100778571D01*
X115054571Y-100778571D02*
X115411714Y-102278571D01*
X115697428Y-101207142D01*
X115983142Y-102278571D01*
X116340285Y-100778571D01*
X116911714Y-101492857D02*
X117411714Y-101492857D01*
X117626000Y-102278571D02*
X116911714Y-102278571D01*
X116911714Y-100778571D01*
X117626000Y-100778571D01*
X119126000Y-102278571D02*
X118626000Y-101564285D01*
X118268857Y-102278571D02*
X118268857Y-100778571D01*
X118840285Y-100778571D01*
X118983142Y-100850000D01*
X119054571Y-100921428D01*
X119126000Y-101064285D01*
X119126000Y-101278571D01*
X119054571Y-101421428D01*
X118983142Y-101492857D01*
X118840285Y-101564285D01*
X118268857Y-101564285D01*
X121197428Y-100778571D02*
X121483142Y-100778571D01*
X121626000Y-100850000D01*
X121768857Y-100992857D01*
X121840285Y-101278571D01*
X121840285Y-101778571D01*
X121768857Y-102064285D01*
X121626000Y-102207142D01*
X121483142Y-102278571D01*
X121197428Y-102278571D01*
X121054571Y-102207142D01*
X120911714Y-102064285D01*
X120840285Y-101778571D01*
X120840285Y-101278571D01*
X120911714Y-100992857D01*
X121054571Y-100850000D01*
X121197428Y-100778571D01*
X122483142Y-100778571D02*
X122483142Y-101992857D01*
X122554571Y-102135714D01*
X122626000Y-102207142D01*
X122768857Y-102278571D01*
X123054571Y-102278571D01*
X123197428Y-102207142D01*
X123268857Y-102135714D01*
X123340285Y-101992857D01*
X123340285Y-100778571D01*
X123840285Y-100778571D02*
X124697428Y-100778571D01*
X124268857Y-102278571D02*
X124268857Y-100778571D01*
X125197428Y-102278571D02*
X125197428Y-100778571D01*
X125768857Y-100778571D01*
X125911714Y-100850000D01*
X125983142Y-100921428D01*
X126054571Y-101064285D01*
X126054571Y-101278571D01*
X125983142Y-101421428D01*
X125911714Y-101492857D01*
X125768857Y-101564285D01*
X125197428Y-101564285D01*
X126697428Y-100778571D02*
X126697428Y-101992857D01*
X126768857Y-102135714D01*
X126840285Y-102207142D01*
X126983142Y-102278571D01*
X127268857Y-102278571D01*
X127411714Y-102207142D01*
X127483142Y-102135714D01*
X127554571Y-101992857D01*
X127554571Y-100778571D01*
X128054571Y-100778571D02*
X128911714Y-100778571D01*
X128483142Y-102278571D02*
X128483142Y-100778571D01*
D11*
X88662142Y-123896428D02*
X89424047Y-123896428D01*
X89043095Y-124277380D02*
X89043095Y-123515476D01*
X92185952Y-123896428D02*
X92947857Y-123896428D01*
D12*
%TO.C,J1*%
X95025000Y-123080000D02*
X92525000Y-123080000D01*
X95025000Y-125580000D02*
X95025000Y-123080000D01*
X87925000Y-124880000D02*
X87925000Y-123380000D01*
X86925000Y-124880000D02*
X87925000Y-124880000D01*
X93725000Y-124880000D02*
X93725000Y-123380000D01*
X94725000Y-124880000D02*
X93725000Y-124880000D01*
X87425000Y-125730000D02*
X86925000Y-125730000D01*
X87425000Y-126980000D02*
X87425000Y-125730000D01*
X94225000Y-126980000D02*
X87425000Y-126980000D01*
X94225000Y-125730000D02*
X94225000Y-126980000D01*
X94725000Y-125730000D02*
X94225000Y-125730000D01*
X86925000Y-127480000D02*
X94725000Y-127480000D01*
X86925000Y-123380000D02*
X86925000Y-127480000D01*
X94725000Y-123380000D02*
X86925000Y-123380000D01*
X94725000Y-127480000D02*
X94725000Y-123380000D01*
D11*
%TO.C,SW4*%
X80075000Y-126460000D02*
X88075000Y-126460000D01*
X88075000Y-126460000D02*
X88075000Y-113260000D01*
X88075000Y-113260000D02*
X80075000Y-113260000D01*
X80075000Y-113260000D02*
X80075000Y-126460000D01*
D12*
%TO.C,R1*%
X117230000Y-124425000D02*
X117230000Y-123225000D01*
X118990000Y-123225000D02*
X118990000Y-124425000D01*
D11*
%TO.C,SW3*%
X93790000Y-126460000D02*
X101790000Y-126460000D01*
X101790000Y-126460000D02*
X101790000Y-113260000D01*
X101790000Y-113260000D02*
X93790000Y-113260000D01*
X93790000Y-113260000D02*
X93790000Y-126460000D01*
%TO.C,SW2*%
X106500000Y-126460000D02*
X114500000Y-126460000D01*
X114500000Y-126460000D02*
X114500000Y-113260000D01*
X114500000Y-113260000D02*
X106500000Y-113260000D01*
X106500000Y-113260000D02*
X106500000Y-126460000D01*
%TO.C,SW1*%
X120200000Y-126460000D02*
X128200000Y-126460000D01*
X128200000Y-126460000D02*
X128200000Y-113260000D01*
X128200000Y-113260000D02*
X120200000Y-113260000D01*
X120200000Y-113260000D02*
X120200000Y-126460000D01*
D12*
%TO.C,R4*%
X77860000Y-123790000D02*
X77860000Y-122590000D01*
X79620000Y-122590000D02*
X79620000Y-123790000D01*
%TO.C,R3*%
X90205000Y-118500000D02*
X91405000Y-118500000D01*
X91405000Y-120260000D02*
X90205000Y-120260000D01*
%TO.C,R2*%
X104530000Y-124345000D02*
X104530000Y-123145000D01*
X106290000Y-123145000D02*
X106290000Y-124345000D01*
D13*
%TO.C,J5*%
X77074000Y-109315000D02*
X77074000Y-105315000D01*
X77074000Y-109315000D02*
X79574000Y-109315000D01*
X77374000Y-105315000D02*
X77074000Y-105315000D01*
X79574000Y-105315000D02*
X77402000Y-105315000D01*
X87074000Y-109565000D02*
X90074000Y-109565000D01*
X87074000Y-105065000D02*
X87074000Y-109565000D01*
X90074000Y-105065000D02*
X87074000Y-105065000D01*
X79574000Y-111815000D02*
X90074000Y-111815000D01*
X79574000Y-109315000D02*
X79574000Y-111815000D01*
X79574000Y-102815000D02*
X79574000Y-105315000D01*
X90074000Y-102815000D02*
X79574000Y-102815000D01*
X90074000Y-108815000D02*
X90074000Y-111815000D01*
X90074000Y-105815000D02*
X90074000Y-108815000D01*
X90074000Y-102815000D02*
X90074000Y-105815000D01*
%TO.C,J4*%
X90790000Y-109315000D02*
X90790000Y-105315000D01*
X90790000Y-109315000D02*
X93290000Y-109315000D01*
X91090000Y-105315000D02*
X90790000Y-105315000D01*
X93290000Y-105315000D02*
X91118000Y-105315000D01*
X100790000Y-109565000D02*
X103790000Y-109565000D01*
X100790000Y-105065000D02*
X100790000Y-109565000D01*
X103790000Y-105065000D02*
X100790000Y-105065000D01*
X93290000Y-111815000D02*
X103790000Y-111815000D01*
X93290000Y-109315000D02*
X93290000Y-111815000D01*
X93290000Y-102815000D02*
X93290000Y-105315000D01*
X103790000Y-102815000D02*
X93290000Y-102815000D01*
X103790000Y-108815000D02*
X103790000Y-111815000D01*
X103790000Y-105815000D02*
X103790000Y-108815000D01*
X103790000Y-102815000D02*
X103790000Y-105815000D01*
%TO.C,J3*%
X117490000Y-105315000D02*
X117490000Y-109315000D01*
X117490000Y-105315000D02*
X114990000Y-105315000D01*
X117190000Y-109315000D02*
X117490000Y-109315000D01*
X114990000Y-109315000D02*
X117162000Y-109315000D01*
X107490000Y-105065000D02*
X104490000Y-105065000D01*
X107490000Y-109565000D02*
X107490000Y-105065000D01*
X104490000Y-109565000D02*
X107490000Y-109565000D01*
X114990000Y-102815000D02*
X104490000Y-102815000D01*
X114990000Y-105315000D02*
X114990000Y-102815000D01*
X114990000Y-111815000D02*
X114990000Y-109315000D01*
X104490000Y-111815000D02*
X114990000Y-111815000D01*
X104490000Y-105815000D02*
X104490000Y-102815000D01*
X104490000Y-108815000D02*
X104490000Y-105815000D01*
X104490000Y-111815000D02*
X104490000Y-108815000D01*
%TO.C,J2*%
X131206000Y-105315000D02*
X131206000Y-109315000D01*
X131206000Y-105315000D02*
X128706000Y-105315000D01*
X130906000Y-109315000D02*
X131206000Y-109315000D01*
X128706000Y-109315000D02*
X130878000Y-109315000D01*
X121206000Y-105065000D02*
X118206000Y-105065000D01*
X121206000Y-109565000D02*
X121206000Y-105065000D01*
X118206000Y-109565000D02*
X121206000Y-109565000D01*
X128706000Y-102815000D02*
X118206000Y-102815000D01*
X128706000Y-105315000D02*
X128706000Y-102815000D01*
X128706000Y-111815000D02*
X128706000Y-109315000D01*
X118206000Y-111815000D02*
X128706000Y-111815000D01*
X118206000Y-105815000D02*
X118206000Y-102815000D01*
X118206000Y-108815000D02*
X118206000Y-105815000D01*
X118206000Y-111815000D02*
X118206000Y-108815000D01*
D12*
%TO.C,D4*%
X77025000Y-114010000D02*
X76869000Y-114010000D01*
X79341000Y-114010000D02*
X79185000Y-114010000D01*
X79183608Y-117242335D02*
G75*
G03*
X79340516Y-114010000I-1078608J1672335D01*
G01*
X77026392Y-117242335D02*
G75*
G02*
X76869484Y-114010000I1078608J1672335D01*
G01*
X79184837Y-116611130D02*
G75*
G03*
X79185000Y-114529039I-1079837J1041130D01*
G01*
X77025163Y-116611130D02*
G75*
G02*
X77025000Y-114529039I1079837J1041130D01*
G01*
%TO.C,D3*%
X90360000Y-114010000D02*
X90204000Y-114010000D01*
X92676000Y-114010000D02*
X92520000Y-114010000D01*
X92518608Y-117242335D02*
G75*
G03*
X92675516Y-114010000I-1078608J1672335D01*
G01*
X90361392Y-117242335D02*
G75*
G02*
X90204484Y-114010000I1078608J1672335D01*
G01*
X92519837Y-116611130D02*
G75*
G03*
X92520000Y-114529039I-1079837J1041130D01*
G01*
X90360163Y-116611130D02*
G75*
G02*
X90360000Y-114529039I1079837J1041130D01*
G01*
%TO.C,D2*%
X103060000Y-114010000D02*
X102904000Y-114010000D01*
X105376000Y-114010000D02*
X105220000Y-114010000D01*
X105218608Y-117242335D02*
G75*
G03*
X105375516Y-114010000I-1078608J1672335D01*
G01*
X103061392Y-117242335D02*
G75*
G02*
X102904484Y-114010000I1078608J1672335D01*
G01*
X105219837Y-116611130D02*
G75*
G03*
X105220000Y-114529039I-1079837J1041130D01*
G01*
X103060163Y-116611130D02*
G75*
G02*
X103060000Y-114529039I1079837J1041130D01*
G01*
%TO.C,D1*%
X117030000Y-114010000D02*
X116874000Y-114010000D01*
X119346000Y-114010000D02*
X119190000Y-114010000D01*
X119188608Y-117242335D02*
G75*
G03*
X119345516Y-114010000I-1078608J1672335D01*
G01*
X117031392Y-117242335D02*
G75*
G02*
X116874484Y-114010000I1078608J1672335D01*
G01*
X119189837Y-116611130D02*
G75*
G03*
X119190000Y-114529039I-1079837J1041130D01*
G01*
X117030163Y-116611130D02*
G75*
G02*
X117030000Y-114529039I1079837J1041130D01*
G01*
%TO.C,J1*%
D11*
X85264666Y-126706380D02*
X85264666Y-127420666D01*
X85217047Y-127563523D01*
X85121809Y-127658761D01*
X84978952Y-127706380D01*
X84883714Y-127706380D01*
X86264666Y-127706380D02*
X85693238Y-127706380D01*
X85978952Y-127706380D02*
X85978952Y-126706380D01*
X85883714Y-126849238D01*
X85788476Y-126944476D01*
X85693238Y-126992095D01*
%TO.C,SW4*%
X87526761Y-116141333D02*
X87574380Y-115998476D01*
X87574380Y-115760380D01*
X87526761Y-115665142D01*
X87479142Y-115617523D01*
X87383904Y-115569904D01*
X87288666Y-115569904D01*
X87193428Y-115617523D01*
X87145809Y-115665142D01*
X87098190Y-115760380D01*
X87050571Y-115950857D01*
X87002952Y-116046095D01*
X86955333Y-116093714D01*
X86860095Y-116141333D01*
X86764857Y-116141333D01*
X86669619Y-116093714D01*
X86622000Y-116046095D01*
X86574380Y-115950857D01*
X86574380Y-115712761D01*
X86622000Y-115569904D01*
X86574380Y-115236571D02*
X87574380Y-114998476D01*
X86860095Y-114808000D01*
X87574380Y-114617523D01*
X86574380Y-114379428D01*
X86907714Y-113569904D02*
X87574380Y-113569904D01*
X86526761Y-113808000D02*
X87241047Y-114046095D01*
X87241047Y-113427047D01*
%TO.C,R1*%
X117943333Y-121102380D02*
X117610000Y-120626190D01*
X117371904Y-121102380D02*
X117371904Y-120102380D01*
X117752857Y-120102380D01*
X117848095Y-120150000D01*
X117895714Y-120197619D01*
X117943333Y-120292857D01*
X117943333Y-120435714D01*
X117895714Y-120530952D01*
X117848095Y-120578571D01*
X117752857Y-120626190D01*
X117371904Y-120626190D01*
X118895714Y-121102380D02*
X118324285Y-121102380D01*
X118610000Y-121102380D02*
X118610000Y-120102380D01*
X118514761Y-120245238D01*
X118419523Y-120340476D01*
X118324285Y-120388095D01*
X116038380Y-125483714D02*
X116038380Y-124864666D01*
X116419333Y-125198000D01*
X116419333Y-125055142D01*
X116466952Y-124959904D01*
X116514571Y-124912285D01*
X116609809Y-124864666D01*
X116847904Y-124864666D01*
X116943142Y-124912285D01*
X116990761Y-124959904D01*
X117038380Y-125055142D01*
X117038380Y-125340857D01*
X116990761Y-125436095D01*
X116943142Y-125483714D01*
X116038380Y-124531333D02*
X116038380Y-123912285D01*
X116419333Y-124245619D01*
X116419333Y-124102761D01*
X116466952Y-124007523D01*
X116514571Y-123959904D01*
X116609809Y-123912285D01*
X116847904Y-123912285D01*
X116943142Y-123959904D01*
X116990761Y-124007523D01*
X117038380Y-124102761D01*
X117038380Y-124388476D01*
X116990761Y-124483714D01*
X116943142Y-124531333D01*
X116038380Y-123293238D02*
X116038380Y-123198000D01*
X116086000Y-123102761D01*
X116133619Y-123055142D01*
X116228857Y-123007523D01*
X116419333Y-122959904D01*
X116657428Y-122959904D01*
X116847904Y-123007523D01*
X116943142Y-123055142D01*
X116990761Y-123102761D01*
X117038380Y-123198000D01*
X117038380Y-123293238D01*
X116990761Y-123388476D01*
X116943142Y-123436095D01*
X116847904Y-123483714D01*
X116657428Y-123531333D01*
X116419333Y-123531333D01*
X116228857Y-123483714D01*
X116133619Y-123436095D01*
X116086000Y-123388476D01*
X116038380Y-123293238D01*
X117038380Y-121959904D02*
X116562190Y-122293238D01*
X117038380Y-122531333D02*
X116038380Y-122531333D01*
X116038380Y-122150380D01*
X116086000Y-122055142D01*
X116133619Y-122007523D01*
X116228857Y-121959904D01*
X116371714Y-121959904D01*
X116466952Y-122007523D01*
X116514571Y-122055142D01*
X116562190Y-122150380D01*
X116562190Y-122531333D01*
%TO.C,SW3*%
X101242761Y-116141333D02*
X101290380Y-115998476D01*
X101290380Y-115760380D01*
X101242761Y-115665142D01*
X101195142Y-115617523D01*
X101099904Y-115569904D01*
X101004666Y-115569904D01*
X100909428Y-115617523D01*
X100861809Y-115665142D01*
X100814190Y-115760380D01*
X100766571Y-115950857D01*
X100718952Y-116046095D01*
X100671333Y-116093714D01*
X100576095Y-116141333D01*
X100480857Y-116141333D01*
X100385619Y-116093714D01*
X100338000Y-116046095D01*
X100290380Y-115950857D01*
X100290380Y-115712761D01*
X100338000Y-115569904D01*
X100290380Y-115236571D02*
X101290380Y-114998476D01*
X100576095Y-114808000D01*
X101290380Y-114617523D01*
X100290380Y-114379428D01*
X100290380Y-114093714D02*
X100290380Y-113474666D01*
X100671333Y-113808000D01*
X100671333Y-113665142D01*
X100718952Y-113569904D01*
X100766571Y-113522285D01*
X100861809Y-113474666D01*
X101099904Y-113474666D01*
X101195142Y-113522285D01*
X101242761Y-113569904D01*
X101290380Y-113665142D01*
X101290380Y-113950857D01*
X101242761Y-114046095D01*
X101195142Y-114093714D01*
%TO.C,SW2*%
X113942761Y-116141333D02*
X113990380Y-115998476D01*
X113990380Y-115760380D01*
X113942761Y-115665142D01*
X113895142Y-115617523D01*
X113799904Y-115569904D01*
X113704666Y-115569904D01*
X113609428Y-115617523D01*
X113561809Y-115665142D01*
X113514190Y-115760380D01*
X113466571Y-115950857D01*
X113418952Y-116046095D01*
X113371333Y-116093714D01*
X113276095Y-116141333D01*
X113180857Y-116141333D01*
X113085619Y-116093714D01*
X113038000Y-116046095D01*
X112990380Y-115950857D01*
X112990380Y-115712761D01*
X113038000Y-115569904D01*
X112990380Y-115236571D02*
X113990380Y-114998476D01*
X113276095Y-114808000D01*
X113990380Y-114617523D01*
X112990380Y-114379428D01*
X113085619Y-114046095D02*
X113038000Y-113998476D01*
X112990380Y-113903238D01*
X112990380Y-113665142D01*
X113038000Y-113569904D01*
X113085619Y-113522285D01*
X113180857Y-113474666D01*
X113276095Y-113474666D01*
X113418952Y-113522285D01*
X113990380Y-114093714D01*
X113990380Y-113474666D01*
%TO.C,SW1*%
X127658761Y-116141333D02*
X127706380Y-115998476D01*
X127706380Y-115760380D01*
X127658761Y-115665142D01*
X127611142Y-115617523D01*
X127515904Y-115569904D01*
X127420666Y-115569904D01*
X127325428Y-115617523D01*
X127277809Y-115665142D01*
X127230190Y-115760380D01*
X127182571Y-115950857D01*
X127134952Y-116046095D01*
X127087333Y-116093714D01*
X126992095Y-116141333D01*
X126896857Y-116141333D01*
X126801619Y-116093714D01*
X126754000Y-116046095D01*
X126706380Y-115950857D01*
X126706380Y-115712761D01*
X126754000Y-115569904D01*
X126706380Y-115236571D02*
X127706380Y-114998476D01*
X126992095Y-114808000D01*
X127706380Y-114617523D01*
X126706380Y-114379428D01*
X127706380Y-113474666D02*
X127706380Y-114046095D01*
X127706380Y-113760380D02*
X126706380Y-113760380D01*
X126849238Y-113855619D01*
X126944476Y-113950857D01*
X126992095Y-114046095D01*
%TO.C,R4*%
X78573333Y-126817380D02*
X78240000Y-126341190D01*
X78001904Y-126817380D02*
X78001904Y-125817380D01*
X78382857Y-125817380D01*
X78478095Y-125865000D01*
X78525714Y-125912619D01*
X78573333Y-126007857D01*
X78573333Y-126150714D01*
X78525714Y-126245952D01*
X78478095Y-126293571D01*
X78382857Y-126341190D01*
X78001904Y-126341190D01*
X79430476Y-126150714D02*
X79430476Y-126817380D01*
X79192380Y-125769761D02*
X78954285Y-126484047D01*
X79573333Y-126484047D01*
X76668380Y-125229714D02*
X76668380Y-124610666D01*
X77049333Y-124944000D01*
X77049333Y-124801142D01*
X77096952Y-124705904D01*
X77144571Y-124658285D01*
X77239809Y-124610666D01*
X77477904Y-124610666D01*
X77573142Y-124658285D01*
X77620761Y-124705904D01*
X77668380Y-124801142D01*
X77668380Y-125086857D01*
X77620761Y-125182095D01*
X77573142Y-125229714D01*
X76668380Y-124277333D02*
X76668380Y-123658285D01*
X77049333Y-123991619D01*
X77049333Y-123848761D01*
X77096952Y-123753523D01*
X77144571Y-123705904D01*
X77239809Y-123658285D01*
X77477904Y-123658285D01*
X77573142Y-123705904D01*
X77620761Y-123753523D01*
X77668380Y-123848761D01*
X77668380Y-124134476D01*
X77620761Y-124229714D01*
X77573142Y-124277333D01*
X76668380Y-123039238D02*
X76668380Y-122944000D01*
X76716000Y-122848761D01*
X76763619Y-122801142D01*
X76858857Y-122753523D01*
X77049333Y-122705904D01*
X77287428Y-122705904D01*
X77477904Y-122753523D01*
X77573142Y-122801142D01*
X77620761Y-122848761D01*
X77668380Y-122944000D01*
X77668380Y-123039238D01*
X77620761Y-123134476D01*
X77573142Y-123182095D01*
X77477904Y-123229714D01*
X77287428Y-123277333D01*
X77049333Y-123277333D01*
X76858857Y-123229714D01*
X76763619Y-123182095D01*
X76716000Y-123134476D01*
X76668380Y-123039238D01*
X77668380Y-121705904D02*
X77192190Y-122039238D01*
X77668380Y-122277333D02*
X76668380Y-122277333D01*
X76668380Y-121896380D01*
X76716000Y-121801142D01*
X76763619Y-121753523D01*
X76858857Y-121705904D01*
X77001714Y-121705904D01*
X77096952Y-121753523D01*
X77144571Y-121801142D01*
X77192190Y-121896380D01*
X77192190Y-122277333D01*
%TO.C,R3*%
D14*
X89562000Y-121429428D02*
X89362000Y-121143714D01*
X89219142Y-121429428D02*
X89219142Y-120829428D01*
X89447714Y-120829428D01*
X89504857Y-120858000D01*
X89533428Y-120886571D01*
X89562000Y-120943714D01*
X89562000Y-121029428D01*
X89533428Y-121086571D01*
X89504857Y-121115142D01*
X89447714Y-121143714D01*
X89219142Y-121143714D01*
X89762000Y-120829428D02*
X90133428Y-120829428D01*
X89933428Y-121058000D01*
X90019142Y-121058000D01*
X90076285Y-121086571D01*
X90104857Y-121115142D01*
X90133428Y-121172285D01*
X90133428Y-121315142D01*
X90104857Y-121372285D01*
X90076285Y-121400857D01*
X90019142Y-121429428D01*
X89847714Y-121429428D01*
X89790571Y-121400857D01*
X89762000Y-121372285D01*
X90876571Y-120829428D02*
X91248000Y-120829428D01*
X91048000Y-121058000D01*
X91133714Y-121058000D01*
X91190857Y-121086571D01*
X91219428Y-121115142D01*
X91248000Y-121172285D01*
X91248000Y-121315142D01*
X91219428Y-121372285D01*
X91190857Y-121400857D01*
X91133714Y-121429428D01*
X90962285Y-121429428D01*
X90905142Y-121400857D01*
X90876571Y-121372285D01*
X91448000Y-120829428D02*
X91819428Y-120829428D01*
X91619428Y-121058000D01*
X91705142Y-121058000D01*
X91762285Y-121086571D01*
X91790857Y-121115142D01*
X91819428Y-121172285D01*
X91819428Y-121315142D01*
X91790857Y-121372285D01*
X91762285Y-121400857D01*
X91705142Y-121429428D01*
X91533714Y-121429428D01*
X91476571Y-121400857D01*
X91448000Y-121372285D01*
X92190857Y-120829428D02*
X92248000Y-120829428D01*
X92305142Y-120858000D01*
X92333714Y-120886571D01*
X92362285Y-120943714D01*
X92390857Y-121058000D01*
X92390857Y-121200857D01*
X92362285Y-121315142D01*
X92333714Y-121372285D01*
X92305142Y-121400857D01*
X92248000Y-121429428D01*
X92190857Y-121429428D01*
X92133714Y-121400857D01*
X92105142Y-121372285D01*
X92076571Y-121315142D01*
X92048000Y-121200857D01*
X92048000Y-121058000D01*
X92076571Y-120943714D01*
X92105142Y-120886571D01*
X92133714Y-120858000D01*
X92190857Y-120829428D01*
X92990857Y-121429428D02*
X92790857Y-121143714D01*
X92648000Y-121429428D02*
X92648000Y-120829428D01*
X92876571Y-120829428D01*
X92933714Y-120858000D01*
X92962285Y-120886571D01*
X92990857Y-120943714D01*
X92990857Y-121029428D01*
X92962285Y-121086571D01*
X92933714Y-121115142D01*
X92876571Y-121143714D01*
X92648000Y-121143714D01*
%TO.C,R2*%
D11*
X105243333Y-121102380D02*
X104910000Y-120626190D01*
X104671904Y-121102380D02*
X104671904Y-120102380D01*
X105052857Y-120102380D01*
X105148095Y-120150000D01*
X105195714Y-120197619D01*
X105243333Y-120292857D01*
X105243333Y-120435714D01*
X105195714Y-120530952D01*
X105148095Y-120578571D01*
X105052857Y-120626190D01*
X104671904Y-120626190D01*
X105624285Y-120197619D02*
X105671904Y-120150000D01*
X105767142Y-120102380D01*
X106005238Y-120102380D01*
X106100476Y-120150000D01*
X106148095Y-120197619D01*
X106195714Y-120292857D01*
X106195714Y-120388095D01*
X106148095Y-120530952D01*
X105576666Y-121102380D01*
X106195714Y-121102380D01*
X103338380Y-125483714D02*
X103338380Y-124864666D01*
X103719333Y-125198000D01*
X103719333Y-125055142D01*
X103766952Y-124959904D01*
X103814571Y-124912285D01*
X103909809Y-124864666D01*
X104147904Y-124864666D01*
X104243142Y-124912285D01*
X104290761Y-124959904D01*
X104338380Y-125055142D01*
X104338380Y-125340857D01*
X104290761Y-125436095D01*
X104243142Y-125483714D01*
X103338380Y-124531333D02*
X103338380Y-123912285D01*
X103719333Y-124245619D01*
X103719333Y-124102761D01*
X103766952Y-124007523D01*
X103814571Y-123959904D01*
X103909809Y-123912285D01*
X104147904Y-123912285D01*
X104243142Y-123959904D01*
X104290761Y-124007523D01*
X104338380Y-124102761D01*
X104338380Y-124388476D01*
X104290761Y-124483714D01*
X104243142Y-124531333D01*
X103338380Y-123293238D02*
X103338380Y-123198000D01*
X103386000Y-123102761D01*
X103433619Y-123055142D01*
X103528857Y-123007523D01*
X103719333Y-122959904D01*
X103957428Y-122959904D01*
X104147904Y-123007523D01*
X104243142Y-123055142D01*
X104290761Y-123102761D01*
X104338380Y-123198000D01*
X104338380Y-123293238D01*
X104290761Y-123388476D01*
X104243142Y-123436095D01*
X104147904Y-123483714D01*
X103957428Y-123531333D01*
X103719333Y-123531333D01*
X103528857Y-123483714D01*
X103433619Y-123436095D01*
X103386000Y-123388476D01*
X103338380Y-123293238D01*
X104338380Y-121959904D02*
X103862190Y-122293238D01*
X104338380Y-122531333D02*
X103338380Y-122531333D01*
X103338380Y-122150380D01*
X103386000Y-122055142D01*
X103433619Y-122007523D01*
X103528857Y-121959904D01*
X103671714Y-121959904D01*
X103766952Y-122007523D01*
X103814571Y-122055142D01*
X103862190Y-122150380D01*
X103862190Y-122531333D01*
%TO.C,J5*%
D15*
X88277216Y-103434847D02*
X88277216Y-104296633D01*
X88219763Y-104468990D01*
X88104859Y-104583895D01*
X87932501Y-104641347D01*
X87817597Y-104641347D01*
X89426263Y-103434847D02*
X88851740Y-103434847D01*
X88794287Y-104009371D01*
X88851740Y-103951919D01*
X88966644Y-103894466D01*
X89253906Y-103894466D01*
X89368811Y-103951919D01*
X89426263Y-104009371D01*
X89483716Y-104124276D01*
X89483716Y-104411538D01*
X89426263Y-104526442D01*
X89368811Y-104583895D01*
X89253906Y-104641347D01*
X88966644Y-104641347D01*
X88851740Y-104583895D01*
X88794287Y-104526442D01*
%TO.C,J4*%
X102044016Y-103434847D02*
X102044016Y-104296633D01*
X101986563Y-104468990D01*
X101871659Y-104583895D01*
X101699301Y-104641347D01*
X101584397Y-104641347D01*
X103135611Y-103837014D02*
X103135611Y-104641347D01*
X102848349Y-103377395D02*
X102561087Y-104239180D01*
X103307968Y-104239180D01*
%TO.C,J3*%
X112797650Y-103436047D02*
X112797650Y-104297833D01*
X112740198Y-104470190D01*
X112625293Y-104585095D01*
X112452936Y-104642547D01*
X112338031Y-104642547D01*
X113257269Y-103436047D02*
X114004150Y-103436047D01*
X113601983Y-103895666D01*
X113774340Y-103895666D01*
X113889245Y-103953119D01*
X113946698Y-104010571D01*
X114004150Y-104125476D01*
X114004150Y-104412738D01*
X113946698Y-104527642D01*
X113889245Y-104585095D01*
X113774340Y-104642547D01*
X113429626Y-104642547D01*
X113314721Y-104585095D01*
X113257269Y-104527642D01*
%TO.C,J2*%
X126513650Y-103436047D02*
X126513650Y-104297833D01*
X126456198Y-104470190D01*
X126341293Y-104585095D01*
X126168936Y-104642547D01*
X126054031Y-104642547D01*
X127030721Y-103550952D02*
X127088174Y-103493500D01*
X127203079Y-103436047D01*
X127490340Y-103436047D01*
X127605245Y-103493500D01*
X127662698Y-103550952D01*
X127720150Y-103665857D01*
X127720150Y-103780761D01*
X127662698Y-103953119D01*
X126973269Y-104642547D01*
X127720150Y-104642547D01*
%TO.C,D4*%
D11*
X77366904Y-112847380D02*
X77366904Y-111847380D01*
X77605000Y-111847380D01*
X77747857Y-111895000D01*
X77843095Y-111990238D01*
X77890714Y-112085476D01*
X77938333Y-112275952D01*
X77938333Y-112418809D01*
X77890714Y-112609285D01*
X77843095Y-112704523D01*
X77747857Y-112799761D01*
X77605000Y-112847380D01*
X77366904Y-112847380D01*
X78795476Y-112180714D02*
X78795476Y-112847380D01*
X78557380Y-111799761D02*
X78319285Y-112514047D01*
X78938333Y-112514047D01*
%TO.C,D3*%
X90701904Y-112974380D02*
X90701904Y-111974380D01*
X90940000Y-111974380D01*
X91082857Y-112022000D01*
X91178095Y-112117238D01*
X91225714Y-112212476D01*
X91273333Y-112402952D01*
X91273333Y-112545809D01*
X91225714Y-112736285D01*
X91178095Y-112831523D01*
X91082857Y-112926761D01*
X90940000Y-112974380D01*
X90701904Y-112974380D01*
X91606666Y-111974380D02*
X92225714Y-111974380D01*
X91892380Y-112355333D01*
X92035238Y-112355333D01*
X92130476Y-112402952D01*
X92178095Y-112450571D01*
X92225714Y-112545809D01*
X92225714Y-112783904D01*
X92178095Y-112879142D01*
X92130476Y-112926761D01*
X92035238Y-112974380D01*
X91749523Y-112974380D01*
X91654285Y-112926761D01*
X91606666Y-112879142D01*
%TO.C,D2*%
X103401904Y-113025180D02*
X103401904Y-112025180D01*
X103640000Y-112025180D01*
X103782857Y-112072800D01*
X103878095Y-112168038D01*
X103925714Y-112263276D01*
X103973333Y-112453752D01*
X103973333Y-112596609D01*
X103925714Y-112787085D01*
X103878095Y-112882323D01*
X103782857Y-112977561D01*
X103640000Y-113025180D01*
X103401904Y-113025180D01*
X104354285Y-112120419D02*
X104401904Y-112072800D01*
X104497142Y-112025180D01*
X104735238Y-112025180D01*
X104830476Y-112072800D01*
X104878095Y-112120419D01*
X104925714Y-112215657D01*
X104925714Y-112310895D01*
X104878095Y-112453752D01*
X104306666Y-113025180D01*
X104925714Y-113025180D01*
%TO.C,D1*%
X117371904Y-113025180D02*
X117371904Y-112025180D01*
X117610000Y-112025180D01*
X117752857Y-112072800D01*
X117848095Y-112168038D01*
X117895714Y-112263276D01*
X117943333Y-112453752D01*
X117943333Y-112596609D01*
X117895714Y-112787085D01*
X117848095Y-112882323D01*
X117752857Y-112977561D01*
X117610000Y-113025180D01*
X117371904Y-113025180D01*
X118895714Y-113025180D02*
X118324285Y-113025180D01*
X118610000Y-113025180D02*
X118610000Y-112025180D01*
X118514761Y-112168038D01*
X118419523Y-112263276D01*
X118324285Y-112310895D01*
%TD*%
M02*
