%TF.GenerationSoftware,KiCad,Pcbnew,(5.1.9)-1*%
%TF.CreationDate,2021-03-02T23:28:56+00:00*%
%TF.ProjectId,Four Power Outlet,466f7572-2050-46f7-9765-72204f75746c,rev?*%
%TF.SameCoordinates,Original*%
%TF.FileFunction,Copper,L1,Top*%
%TF.FilePolarity,Positive*%
%FSLAX46Y46*%
G04 Gerber Fmt 4.6, Leading zero omitted, Abs format (unit mm)*
G04 Created by KiCad (PCBNEW (5.1.9)-1) date 2021-03-02 23:28:56*
%MOMM*%
%LPD*%
G01*
G04 APERTURE LIST*
%TA.AperFunction,ComponentPad*%
%ADD10R,1.850000X1.850000*%
%TD*%
%TA.AperFunction,ComponentPad*%
%ADD11C,1.850000*%
%TD*%
%TA.AperFunction,ComponentPad*%
%ADD12R,3.300000X3.000000*%
%TD*%
%TA.AperFunction,SMDPad,CuDef*%
%ADD13R,1.300000X1.500000*%
%TD*%
%TA.AperFunction,SMDPad,CuDef*%
%ADD14R,1.500000X1.300000*%
%TD*%
%TA.AperFunction,SMDPad,CuDef*%
%ADD15R,1.500000X3.000000*%
%TD*%
%TA.AperFunction,ComponentPad*%
%ADD16R,2.000000X3.600000*%
%TD*%
%TA.AperFunction,ComponentPad*%
%ADD17R,1.800000X1.800000*%
%TD*%
%TA.AperFunction,ComponentPad*%
%ADD18C,1.800000*%
%TD*%
%TA.AperFunction,ViaPad*%
%ADD19C,0.800000*%
%TD*%
%TA.AperFunction,Conductor*%
%ADD20C,1.000000*%
%TD*%
G04 APERTURE END LIST*
D10*
%TO.P,J1,1*%
%TO.N,GND*%
X92075000Y-125730000D03*
D11*
%TO.P,J1,2*%
%TO.N,+5V*%
X89575000Y-125730000D03*
%TD*%
D12*
%TO.P,SW4,3*%
%TO.N,Net-(SW4-Pad3)*%
X84075000Y-115060000D03*
%TO.P,SW4,2*%
%TO.N,+5V*%
X84075000Y-119760000D03*
%TO.P,SW4,1*%
%TO.N,Net-(J5-Pad1)*%
X84075000Y-124460000D03*
%TD*%
D13*
%TO.P,R1,1*%
%TO.N,Net-(J2-Pad1)*%
X118110000Y-125175000D03*
%TO.P,R1,2*%
%TO.N,Net-(D1-Pad2)*%
X118110000Y-122475000D03*
%TD*%
D12*
%TO.P,SW3,3*%
%TO.N,Net-(SW3-Pad3)*%
X97790000Y-115060000D03*
%TO.P,SW3,2*%
%TO.N,+5V*%
X97790000Y-119760000D03*
%TO.P,SW3,1*%
%TO.N,Net-(J4-Pad1)*%
X97790000Y-124460000D03*
%TD*%
%TO.P,SW2,3*%
%TO.N,Net-(SW2-Pad3)*%
X110500000Y-115060000D03*
%TO.P,SW2,2*%
%TO.N,+5V*%
X110500000Y-119760000D03*
%TO.P,SW2,1*%
%TO.N,Net-(J3-Pad1)*%
X110500000Y-124460000D03*
%TD*%
%TO.P,SW1,3*%
%TO.N,Net-(SW1-Pad3)*%
X124200000Y-115060000D03*
%TO.P,SW1,2*%
%TO.N,+5V*%
X124200000Y-119760000D03*
%TO.P,SW1,1*%
%TO.N,Net-(J2-Pad1)*%
X124200000Y-124460000D03*
%TD*%
D13*
%TO.P,R4,1*%
%TO.N,Net-(J5-Pad1)*%
X78740000Y-124540000D03*
%TO.P,R4,2*%
%TO.N,Net-(D4-Pad2)*%
X78740000Y-121840000D03*
%TD*%
D14*
%TO.P,R3,1*%
%TO.N,Net-(J4-Pad1)*%
X89455000Y-119380000D03*
%TO.P,R3,2*%
%TO.N,Net-(D3-Pad2)*%
X92155000Y-119380000D03*
%TD*%
D13*
%TO.P,R2,1*%
%TO.N,Net-(J3-Pad1)*%
X105410000Y-125095000D03*
%TO.P,R2,2*%
%TO.N,Net-(D2-Pad2)*%
X105410000Y-122395000D03*
%TD*%
D15*
%TO.P,J5,3*%
%TO.N,GND*%
X78074000Y-107315000D03*
D16*
%TO.P,J5,2*%
%TO.N,Net-(J5-Pad2)*%
X80574000Y-107315000D03*
%TO.P,J5,1*%
%TO.N,Net-(J5-Pad1)*%
X88574000Y-107315000D03*
%TD*%
D15*
%TO.P,J4,3*%
%TO.N,GND*%
X91790000Y-107315000D03*
D16*
%TO.P,J4,2*%
%TO.N,Net-(J4-Pad2)*%
X94290000Y-107315000D03*
%TO.P,J4,1*%
%TO.N,Net-(J4-Pad1)*%
X102290000Y-107315000D03*
%TD*%
D15*
%TO.P,J3,3*%
%TO.N,GND*%
X116490000Y-107315000D03*
D16*
%TO.P,J3,2*%
%TO.N,Net-(J3-Pad2)*%
X113990000Y-107315000D03*
%TO.P,J3,1*%
%TO.N,Net-(J3-Pad1)*%
X105990000Y-107315000D03*
%TD*%
D15*
%TO.P,J2,3*%
%TO.N,GND*%
X130206000Y-107315000D03*
D16*
%TO.P,J2,2*%
%TO.N,Net-(J2-Pad2)*%
X127706000Y-107315000D03*
%TO.P,J2,1*%
%TO.N,Net-(J2-Pad1)*%
X119706000Y-107315000D03*
%TD*%
D17*
%TO.P,D4,1*%
%TO.N,GND*%
X78105000Y-114300000D03*
D18*
%TO.P,D4,2*%
%TO.N,Net-(D4-Pad2)*%
X78105000Y-116840000D03*
%TD*%
D17*
%TO.P,D3,1*%
%TO.N,GND*%
X91440000Y-114300000D03*
D18*
%TO.P,D3,2*%
%TO.N,Net-(D3-Pad2)*%
X91440000Y-116840000D03*
%TD*%
D17*
%TO.P,D2,1*%
%TO.N,GND*%
X104140000Y-114300000D03*
D18*
%TO.P,D2,2*%
%TO.N,Net-(D2-Pad2)*%
X104140000Y-116840000D03*
%TD*%
D17*
%TO.P,D1,1*%
%TO.N,GND*%
X118110000Y-114300000D03*
D18*
%TO.P,D1,2*%
%TO.N,Net-(D1-Pad2)*%
X118110000Y-116840000D03*
%TD*%
D19*
%TO.N,GND*%
X129540000Y-110490000D03*
X115570000Y-110490000D03*
X92710000Y-110490000D03*
X78740000Y-110490000D03*
%TO.N,Net-(D1-Pad2)*%
X115570000Y-121920000D03*
X115570000Y-117475000D03*
X115570000Y-121920000D03*
%TO.N,Net-(D2-Pad2)*%
X102870000Y-121920000D03*
X102870000Y-118110000D03*
%TO.N,Net-(J3-Pad1)*%
X113665000Y-121920000D03*
X113665000Y-117475000D03*
%TO.N,Net-(J4-Pad1)*%
X100965000Y-121920000D03*
X100965000Y-118110000D03*
%TD*%
D20*
%TO.N,GND*%
X130206000Y-109824000D02*
X129540000Y-110490000D01*
X130206000Y-107315000D02*
X130206000Y-109824000D01*
X116490000Y-109570000D02*
X115570000Y-110490000D01*
X116490000Y-107315000D02*
X116490000Y-109570000D01*
X91790000Y-109570000D02*
X92710000Y-110490000D01*
X91790000Y-107315000D02*
X91790000Y-109570000D01*
X78074000Y-109824000D02*
X78740000Y-110490000D01*
X78074000Y-107315000D02*
X78074000Y-109824000D01*
%TO.N,Net-(D1-Pad2)*%
X117475000Y-117475000D02*
X118110000Y-116840000D01*
X115570000Y-117475000D02*
X117475000Y-117475000D01*
X116125000Y-122475000D02*
X115570000Y-121920000D01*
X118110000Y-122475000D02*
X116125000Y-122475000D01*
%TO.N,Net-(D2-Pad2)*%
X103345000Y-122395000D02*
X102870000Y-121920000D01*
X105410000Y-122395000D02*
X103345000Y-122395000D01*
X102870000Y-118110000D02*
X104140000Y-116840000D01*
%TO.N,Net-(D3-Pad2)*%
X92155000Y-117555000D02*
X91440000Y-116840000D01*
X92155000Y-119380000D02*
X92155000Y-117555000D01*
%TO.N,Net-(D4-Pad2)*%
X78740000Y-117475000D02*
X78105000Y-116840000D01*
X78740000Y-121840000D02*
X78740000Y-117475000D01*
%TO.N,+5V*%
X89575000Y-125730000D02*
X89575000Y-123865000D01*
X85470000Y-119760000D02*
X84075000Y-119760000D01*
X89575000Y-123865000D02*
X85470000Y-119760000D01*
X89575000Y-124421853D02*
X92075000Y-121921853D01*
X89575000Y-125730000D02*
X89575000Y-124421853D01*
X92075000Y-121921853D02*
X93343147Y-121921853D01*
X95505000Y-119760000D02*
X97790000Y-119760000D01*
X93343147Y-121921853D02*
X95505000Y-119760000D01*
X97790000Y-119760000D02*
X110500000Y-119760000D01*
X110500000Y-119760000D02*
X124200000Y-119760000D01*
%TO.N,Net-(J2-Pad1)*%
X124200000Y-124460000D02*
X121285000Y-124460000D01*
X120570000Y-125175000D02*
X118110000Y-125175000D01*
X121285000Y-124460000D02*
X120570000Y-125175000D01*
X124200000Y-124460000D02*
X126365000Y-124460000D01*
X126365000Y-124460000D02*
X128270000Y-122555000D01*
X128270000Y-122555000D02*
X128270000Y-114300000D01*
X128270000Y-114300000D02*
X124460000Y-110490000D01*
X122881000Y-110490000D02*
X119706000Y-107315000D01*
X124460000Y-110490000D02*
X122881000Y-110490000D01*
%TO.N,Net-(J3-Pad1)*%
X110500000Y-124460000D02*
X108585000Y-124460000D01*
X108585000Y-124460000D02*
X107950000Y-125095000D01*
X107950000Y-125095000D02*
X105410000Y-125095000D01*
X111125000Y-124460000D02*
X113665000Y-121920000D01*
X110500000Y-124460000D02*
X111125000Y-124460000D01*
X105990000Y-109800000D02*
X105990000Y-107315000D01*
X113030000Y-111125000D02*
X107315000Y-111125000D01*
X113665000Y-111760000D02*
X113030000Y-111125000D01*
X107315000Y-111125000D02*
X105990000Y-109800000D01*
X113665000Y-117475000D02*
X113665000Y-111760000D01*
%TO.N,Net-(J4-Pad1)*%
X98425000Y-124460000D02*
X100965000Y-121920000D01*
X97790000Y-124460000D02*
X98425000Y-124460000D01*
X100965000Y-108640000D02*
X102290000Y-107315000D01*
X89455000Y-119380000D02*
X89455000Y-119300000D01*
X89455000Y-119300000D02*
X88900000Y-118745000D01*
X88900000Y-118745000D02*
X88900000Y-113030000D01*
X88900000Y-113030000D02*
X89535000Y-112395000D01*
X89535000Y-112395000D02*
X95250000Y-112395000D01*
X96520000Y-111125000D02*
X100965000Y-111125000D01*
X95250000Y-112395000D02*
X96520000Y-111125000D01*
X100965000Y-111125000D02*
X100965000Y-108640000D01*
X100965000Y-118110000D02*
X100965000Y-111125000D01*
%TO.N,Net-(J5-Pad1)*%
X83995000Y-124540000D02*
X84075000Y-124460000D01*
X78740000Y-124540000D02*
X81200000Y-124540000D01*
X81200000Y-124540000D02*
X83995000Y-124540000D01*
X88574000Y-108276000D02*
X88574000Y-107315000D01*
X85725000Y-111125000D02*
X88574000Y-108276000D01*
X82550000Y-111125000D02*
X85725000Y-111125000D01*
X80645000Y-113030000D02*
X82550000Y-111125000D01*
X80645000Y-123985000D02*
X80645000Y-113030000D01*
X81200000Y-124540000D02*
X80645000Y-123985000D01*
%TD*%
M02*
