%TF.GenerationSoftware,KiCad,Pcbnew,(5.1.9)-1*%
%TF.CreationDate,2021-03-02T23:28:56+00:00*%
%TF.ProjectId,Four Power Outlet,466f7572-2050-46f7-9765-72204f75746c,rev?*%
%TF.SameCoordinates,Original*%
%TF.FileFunction,Soldermask,Bot*%
%TF.FilePolarity,Negative*%
%FSLAX46Y46*%
G04 Gerber Fmt 4.6, Leading zero omitted, Abs format (unit mm)*
G04 Created by KiCad (PCBNEW (5.1.9)-1) date 2021-03-02 23:28:56*
%MOMM*%
%LPD*%
G01*
G04 APERTURE LIST*
%ADD10R,1.850000X1.850000*%
%ADD11C,1.850000*%
%ADD12R,3.300000X3.000000*%
%ADD13C,3.203200*%
%ADD14R,1.800000X1.800000*%
%ADD15C,1.800000*%
G04 APERTURE END LIST*
D10*
%TO.C,J1*%
X92075000Y-125730000D03*
D11*
X89575000Y-125730000D03*
%TD*%
D12*
%TO.C,SW4*%
X84075000Y-115060000D03*
X84075000Y-119760000D03*
X84075000Y-124460000D03*
%TD*%
%TO.C,SW3*%
X97790000Y-115060000D03*
X97790000Y-119760000D03*
X97790000Y-124460000D03*
%TD*%
%TO.C,SW2*%
X110500000Y-115060000D03*
X110500000Y-119760000D03*
X110500000Y-124460000D03*
%TD*%
%TO.C,SW1*%
X124200000Y-115060000D03*
X124200000Y-119760000D03*
X124200000Y-124460000D03*
%TD*%
D13*
%TO.C,J5*%
X84074000Y-107315000D03*
G36*
G01*
X79574000Y-105413400D02*
X81574000Y-105413400D01*
G75*
G02*
X81675600Y-105515000I0J-101600D01*
G01*
X81675600Y-109115000D01*
G75*
G02*
X81574000Y-109216600I-101600J0D01*
G01*
X79574000Y-109216600D01*
G75*
G02*
X79472400Y-109115000I0J101600D01*
G01*
X79472400Y-105515000D01*
G75*
G02*
X79574000Y-105413400I101600J0D01*
G01*
G37*
G36*
G01*
X87574000Y-105413400D02*
X89574000Y-105413400D01*
G75*
G02*
X89675600Y-105515000I0J-101600D01*
G01*
X89675600Y-109115000D01*
G75*
G02*
X89574000Y-109216600I-101600J0D01*
G01*
X87574000Y-109216600D01*
G75*
G02*
X87472400Y-109115000I0J101600D01*
G01*
X87472400Y-105515000D01*
G75*
G02*
X87574000Y-105413400I101600J0D01*
G01*
G37*
%TD*%
%TO.C,J4*%
X97790000Y-107315000D03*
G36*
G01*
X93290000Y-105413400D02*
X95290000Y-105413400D01*
G75*
G02*
X95391600Y-105515000I0J-101600D01*
G01*
X95391600Y-109115000D01*
G75*
G02*
X95290000Y-109216600I-101600J0D01*
G01*
X93290000Y-109216600D01*
G75*
G02*
X93188400Y-109115000I0J101600D01*
G01*
X93188400Y-105515000D01*
G75*
G02*
X93290000Y-105413400I101600J0D01*
G01*
G37*
G36*
G01*
X101290000Y-105413400D02*
X103290000Y-105413400D01*
G75*
G02*
X103391600Y-105515000I0J-101600D01*
G01*
X103391600Y-109115000D01*
G75*
G02*
X103290000Y-109216600I-101600J0D01*
G01*
X101290000Y-109216600D01*
G75*
G02*
X101188400Y-109115000I0J101600D01*
G01*
X101188400Y-105515000D01*
G75*
G02*
X101290000Y-105413400I101600J0D01*
G01*
G37*
%TD*%
%TO.C,J3*%
X110490000Y-107315000D03*
G36*
G01*
X114990000Y-109216600D02*
X112990000Y-109216600D01*
G75*
G02*
X112888400Y-109115000I0J101600D01*
G01*
X112888400Y-105515000D01*
G75*
G02*
X112990000Y-105413400I101600J0D01*
G01*
X114990000Y-105413400D01*
G75*
G02*
X115091600Y-105515000I0J-101600D01*
G01*
X115091600Y-109115000D01*
G75*
G02*
X114990000Y-109216600I-101600J0D01*
G01*
G37*
G36*
G01*
X106990000Y-109216600D02*
X104990000Y-109216600D01*
G75*
G02*
X104888400Y-109115000I0J101600D01*
G01*
X104888400Y-105515000D01*
G75*
G02*
X104990000Y-105413400I101600J0D01*
G01*
X106990000Y-105413400D01*
G75*
G02*
X107091600Y-105515000I0J-101600D01*
G01*
X107091600Y-109115000D01*
G75*
G02*
X106990000Y-109216600I-101600J0D01*
G01*
G37*
%TD*%
%TO.C,J2*%
X124206000Y-107315000D03*
G36*
G01*
X128706000Y-109216600D02*
X126706000Y-109216600D01*
G75*
G02*
X126604400Y-109115000I0J101600D01*
G01*
X126604400Y-105515000D01*
G75*
G02*
X126706000Y-105413400I101600J0D01*
G01*
X128706000Y-105413400D01*
G75*
G02*
X128807600Y-105515000I0J-101600D01*
G01*
X128807600Y-109115000D01*
G75*
G02*
X128706000Y-109216600I-101600J0D01*
G01*
G37*
G36*
G01*
X120706000Y-109216600D02*
X118706000Y-109216600D01*
G75*
G02*
X118604400Y-109115000I0J101600D01*
G01*
X118604400Y-105515000D01*
G75*
G02*
X118706000Y-105413400I101600J0D01*
G01*
X120706000Y-105413400D01*
G75*
G02*
X120807600Y-105515000I0J-101600D01*
G01*
X120807600Y-109115000D01*
G75*
G02*
X120706000Y-109216600I-101600J0D01*
G01*
G37*
%TD*%
D14*
%TO.C,D4*%
X78105000Y-114300000D03*
D15*
X78105000Y-116840000D03*
%TD*%
D14*
%TO.C,D3*%
X91440000Y-114300000D03*
D15*
X91440000Y-116840000D03*
%TD*%
D14*
%TO.C,D2*%
X104140000Y-114300000D03*
D15*
X104140000Y-116840000D03*
%TD*%
D14*
%TO.C,D1*%
X118110000Y-114300000D03*
D15*
X118110000Y-116840000D03*
%TD*%
M02*
