%TF.GenerationSoftware,KiCad,Pcbnew,(5.1.9)-1*%
%TF.CreationDate,2021-03-02T22:38:48+00:00*%
%TF.ProjectId,NOR Front Panel,4e4f5220-4672-46f6-9e74-2050616e656c,rev?*%
%TF.SameCoordinates,Original*%
%TF.FileFunction,Legend,Top*%
%TF.FilePolarity,Positive*%
%FSLAX46Y46*%
G04 Gerber Fmt 4.6, Leading zero omitted, Abs format (unit mm)*
G04 Created by KiCad (PCBNEW (5.1.9)-1) date 2021-03-02 22:38:48*
%MOMM*%
%LPD*%
G01*
G04 APERTURE LIST*
%ADD10C,0.150000*%
%ADD11C,0.120000*%
G04 APERTURE END LIST*
D10*
X102490000Y-102322380D02*
X103061428Y-102322380D01*
X102775714Y-103322380D02*
X102775714Y-102322380D01*
X103299523Y-102322380D02*
X103537619Y-103322380D01*
X103728095Y-102608095D01*
X103918571Y-103322380D01*
X104156666Y-102322380D01*
X104728095Y-102322380D02*
X104918571Y-102322380D01*
X105013809Y-102370000D01*
X105109047Y-102465238D01*
X105156666Y-102655714D01*
X105156666Y-102989047D01*
X105109047Y-103179523D01*
X105013809Y-103274761D01*
X104918571Y-103322380D01*
X104728095Y-103322380D01*
X104632857Y-103274761D01*
X104537619Y-103179523D01*
X104490000Y-102989047D01*
X104490000Y-102655714D01*
X104537619Y-102465238D01*
X104632857Y-102370000D01*
X104728095Y-102322380D01*
X106347142Y-103322380D02*
X106347142Y-102322380D01*
X106823333Y-103322380D02*
X106823333Y-102322380D01*
X107394761Y-103322380D01*
X107394761Y-102322380D01*
X107870952Y-103322380D02*
X107870952Y-102322380D01*
X108251904Y-102322380D01*
X108347142Y-102370000D01*
X108394761Y-102417619D01*
X108442380Y-102512857D01*
X108442380Y-102655714D01*
X108394761Y-102750952D01*
X108347142Y-102798571D01*
X108251904Y-102846190D01*
X107870952Y-102846190D01*
X108870952Y-102322380D02*
X108870952Y-103131904D01*
X108918571Y-103227142D01*
X108966190Y-103274761D01*
X109061428Y-103322380D01*
X109251904Y-103322380D01*
X109347142Y-103274761D01*
X109394761Y-103227142D01*
X109442380Y-103131904D01*
X109442380Y-102322380D01*
X109775714Y-102322380D02*
X110347142Y-102322380D01*
X110061428Y-103322380D02*
X110061428Y-102322380D01*
X111442380Y-103322380D02*
X111442380Y-102322380D01*
X112013809Y-103322380D01*
X112013809Y-102322380D01*
X112680476Y-102322380D02*
X112870952Y-102322380D01*
X112966190Y-102370000D01*
X113061428Y-102465238D01*
X113109047Y-102655714D01*
X113109047Y-102989047D01*
X113061428Y-103179523D01*
X112966190Y-103274761D01*
X112870952Y-103322380D01*
X112680476Y-103322380D01*
X112585238Y-103274761D01*
X112490000Y-103179523D01*
X112442380Y-102989047D01*
X112442380Y-102655714D01*
X112490000Y-102465238D01*
X112585238Y-102370000D01*
X112680476Y-102322380D01*
X114109047Y-103322380D02*
X113775714Y-102846190D01*
X113537619Y-103322380D02*
X113537619Y-102322380D01*
X113918571Y-102322380D01*
X114013809Y-102370000D01*
X114061428Y-102417619D01*
X114109047Y-102512857D01*
X114109047Y-102655714D01*
X114061428Y-102750952D01*
X114013809Y-102798571D01*
X113918571Y-102846190D01*
X113537619Y-102846190D01*
X115823333Y-102370000D02*
X115728095Y-102322380D01*
X115585238Y-102322380D01*
X115442380Y-102370000D01*
X115347142Y-102465238D01*
X115299523Y-102560476D01*
X115251904Y-102750952D01*
X115251904Y-102893809D01*
X115299523Y-103084285D01*
X115347142Y-103179523D01*
X115442380Y-103274761D01*
X115585238Y-103322380D01*
X115680476Y-103322380D01*
X115823333Y-103274761D01*
X115870952Y-103227142D01*
X115870952Y-102893809D01*
X115680476Y-102893809D01*
X116251904Y-103036666D02*
X116728095Y-103036666D01*
X116156666Y-103322380D02*
X116490000Y-102322380D01*
X116823333Y-103322380D01*
X117013809Y-102322380D02*
X117585238Y-102322380D01*
X117299523Y-103322380D02*
X117299523Y-102322380D01*
X117918571Y-102798571D02*
X118251904Y-102798571D01*
X118394761Y-103322380D02*
X117918571Y-103322380D01*
X117918571Y-102322380D01*
X118394761Y-102322380D01*
D11*
X115570000Y-109855000D02*
X115570000Y-110796878D01*
X116078000Y-114554000D02*
X116078000Y-113893600D01*
X118110000Y-114554000D02*
X116078000Y-114554000D01*
X118110000Y-114935000D02*
X118110000Y-114554000D01*
X115062000Y-114554000D02*
X115062000Y-113893600D01*
X114808000Y-114554000D02*
X115062000Y-114554000D01*
X113030000Y-114554000D02*
X114808000Y-114554000D01*
X113030000Y-114935000D02*
X113030000Y-114554000D01*
X114246772Y-114138917D02*
X114246772Y-113610861D01*
X116881184Y-114133091D02*
X116881184Y-113610861D01*
X114246772Y-113610861D02*
G75*
G02*
X115570197Y-111312806I2468087J108756D01*
G01*
X114246772Y-114138917D02*
G75*
G02*
X116881184Y-114154612I1302250J-2518203D01*
G01*
X115819488Y-111050882D02*
G75*
G03*
X115819488Y-111050882I-254005J0D01*
G01*
X115565484Y-111304885D02*
G75*
G02*
X116881196Y-113610861I-1365972J-2307717D01*
G01*
X117475000Y-107950000D02*
X118110000Y-107950000D01*
X117475000Y-107950000D02*
G75*
G03*
X117475000Y-107950000I-1905000J0D01*
G01*
X121920000Y-116840000D02*
X120015000Y-116840000D01*
X121920000Y-119380000D02*
X121920000Y-116840000D01*
X109220000Y-116840000D02*
X111125000Y-116840000D01*
X109220000Y-119380000D02*
X109220000Y-116840000D01*
X120015000Y-116840000D02*
G75*
G03*
X120015000Y-116840000I-1905000J0D01*
G01*
X114935000Y-116840000D02*
G75*
G03*
X114935000Y-116840000I-1905000J0D01*
G01*
X125730000Y-107950000D02*
G75*
G03*
X125730000Y-107950000I-3810000J0D01*
G01*
X125730000Y-123190000D02*
G75*
G03*
X125730000Y-123190000I-3810000J0D01*
G01*
X113030000Y-123190000D02*
G75*
G03*
X113030000Y-123190000I-3810000J0D01*
G01*
M02*
