%TF.GenerationSoftware,KiCad,Pcbnew,(5.1.9)-1*%
%TF.CreationDate,2021-03-03T01:40:00+00:00*%
%TF.ProjectId,555 Front Panel,35353520-4672-46f6-9e74-2050616e656c,rev?*%
%TF.SameCoordinates,Original*%
%TF.FileFunction,Legend,Top*%
%TF.FilePolarity,Positive*%
%FSLAX46Y46*%
G04 Gerber Fmt 4.6, Leading zero omitted, Abs format (unit mm)*
G04 Created by KiCad (PCBNEW (5.1.9)-1) date 2021-03-03 01:40:00*
%MOMM*%
%LPD*%
G01*
G04 APERTURE LIST*
%ADD10C,0.120000*%
%ADD11C,0.150000*%
G04 APERTURE END LIST*
D10*
X87630000Y-71120000D02*
X92710000Y-71120000D01*
X96520000Y-67310000D02*
X96520000Y-62230000D01*
X92075000Y-58420000D02*
X92710000Y-58420000D01*
X88265000Y-58420000D02*
X84455000Y-58420000D01*
X79375000Y-61277500D02*
X80010000Y-61277500D01*
X79375000Y-60642500D02*
X79375000Y-61277500D01*
X80010000Y-60642500D02*
X79375000Y-60642500D01*
X80010000Y-60007500D02*
X80010000Y-60642500D01*
X79375000Y-60007500D02*
X80010000Y-60007500D01*
X79375000Y-59372500D02*
X79375000Y-60007500D01*
X80010000Y-59372500D02*
X79375000Y-59372500D01*
X80010000Y-58737500D02*
X80010000Y-59372500D01*
X79375000Y-58737500D02*
X80010000Y-58737500D01*
X79375000Y-58102500D02*
X79375000Y-58737500D01*
X80010000Y-58102500D02*
X79375000Y-58102500D01*
X80010000Y-57467500D02*
X80010000Y-58102500D01*
X79375000Y-57467500D02*
X80010000Y-57467500D01*
X79375000Y-56832500D02*
X79375000Y-57467500D01*
X80010000Y-56832500D02*
X79375000Y-56832500D01*
X84455000Y-61277500D02*
X83820000Y-61277500D01*
X84455000Y-60642500D02*
X84455000Y-61277500D01*
X83820000Y-60642500D02*
X84455000Y-60642500D01*
X83820000Y-60007500D02*
X83820000Y-60642500D01*
X84455000Y-60007500D02*
X83820000Y-60007500D01*
X84455000Y-59372500D02*
X84455000Y-60007500D01*
X83820000Y-59372500D02*
X84455000Y-59372500D01*
X83820000Y-58737500D02*
X83820000Y-59372500D01*
X84455000Y-58737500D02*
X83820000Y-58737500D01*
X84455000Y-58102500D02*
X84455000Y-58737500D01*
X83820000Y-58102500D02*
X84455000Y-58102500D01*
X83820000Y-57467500D02*
X83820000Y-58102500D01*
X84455000Y-57467500D02*
X83820000Y-57467500D01*
X84455000Y-56832500D02*
X84455000Y-57467500D01*
X83820000Y-56832500D02*
X84455000Y-56832500D01*
X92075000Y-58420000D02*
G75*
G03*
X92075000Y-58420000I-1905000J0D01*
G01*
X100330000Y-58420000D02*
G75*
G03*
X100330000Y-58420000I-3810000J0D01*
G01*
X100330000Y-71120000D02*
G75*
G03*
X100330000Y-71120000I-3810000J0D01*
G01*
X87630000Y-71120000D02*
G75*
G03*
X87630000Y-71120000I-3810000J0D01*
G01*
D11*
X82462619Y-58023214D02*
X82462619Y-57547023D01*
X81986428Y-57499404D01*
X82034047Y-57547023D01*
X82081666Y-57642261D01*
X82081666Y-57880357D01*
X82034047Y-57975595D01*
X81986428Y-58023214D01*
X81891190Y-58070833D01*
X81653095Y-58070833D01*
X81557857Y-58023214D01*
X81510238Y-57975595D01*
X81462619Y-57880357D01*
X81462619Y-57642261D01*
X81510238Y-57547023D01*
X81557857Y-57499404D01*
X82462619Y-58975595D02*
X82462619Y-58499404D01*
X81986428Y-58451785D01*
X82034047Y-58499404D01*
X82081666Y-58594642D01*
X82081666Y-58832738D01*
X82034047Y-58927976D01*
X81986428Y-58975595D01*
X81891190Y-59023214D01*
X81653095Y-59023214D01*
X81557857Y-58975595D01*
X81510238Y-58927976D01*
X81462619Y-58832738D01*
X81462619Y-58594642D01*
X81510238Y-58499404D01*
X81557857Y-58451785D01*
X82462619Y-59927976D02*
X82462619Y-59451785D01*
X81986428Y-59404166D01*
X82034047Y-59451785D01*
X82081666Y-59547023D01*
X82081666Y-59785119D01*
X82034047Y-59880357D01*
X81986428Y-59927976D01*
X81891190Y-59975595D01*
X81653095Y-59975595D01*
X81557857Y-59927976D01*
X81510238Y-59880357D01*
X81462619Y-59785119D01*
X81462619Y-59547023D01*
X81510238Y-59451785D01*
X81557857Y-59404166D01*
D10*
X81280000Y-61912500D02*
G75*
G02*
X82550000Y-61912500I635000J0D01*
G01*
X83820000Y-61912500D02*
X80010000Y-61912500D01*
X83820000Y-56197500D02*
X83820000Y-61912500D01*
X80010000Y-56197500D02*
X83820000Y-56197500D01*
X80010000Y-61912500D02*
X80010000Y-56197500D01*
D11*
X78795952Y-52602380D02*
X78319761Y-52602380D01*
X78272142Y-53078571D01*
X78319761Y-53030952D01*
X78415000Y-52983333D01*
X78653095Y-52983333D01*
X78748333Y-53030952D01*
X78795952Y-53078571D01*
X78843571Y-53173809D01*
X78843571Y-53411904D01*
X78795952Y-53507142D01*
X78748333Y-53554761D01*
X78653095Y-53602380D01*
X78415000Y-53602380D01*
X78319761Y-53554761D01*
X78272142Y-53507142D01*
X79748333Y-52602380D02*
X79272142Y-52602380D01*
X79224523Y-53078571D01*
X79272142Y-53030952D01*
X79367380Y-52983333D01*
X79605476Y-52983333D01*
X79700714Y-53030952D01*
X79748333Y-53078571D01*
X79795952Y-53173809D01*
X79795952Y-53411904D01*
X79748333Y-53507142D01*
X79700714Y-53554761D01*
X79605476Y-53602380D01*
X79367380Y-53602380D01*
X79272142Y-53554761D01*
X79224523Y-53507142D01*
X80700714Y-52602380D02*
X80224523Y-52602380D01*
X80176904Y-53078571D01*
X80224523Y-53030952D01*
X80319761Y-52983333D01*
X80557857Y-52983333D01*
X80653095Y-53030952D01*
X80700714Y-53078571D01*
X80748333Y-53173809D01*
X80748333Y-53411904D01*
X80700714Y-53507142D01*
X80653095Y-53554761D01*
X80557857Y-53602380D01*
X80319761Y-53602380D01*
X80224523Y-53554761D01*
X80176904Y-53507142D01*
X81795952Y-52602380D02*
X82367380Y-52602380D01*
X82081666Y-53602380D02*
X82081666Y-52602380D01*
X82700714Y-53602380D02*
X82700714Y-52935714D01*
X82700714Y-52602380D02*
X82653095Y-52650000D01*
X82700714Y-52697619D01*
X82748333Y-52650000D01*
X82700714Y-52602380D01*
X82700714Y-52697619D01*
X83176904Y-53602380D02*
X83176904Y-52935714D01*
X83176904Y-53030952D02*
X83224523Y-52983333D01*
X83319761Y-52935714D01*
X83462619Y-52935714D01*
X83557857Y-52983333D01*
X83605476Y-53078571D01*
X83605476Y-53602380D01*
X83605476Y-53078571D02*
X83653095Y-52983333D01*
X83748333Y-52935714D01*
X83891190Y-52935714D01*
X83986428Y-52983333D01*
X84034047Y-53078571D01*
X84034047Y-53602380D01*
X84891190Y-53554761D02*
X84795952Y-53602380D01*
X84605476Y-53602380D01*
X84510238Y-53554761D01*
X84462619Y-53459523D01*
X84462619Y-53078571D01*
X84510238Y-52983333D01*
X84605476Y-52935714D01*
X84795952Y-52935714D01*
X84891190Y-52983333D01*
X84938809Y-53078571D01*
X84938809Y-53173809D01*
X84462619Y-53269047D01*
X85367380Y-53602380D02*
X85367380Y-52935714D01*
X85367380Y-53126190D02*
X85415000Y-53030952D01*
X85462619Y-52983333D01*
X85557857Y-52935714D01*
X85653095Y-52935714D01*
X78986428Y-54252380D02*
X79319761Y-55252380D01*
X79653095Y-54252380D01*
X80415000Y-55252380D02*
X80415000Y-54728571D01*
X80367380Y-54633333D01*
X80272142Y-54585714D01*
X80081666Y-54585714D01*
X79986428Y-54633333D01*
X80415000Y-55204761D02*
X80319761Y-55252380D01*
X80081666Y-55252380D01*
X79986428Y-55204761D01*
X79938809Y-55109523D01*
X79938809Y-55014285D01*
X79986428Y-54919047D01*
X80081666Y-54871428D01*
X80319761Y-54871428D01*
X80415000Y-54823809D01*
X80891190Y-55252380D02*
X80891190Y-54585714D01*
X80891190Y-54776190D02*
X80938809Y-54680952D01*
X80986428Y-54633333D01*
X81081666Y-54585714D01*
X81176904Y-54585714D01*
X81510238Y-55252380D02*
X81510238Y-54585714D01*
X81510238Y-54252380D02*
X81462619Y-54300000D01*
X81510238Y-54347619D01*
X81557857Y-54300000D01*
X81510238Y-54252380D01*
X81510238Y-54347619D01*
X82415000Y-55252380D02*
X82415000Y-54728571D01*
X82367380Y-54633333D01*
X82272142Y-54585714D01*
X82081666Y-54585714D01*
X81986428Y-54633333D01*
X82415000Y-55204761D02*
X82319761Y-55252380D01*
X82081666Y-55252380D01*
X81986428Y-55204761D01*
X81938809Y-55109523D01*
X81938809Y-55014285D01*
X81986428Y-54919047D01*
X82081666Y-54871428D01*
X82319761Y-54871428D01*
X82415000Y-54823809D01*
X82891190Y-55252380D02*
X82891190Y-54252380D01*
X82891190Y-54633333D02*
X82986428Y-54585714D01*
X83176904Y-54585714D01*
X83272142Y-54633333D01*
X83319761Y-54680952D01*
X83367380Y-54776190D01*
X83367380Y-55061904D01*
X83319761Y-55157142D01*
X83272142Y-55204761D01*
X83176904Y-55252380D01*
X82986428Y-55252380D01*
X82891190Y-55204761D01*
X83938809Y-55252380D02*
X83843571Y-55204761D01*
X83795952Y-55109523D01*
X83795952Y-54252380D01*
X84700714Y-55204761D02*
X84605476Y-55252380D01*
X84415000Y-55252380D01*
X84319761Y-55204761D01*
X84272142Y-55109523D01*
X84272142Y-54728571D01*
X84319761Y-54633333D01*
X84415000Y-54585714D01*
X84605476Y-54585714D01*
X84700714Y-54633333D01*
X84748333Y-54728571D01*
X84748333Y-54823809D01*
X84272142Y-54919047D01*
M02*
