%TF.GenerationSoftware,KiCad,Pcbnew,(5.1.9)-1*%
%TF.CreationDate,2021-03-02T23:44:46+00:00*%
%TF.ProjectId,Power In Front Panel,506f7765-7220-4496-9e20-46726f6e7420,rev?*%
%TF.SameCoordinates,Original*%
%TF.FileFunction,Legend,Top*%
%TF.FilePolarity,Positive*%
%FSLAX46Y46*%
G04 Gerber Fmt 4.6, Leading zero omitted, Abs format (unit mm)*
G04 Created by KiCad (PCBNEW (5.1.9)-1) date 2021-03-02 23:44:46*
%MOMM*%
%LPD*%
G01*
G04 APERTURE LIST*
%ADD10C,0.120000*%
%ADD11C,0.150000*%
G04 APERTURE END LIST*
D10*
X121920000Y-88900000D02*
X117475000Y-88900000D01*
X121920000Y-92710000D02*
X121920000Y-88900000D01*
X113030000Y-96520000D02*
X118110000Y-96520000D01*
X117475000Y-88900000D02*
G75*
G03*
X117475000Y-88900000I-1905000J0D01*
G01*
X125730000Y-96520000D02*
G75*
G03*
X125730000Y-96520000I-3810000J0D01*
G01*
X113030000Y-96520000D02*
G75*
G03*
X113030000Y-96520000I-3810000J0D01*
G01*
D11*
X112117619Y-79637380D02*
X112117619Y-78637380D01*
X112498571Y-78637380D01*
X112593809Y-78685000D01*
X112641428Y-78732619D01*
X112689047Y-78827857D01*
X112689047Y-78970714D01*
X112641428Y-79065952D01*
X112593809Y-79113571D01*
X112498571Y-79161190D01*
X112117619Y-79161190D01*
X113308095Y-78637380D02*
X113498571Y-78637380D01*
X113593809Y-78685000D01*
X113689047Y-78780238D01*
X113736666Y-78970714D01*
X113736666Y-79304047D01*
X113689047Y-79494523D01*
X113593809Y-79589761D01*
X113498571Y-79637380D01*
X113308095Y-79637380D01*
X113212857Y-79589761D01*
X113117619Y-79494523D01*
X113070000Y-79304047D01*
X113070000Y-78970714D01*
X113117619Y-78780238D01*
X113212857Y-78685000D01*
X113308095Y-78637380D01*
X114070000Y-78637380D02*
X114308095Y-79637380D01*
X114498571Y-78923095D01*
X114689047Y-79637380D01*
X114927142Y-78637380D01*
X115308095Y-79113571D02*
X115641428Y-79113571D01*
X115784285Y-79637380D02*
X115308095Y-79637380D01*
X115308095Y-78637380D01*
X115784285Y-78637380D01*
X116784285Y-79637380D02*
X116450952Y-79161190D01*
X116212857Y-79637380D02*
X116212857Y-78637380D01*
X116593809Y-78637380D01*
X116689047Y-78685000D01*
X116736666Y-78732619D01*
X116784285Y-78827857D01*
X116784285Y-78970714D01*
X116736666Y-79065952D01*
X116689047Y-79113571D01*
X116593809Y-79161190D01*
X116212857Y-79161190D01*
X117974761Y-79637380D02*
X117974761Y-78637380D01*
X118450952Y-79637380D02*
X118450952Y-78637380D01*
X119022380Y-79637380D01*
X119022380Y-78637380D01*
X107546190Y-81287380D02*
X107070000Y-81287380D01*
X107070000Y-80287380D01*
X108070000Y-80287380D02*
X108260476Y-80287380D01*
X108355714Y-80335000D01*
X108450952Y-80430238D01*
X108498571Y-80620714D01*
X108498571Y-80954047D01*
X108450952Y-81144523D01*
X108355714Y-81239761D01*
X108260476Y-81287380D01*
X108070000Y-81287380D01*
X107974761Y-81239761D01*
X107879523Y-81144523D01*
X107831904Y-80954047D01*
X107831904Y-80620714D01*
X107879523Y-80430238D01*
X107974761Y-80335000D01*
X108070000Y-80287380D01*
X109450952Y-80335000D02*
X109355714Y-80287380D01*
X109212857Y-80287380D01*
X109070000Y-80335000D01*
X108974761Y-80430238D01*
X108927142Y-80525476D01*
X108879523Y-80715952D01*
X108879523Y-80858809D01*
X108927142Y-81049285D01*
X108974761Y-81144523D01*
X109070000Y-81239761D01*
X109212857Y-81287380D01*
X109308095Y-81287380D01*
X109450952Y-81239761D01*
X109498571Y-81192142D01*
X109498571Y-80858809D01*
X109308095Y-80858809D01*
X109927142Y-81287380D02*
X109927142Y-80287380D01*
X110974761Y-81192142D02*
X110927142Y-81239761D01*
X110784285Y-81287380D01*
X110689047Y-81287380D01*
X110546190Y-81239761D01*
X110450952Y-81144523D01*
X110403333Y-81049285D01*
X110355714Y-80858809D01*
X110355714Y-80715952D01*
X110403333Y-80525476D01*
X110450952Y-80430238D01*
X110546190Y-80335000D01*
X110689047Y-80287380D01*
X110784285Y-80287380D01*
X110927142Y-80335000D01*
X110974761Y-80382619D01*
X112689047Y-80335000D02*
X112593809Y-80287380D01*
X112450952Y-80287380D01*
X112308095Y-80335000D01*
X112212857Y-80430238D01*
X112165238Y-80525476D01*
X112117619Y-80715952D01*
X112117619Y-80858809D01*
X112165238Y-81049285D01*
X112212857Y-81144523D01*
X112308095Y-81239761D01*
X112450952Y-81287380D01*
X112546190Y-81287380D01*
X112689047Y-81239761D01*
X112736666Y-81192142D01*
X112736666Y-80858809D01*
X112546190Y-80858809D01*
X113117619Y-81001666D02*
X113593809Y-81001666D01*
X113022380Y-81287380D02*
X113355714Y-80287380D01*
X113689047Y-81287380D01*
X113879523Y-80287380D02*
X114450952Y-80287380D01*
X114165238Y-81287380D02*
X114165238Y-80287380D01*
X114784285Y-80763571D02*
X115117619Y-80763571D01*
X115260476Y-81287380D02*
X114784285Y-81287380D01*
X114784285Y-80287380D01*
X115260476Y-80287380D01*
X116403333Y-81239761D02*
X116546190Y-81287380D01*
X116784285Y-81287380D01*
X116879523Y-81239761D01*
X116927142Y-81192142D01*
X116974761Y-81096904D01*
X116974761Y-81001666D01*
X116927142Y-80906428D01*
X116879523Y-80858809D01*
X116784285Y-80811190D01*
X116593809Y-80763571D01*
X116498571Y-80715952D01*
X116450952Y-80668333D01*
X116403333Y-80573095D01*
X116403333Y-80477857D01*
X116450952Y-80382619D01*
X116498571Y-80335000D01*
X116593809Y-80287380D01*
X116831904Y-80287380D01*
X116974761Y-80335000D01*
X117403333Y-81287380D02*
X117403333Y-80287380D01*
X117879523Y-81287380D02*
X117879523Y-80287380D01*
X118212857Y-81001666D01*
X118546190Y-80287380D01*
X118546190Y-81287380D01*
X119022380Y-80287380D02*
X119022380Y-81096904D01*
X119070000Y-81192142D01*
X119117619Y-81239761D01*
X119212857Y-81287380D01*
X119403333Y-81287380D01*
X119498571Y-81239761D01*
X119546190Y-81192142D01*
X119593809Y-81096904D01*
X119593809Y-80287380D01*
X120546190Y-81287380D02*
X120070000Y-81287380D01*
X120070000Y-80287380D01*
X120831904Y-81001666D02*
X121308095Y-81001666D01*
X120736666Y-81287380D02*
X121070000Y-80287380D01*
X121403333Y-81287380D01*
X121593809Y-80287380D02*
X122165238Y-80287380D01*
X121879523Y-81287380D02*
X121879523Y-80287380D01*
X122689047Y-80287380D02*
X122879523Y-80287380D01*
X122974761Y-80335000D01*
X123070000Y-80430238D01*
X123117619Y-80620714D01*
X123117619Y-80954047D01*
X123070000Y-81144523D01*
X122974761Y-81239761D01*
X122879523Y-81287380D01*
X122689047Y-81287380D01*
X122593809Y-81239761D01*
X122498571Y-81144523D01*
X122450952Y-80954047D01*
X122450952Y-80620714D01*
X122498571Y-80430238D01*
X122593809Y-80335000D01*
X122689047Y-80287380D01*
X124117619Y-81287380D02*
X123784285Y-80811190D01*
X123546190Y-81287380D02*
X123546190Y-80287380D01*
X123927142Y-80287380D01*
X124022380Y-80335000D01*
X124070000Y-80382619D01*
X124117619Y-80477857D01*
X124117619Y-80620714D01*
X124070000Y-80715952D01*
X124022380Y-80763571D01*
X123927142Y-80811190D01*
X123546190Y-80811190D01*
%TO.C,REF\u002A\u002A*%
X124396666Y-68642380D02*
X124063333Y-68166190D01*
X123825238Y-68642380D02*
X123825238Y-67642380D01*
X124206190Y-67642380D01*
X124301428Y-67690000D01*
X124349047Y-67737619D01*
X124396666Y-67832857D01*
X124396666Y-67975714D01*
X124349047Y-68070952D01*
X124301428Y-68118571D01*
X124206190Y-68166190D01*
X123825238Y-68166190D01*
X124825238Y-68118571D02*
X125158571Y-68118571D01*
X125301428Y-68642380D02*
X124825238Y-68642380D01*
X124825238Y-67642380D01*
X125301428Y-67642380D01*
X126063333Y-68118571D02*
X125730000Y-68118571D01*
X125730000Y-68642380D02*
X125730000Y-67642380D01*
X126206190Y-67642380D01*
X126730000Y-67642380D02*
X126730000Y-67880476D01*
X126491904Y-67785238D02*
X126730000Y-67880476D01*
X126968095Y-67785238D01*
X126587142Y-68070952D02*
X126730000Y-67880476D01*
X126872857Y-68070952D01*
X127491904Y-67642380D02*
X127491904Y-67880476D01*
X127253809Y-67785238D02*
X127491904Y-67880476D01*
X127730000Y-67785238D01*
X127349047Y-68070952D02*
X127491904Y-67880476D01*
X127634761Y-68070952D01*
X104076666Y-68642380D02*
X103743333Y-68166190D01*
X103505238Y-68642380D02*
X103505238Y-67642380D01*
X103886190Y-67642380D01*
X103981428Y-67690000D01*
X104029047Y-67737619D01*
X104076666Y-67832857D01*
X104076666Y-67975714D01*
X104029047Y-68070952D01*
X103981428Y-68118571D01*
X103886190Y-68166190D01*
X103505238Y-68166190D01*
X104505238Y-68118571D02*
X104838571Y-68118571D01*
X104981428Y-68642380D02*
X104505238Y-68642380D01*
X104505238Y-67642380D01*
X104981428Y-67642380D01*
X105743333Y-68118571D02*
X105410000Y-68118571D01*
X105410000Y-68642380D02*
X105410000Y-67642380D01*
X105886190Y-67642380D01*
X106410000Y-67642380D02*
X106410000Y-67880476D01*
X106171904Y-67785238D02*
X106410000Y-67880476D01*
X106648095Y-67785238D01*
X106267142Y-68070952D02*
X106410000Y-67880476D01*
X106552857Y-68070952D01*
X107171904Y-67642380D02*
X107171904Y-67880476D01*
X106933809Y-67785238D02*
X107171904Y-67880476D01*
X107410000Y-67785238D01*
X107029047Y-68070952D02*
X107171904Y-67880476D01*
X107314761Y-68070952D01*
%TD*%
M02*
